<?xml version="1.0" encoding="utf-8"?>
<!-- Generator: Adobe Illustrator 24.3.0, SVG Export Plug-In . SVG Version: 6.00 Build 0)  -->
<svg version="1.1" id="Calque_1" xmlns="http://www.w3.org/2000/svg" xmlns:xlink="http://www.w3.org/1999/xlink" x="0px" y="0px"
	 viewBox="0 0 655 629" style="enable-background:new 0 0 655 629;" xml:space="preserve">
<style type="text/css">
	.st0{fill:#CCCCCC;}
</style>
<path class="st0" d="M632,317.4c0,44.7,0,89.3,0,134c0,40.8-12.4,77.4-38.4,108.9c-23.6,28.8-53.7,48.3-90.2,56.5
	c-13.7,3.1-28,4.9-42,5c-89.6,0.4-179.3,0.4-268.9,0.2C139.4,621.8,95.2,601.5,61,561c-26.2-31-38.9-67.6-39-108.2
	c-0.1-90.5-0.7-181,0.2-271.4C22.8,115.5,53,65.7,109.9,32.7c25-14.5,52.5-20.7,81.4-20.7c90.5,0,181-0.3,271.4,0.1
	c52.7,0.2,96.5,20.8,130.4,61.1c26.4,31.4,38.8,68.2,38.8,109.2C632,227.4,632,272.4,632,317.4z M327.2,66.1c-44.5,0-89,0-133.5,0
	c-17.7,0-35,2.6-50.9,10.5c-43.6,21.7-66.3,57.3-66.5,105.9c-0.5,89.7-0.2,179.3-0.1,269c0,17.4,2.8,34.3,10.6,49.9
	c21.8,43.6,57.4,66.1,106,66.3c89.5,0.5,179,0.1,268.5,0.1c17.4,0,34.3-2.7,49.9-10.5c43.4-21.6,66.2-57,66.5-105.4
	c0.6-90,0.4-180,0-270c-0.2-44-19.7-77.7-57.3-100.5c-18.3-11.1-38.5-15.3-59.7-15.3C416.2,66.1,371.7,66.1,327.2,66.1z"/>
<path class="st0" d="M327.1,474.1c-86.3,0.2-157.1-70.5-157.3-157c-0.2-86.3,70.4-157.1,157-157.3c86.3-0.2,157.1,70.5,157.3,157
	C484.4,403.1,413.7,473.9,327.1,474.1z M430,316.8c-0.3-56.9-46.7-103.1-103.2-102.8c-56.9,0.3-103.1,46.7-102.8,103.2
	c0.3,56.9,46.7,103.1,103.2,102.8C384.1,419.7,430.3,373.3,430,316.8z"/>
<path class="st0" d="M491,193.2c-21.8,0.1-39.9-17.9-39.9-39.6c0.1-21.6,17.8-39.3,39.5-39.5c21.6-0.2,40,18,39.9,39.6
	C530.4,175.3,512.6,193.1,491,193.2z"/>
</svg>
