<?xml version="1.0" encoding="utf-8"?>
<!-- Generator: Adobe Illustrator 24.3.0, SVG Export Plug-In . SVG Version: 6.00 Build 0)  -->
<svg version="1.1" id="Calque_1" xmlns="http://www.w3.org/2000/svg" xmlns:xlink="http://www.w3.org/1999/xlink" x="0px" y="0px"
	 viewBox="0 0 205.4 178.3" style="enable-background:new 0 0 205.4 178.3;" xml:space="preserve">
<style type="text/css">
	.st0{fill:#242526;}
</style>
<path class="st0" d="M40.7,21.6c39.9,0,79.8,0,119.7,0c1.3,0.4,2.6,0.7,3.8,1.3c4.9,2.5,7.3,6.6,7.3,12.1c0,19.7,0,39.3,0,59
	c0,18.7,0,37.3,0,56c0,2.2-0.3,4.3-1.3,6.3c-2.5,4.8-6.5,7.2-12,7.2c-38.5,0-76.9,0-115.4,0c-0.3,0-0.6,0-1,0
	c-3.7-0.2-6.7-1.7-9.2-4.5c-1.7-1.9-2.4-4.2-3.1-6.6c0-39.9,0-79.8,0-119.7c0.1-0.3,0.2-0.6,0.3-0.9c0.7-2.9,2.1-5.3,4.4-7.2
	C36.1,22.9,38.4,22.2,40.7,21.6z M107.4,82.7c0-1.7,0-3.2,0-4.6c0-3-1.3-4.3-4.3-4.3c-4.7,0-9.4,0-14.1,0c-3.8,0-4.9,1.1-4.9,4.8
	c0,21.5,0,43,0,64.6c0,0.4,0,0.8,0,1.2c0.1,2,1.4,3.4,3.4,3.4c5.4,0,10.9,0,16.3,0c2,0,3.3-1.3,3.5-3.2c0.1-0.5,0-1,0-1.5
	c0-11,0-22,0-33c0-2.9,0.5-5.8,1.5-8.5c2-5.6,5.6-8.5,11.2-8.8c5.3-0.3,9.6,2.3,11.2,7.4c0.9,2.7,1.4,5.7,1.4,8.5
	c0.2,11.7,0.1,23.4,0.1,35c0,2.8,1.3,4.1,4.1,4.1c5.3,0,10.6,0,15.9,0c2.6,0,3.9-1.3,3.9-3.9c0-12.4,0.1-24.8,0-37.1
	c-0.1-6.4-0.6-12.8-3-18.9c-2.7-6.9-7.3-11.8-14.5-13.9c-4.3-1.3-8.7-1.5-13.1-1.1c-5.3,0.4-10.3,1.8-14.3,5.5
	C110.1,79.6,108.8,81.1,107.4,82.7z M73.4,110.8c0-10.9,0-21.8,0-32.7c0-3.1-1.4-4.4-4.5-4.5c-4.8,0-9.6,0-14.4,0
	c-2.9,0-4.4,1.5-4.4,4.5c0,21.7,0,43.5,0,65.2c0,3,1.4,4.4,4.4,4.4c4.8,0,9.6,0,14.4,0c3.3,0,4.5-1.2,4.5-4.5
	C73.4,132.4,73.4,121.6,73.4,110.8z M61.8,67.3c8.3,0,15-6.7,15.1-15s-6.7-15-15-15.1c-8.4,0-15.1,6.7-15.1,15.1
	C46.8,60.7,53.5,67.3,61.8,67.3z"/>
</svg>
