<?xml version="1.0" encoding="utf-8"?>
<!-- Generator: Adobe Illustrator 24.3.0, SVG Export Plug-In . SVG Version: 6.00 Build 0)  -->
<svg version="1.1" id="Calque_1" xmlns="http://www.w3.org/2000/svg" xmlns:xlink="http://www.w3.org/1999/xlink" x="0px" y="0px"
	 viewBox="0 0 205.4 178.3" style="enable-background:new 0 0 205.4 178.3;" xml:space="preserve">
<style type="text/css">
	.st0{fill:#242526;}
</style>
<path class="st0" d="M184.3,47.6c-0.3-5.4-3-10-7.2-13l0.2-0.1l-0.9-0.3c-1.1-0.7-2.2-1.3-3.4-1.7l-0.5,0.3
	c-1.7-0.5-3.5-0.8-5.4-0.8H38.2c-1.4,0-2.9,0.2-4.3,0.5l-0.5-0.4c-1.3,0.4-2.6,0.9-3.7,1.6L28.9,34l0.2,0.1c-4.7,3-7.9,8.2-8,14.2
	l16.6,11.4l0,0L21.1,48.3c0,0.1,0,0.2,0,0.3V133c0,9.5,7.7,17.1,17.1,17.1h1.4v-0.2H165v0.2h2.2c9.5,0,17.1-7.7,17.1-17.1V48.6
	C184.3,48.3,184.3,48,184.3,47.6z M163,146H41.6V62.7l61.1,42.1L163,62.7V146z M165,37.9l-62.7,42.6l-62.7-44L38.9,36h128.2
	c0.2,0,0.4,0,0.6,0L165,37.9z"/>
</svg>
