<?xml version="1.0" encoding="utf-8"?>
<!-- Generator: Adobe Illustrator 24.3.0, SVG Export Plug-In . SVG Version: 6.00 Build 0)  -->
<svg version="1.1" id="Calque_1" xmlns="http://www.w3.org/2000/svg" xmlns:xlink="http://www.w3.org/1999/xlink" x="0px" y="0px"
	 viewBox="0 0 1142.5 595.3" style="enable-background:new 0 0 1142.5 595.3;" xml:space="preserve">
<style type="text/css">
	.st0{fill:#FFFFFF;}
</style>
<g>
	<path class="st0" d="M249.1,500.8c1.5-0.3,3.1-0.6,4.6-0.9c2.3-0.5,4.7-0.9,7-1.4c2-0.4,4-1.1,5.7-2.3c1.1-0.8,1.6-2.1,0.9-3.4
		c-0.6-1-2.3-1.7-3.4-0.9c-2.7,2.1-6.8,2.3-10.1,2.9c-1.9,0.4-3.9,0.8-5.8,1.1c-0.5-2.5-1.1-4.9-1.6-7.4c2.5,0,5.1,0,7.6,0
		c2.7,0,3.1-3.6,1.2-4.7c0.2-6.2,0.3-12.4,0.3-18.5c0-1.6,0-3.2,0-4.7c0-1.4,0.1-2.9-0.4-4.3c-1.2-3.4-5.1-3-8-3c-2.7,0-5.5,0-8.2,0
		c-0.2-1-0.4-2.1-0.7-3.1c-1-4.6-1.7-9.4-3.5-13.8c-1.8-4.3-4.7-7.6-8.7-10c-4-2.3-8.5-4-12.8-5.8c-9.4-3.9-19.1-6.4-29.4-5.6
		c-10.2,0.8-20,3.8-29.8,6.4c-9.9,2.6-19.9,4.8-30,6.5c-20.1,3.4-40.6,4.8-61,4.3c-2.6-0.1-5.1-0.1-7.7-0.3
		c-1.5-0.1-2.9,1.7-2.4,3.1c0.7,1.8,1.2,3.6,1.7,5.5c-6.2-0.2-12.5-0.5-18.7-0.7c18.5-14.4,34.9-31.2,50.5-48.7
		c17.2-19.2,33.5-39.2,51.1-57.9c9.2-9.8,18.8-19.2,28.9-28c4.7,8.3,11.3,15.3,18.4,21.6c8.4,7.4,17.3,14.1,25.9,21.1
		c18.5,15.2,36.5,31.2,53.8,47.7c8.3,8,16.5,16.1,24.5,24.3c-15.9-0.1-31.8-0.2-47.7-0.2c-5.1,0-10.3-0.1-15.4-0.1
		c-3.2,0-3.2,4.9,0,5c17.9,0.1,35.7,0.2,53.6,0.3c5.1,0,10.3,0.1,15.4,0.1c2.2,0,3.2-2.7,1.8-4.2c-16.5-17.2-33.6-33.8-51.3-49.7
		c-8.9-8-18-15.8-27.2-23.5c-8.7-7.2-17.6-14.1-26.3-21.3c-8.9-7.5-17.3-15.7-22.6-26.2c-0.8-1.5-2.8-1.5-3.9-0.5
		c-19.7,16.6-37,35.7-53.8,55.1C94.8,374.2,78.3,394,60,412.1c-10.1,10-20.8,19.5-32.3,28c-1.9,1.4-1.4,4.5,1.3,4.6
		c8.8,0.3,17.5,0.6,26.3,1c0.1,0,0.2,0,0.3,0c2.3,16.1-2.2,32.9-0.4,49c0.6,5.1,1.7,10.1,3.7,14.9c2.1,5.1,4.8,9.9,7,15
		c4,9.6,5.7,19.9,6.1,30.2c0.5,12-0.7,24-1.8,35.9c-0.1,1.3,1.2,2.5,2.5,2.5c1.5,0,2.3-1.1,2.5-2.5c2.1-21,4.2-43.1-2.9-63.5
		c-1.8-5.2-4.3-10.1-6.7-15c-2.3-4.7-4-9.5-4.9-14.7c-1.7-9.9-0.6-20.1,0.1-30c0.7-10.1,1.1-20.6-1.8-30.4c19.1,0.7,38.3-0.3,57.2-3
		c10-1.4,19.9-3.2,29.7-5.5c9.8-2.3,19.3-5.4,29.2-7.4c4.8-1,9.6-1.5,14.5-1.4c4.9,0.1,9.7,1.1,14.4,2.6c4.5,1.4,8.9,3.3,13.3,5.2
		c3.8,1.6,7.9,3.3,10.7,6.5c2.7,3.2,3.5,7.6,4.3,11.5c0.6,2.6,1.1,5.1,1.7,7.7c-5,0-10.1,0-15.1,0c0-0.3,0-0.5,0-0.8
		c0-3.2-5-3.2-5,0c0,0.3,0,0.5,0,0.8c-1.9,0-3.8,0-5.7,0c-7.4,0-14.7,0-22.1,0c-3.2,0-3.2,5,0,5c9.3,0,18.5,0,27.8,0
		c0,8.4,0,16.9,0,25.3c-3.4,0-6.7,0-10.1,0c-4.8,0-9.6,0-14.5,0c-0.1,0-0.3,0-0.4,0c-0.1-0.3-0.2-0.5-0.3-0.8
		c-2.7-7.3-4.4-14.9-5-22.7c-0.1-1.3-1.1-2.5-2.5-2.5c-1.3,0-2.6,1.1-2.5,2.5c1.1,15,6,29.8,14.5,42.3c2.1,3,4.3,6.7,8.2,7.2
		c2.1,0.3,4.2-0.4,6.2-0.8c2.1-0.4,4.1-0.8,6.2-1.2c0,2.5,0,5,0,7.6c0,3.2,5,3.2,5,0c0-2.8,0-5.7,0-8.5c6.9-1.4,13.9-2.7,20.8-4.1
		c1.6-0.3,3.1-0.6,4.7-0.9c3.7,17.2,7.4,34.5,11.1,51.7c0.5,2.5,1.1,5,1.6,7.6c0.7,3.1,5.5,1.8,4.8-1.3
		C257.6,540.1,253.4,520.4,249.1,500.8z M213.8,502.7c-2.6,0.5-5.2,1-7.8,1.5c-1.3,0.3-3.3,1-4.6,0.5c-1.4-0.5-2.3-2.3-3.1-3.4
		c-2.8-4-5.2-8.2-7.3-12.6c7.6,0,15.2,0,22.8,0C213.8,493.3,213.8,498,213.8,502.7z M250.5,458c0,0,0,0,0,0.1
		C250.4,458,250.4,458,250.5,458z M218.8,458.3c1.3,0,2.7,0,4,0c4,0,8.1,0,12.1,0c0.2,0.9,0.4,1.8,0.6,2.7c1.6,7.5,3.2,15,4.9,22.6
		c-7.2,0-14.4,0-21.6,0C218.8,475.2,218.8,466.8,218.8,458.3z M241.9,497.2c-7.7,1.5-15.4,3-23.2,4.5c0-4.4,0-8.7,0-13.1
		c7,0,13.9,0,20.9,0c0.6,0,1.2,0,1.8,0c0.2,1.1,0.5,2.1,0.7,3.2c0.4,1.7,0.7,3.4,1.1,5.2C242.8,497,242.4,497.1,241.9,497.2z
		 M241.6,465.8c-0.5-2.5-1.1-5-1.6-7.5c0.4,0,0.8,0,1.2,0c3,0,6.1-0.1,9.1,0c0,0,0.1,0,0.2,0c0,0.4,0,1,0,1.1c0,1.6,0,3.2,0.1,4.7
		c0,6.5-0.1,13-0.3,19.5c-1.6,0-3.2,0-4.9,0C244.2,477.7,242.9,471.8,241.6,465.8z"/>
	<path class="st0" d="M153.6,514.2c-0.6-2.7-1.2-5.5-1.8-8.2c5.3-0.2,10.6-0.3,15.9-0.5c3.2-0.1,3.2-5.1,0-5
		c-5.6,0.2-11.2,0.3-16.9,0.5c-2.7-14.2-4.4-28.5-5.2-43c-0.1-1.6-1.5-2.9-3.1-2.4c-10.1,2.9-20.4,5.2-30.8,6.9
		c-1.1-0.9-3-0.7-3.7,0.6c-3.9,0.6-7.7,1.1-11.6,1.5c-1.3,0.1-2.5,1-2.5,2.5c0,1.2,1.1,2.6,2.5,2.5c3.8-0.4,7.6-0.9,11.4-1.5
		c0.2,11.4,0.3,22.8,0.5,34.1c-3.8,0.1-7.5,0.2-11.3,0.3c-0.8,0-1.6,0-2.4,0.1c0-2.4,0.1-4.8,0.1-7.2c0-7.5,0-15,0-22.4
		c0-3.2-5-3.2-5,0c0,9.9-0.1,19.9-0.1,29.8c-4.2,0.1-8.4,0.3-12.5,0.4c-3.2,0.1-3.2,5.1,0,5c4.2-0.1,8.4-0.3,12.6-0.4
		c0,2.4,0,4.8,0,7.3c0.1,6,0.7,12.3,4.4,17.3c3.1,4.2,7.5,7,12.5,8.4c11.7,3.5,23.3-1.2,33.5-6.9c2.6-1.5,5.2-2.9,7.7-4.6
		c2.3-1.5,4.5-3.3,5.7-5.8C154.8,520.6,154.3,517.4,153.6,514.2z M140.8,461.3c0.7,12,2.1,24,4.2,35.9c0.2,1.3,0.5,2.7,0.7,4
		c-10.9,0.3-21.8,0.7-32.7,1c-0.2-11.6-0.3-23.2-0.5-34.8C122.1,465.9,131.5,463.8,140.8,461.3z M147.8,522.8
		c-1.7,1.8-3.9,3-6.1,4.3c-9.1,5.4-19.6,11.5-30.7,9.8c-4.3-0.7-8.6-2.4-11.7-5.5c-3.7-3.7-4.7-8.9-4.9-14c-0.1-3.2-0.1-6.4-0.1-9.6
		c4.6-0.1,9.2-0.3,13.8-0.4c0.1,6.3,0.2,12.5,0.3,18.8c0,3.2,5,3.2,5,0c-0.1-6.3-0.2-12.6-0.3-18.9c11.2-0.3,22.4-0.7,33.6-1
		c0.7,3.4,1.4,6.7,2.2,10.1C149.5,518.7,149.6,520.9,147.8,522.8z"/>
	<path class="st0" d="M208.4,546.8c-0.6-3.4-1-6.9-1.4-10.3c-0.2-1.5-0.6-3-1.8-4c-1.6-1.4-3.9-1.1-5.9-1
		c-6.9,0.3-13.8,1.1-20.7,1.1c-7.4,0-15-0.8-21.7-4c-2-0.9-4.1,0.6-3.6,2.8c4.1,17.9,8.1,35.8,12.2,53.8c0.6,2.8,4.9,2.1,4.9-0.7
		c-0.1-15.5-0.2-31-0.2-46.5c0-0.4-0.1-0.7-0.2-1c8,0.9,16.1,0.2,24.1-0.3c1.6-0.1,3.2-0.2,4.8-0.3c0.9,0,1.7-0.1,2.6-0.1
		c0.1,0,0.3,0,0.4,0c0,0,0,0,0,0c0,0.2,0,0.3,0.1,0.2c-0.1,0.6,0.2,1.5,0.3,2.2c0.1,0.8,0.2,1.5,0.3,2.3c0.3,1.9,0.5,3.8,0.8,5.7
		c1.1,7.1,2.6,14.1,4.5,21c2.1,7.8,4.8,15.5,7.8,23c0.5,1.2,1.6,2.1,3.1,1.7c1.2-0.3,2.2-1.8,1.7-3.1
		C214.9,575.6,210.8,561.3,208.4,546.8z M165.1,538c0,7.9,0.1,15.9,0.1,23.8c-2-9-4.1-18-6.1-27.1c2.2,0.7,4.3,1.3,6.6,1.7
		C165.3,536.8,165.1,537.3,165.1,538z"/>
	<path class="st0" d="M378.2,578c-8.6-3.2-17.3-6.1-26-8.7c-4.4-1.3-8.9-2.6-13.3-3.8c-3.4-0.9-6.9-2-10.4-1.1
		c-3.4,0.9-5.7,4.1-4.2,7.6c0.4,0.9,0.9,1.6,1.5,2.3c0.5,0.5,1.1,1,1.4,1.7c-0.4-0.1-0.7-0.1-0.9-0.2c-8.2-2.4-16.1-5.8-23.5-10.1
		c-1.7-1-3.7-1.9-5.7-1.3c-2.7,0.8-3.2,3.4-2.6,5.8c0.9,3.7,2,7.4,3,11.1c-6.5-1.3-12.9-2.7-19.4-4c-1.9-0.4-3.8-0.8-5.7-1.2
		c-1.9-0.3-3.8-0.5-5.6,0.4c-3.1,1.6-3.6,6.1-0.7,8.1c2.4,1.6,4.7-1.8,3.1-3.7c0.1,0,0.1,0,0.1,0c1.1-0.3,2.5,0.2,3.5,0.4
		c3.1,0.6,6.1,1.3,9.2,1.9c6.1,1.2,12.1,2.5,18.2,3.7c1.8,0.4,3.6-1.1,3.1-3.1c-1.2-4.2-2.3-8.4-3.5-12.7c-0.1-0.5-0.3-0.9-0.4-1.4
		c0-0.1,0-0.2-0.1-0.3c1.3,0.5,2.6,1.5,3.8,2.2c7.1,3.9,14.9,7.2,22.8,9.3c2,0.5,4.3,0.4,5.6-1.5c0.9-1.4,0.9-3.2,0.4-4.7
		c-0.6-1.8-2-2.7-3-4.2c-0.1-0.1-0.2-0.3-0.2-0.4c0,0,0,0,0,0c0,0,0,0,0-0.1c0,0,0,0,0-0.1c0,0,0,0,0,0c0,0,0,0,0-0.1
		c0,0,0.1-0.1,0.1-0.1c0.1,0,0.2-0.1,0.2-0.1c0.4-0.2,0.6-0.3,1.2-0.4c0.3-0.1,1.2-0.1,1.7-0.1c1.5,0.1,3,0.6,4.7,1
		c4.1,1.1,8.3,2.2,12.4,3.4c9.4,2.8,18.7,5.9,27.9,9.2c1.3,0.5,2.7-0.5,3.1-1.7C380.3,579.7,379.5,578.5,378.2,578z M299.3,568.6
		C299.2,568.5,299.2,568.5,299.3,568.6C299,568.3,299.8,567.9,299.3,568.6z M327.5,576.8C327.6,577,327.4,577,327.5,576.8
		L327.5,576.8z"/>
	<path class="st0" d="M305.3,493c0.8-0.9,1.6-1.6,2.5-2.3c0.6,1.2,1.4,2.2,2.5,2.9c2.9,1.8,6.1,0.7,8.4-1.4c1.1-1,2-2.2,3.1-3.2
		c0.3-0.3,0.6-0.6,0.8-0.8c2.1,6.2,8,10.8,14.7,11.3c3.8,0.3,7.8-0.8,10.9-3.1c1.6-1.2,3.4-2.7,3.6-4.8c0.2-2.3-1.4-4.3-2.7-6.1
		c-2-2.8-4.2-5.4-6.6-7.8c4.9-2.9,7.5-9.8,7.6-15.1c0.1-4-1.5-7.9-4.8-10.2c-3.2-2.2-7.3-2-10.3,0.4c-0.8,0.6-1.5,1.4-2.1,2.1
		c-1.6-3-4.1-5.6-7.2-7.2c-3.5-1.8-7.4-2.5-11.3-2.3c-3.7,0.2-9.1,0.9-9.9,5.4c-0.4,2.5-0.1,5.2,0,7.7c0,2.6,0.1,5.2,0.1,7.8
		c0,1.7,1.6,2.7,3.1,2.4c2.3-0.4,4.9,0.6,6.3,2.5c0.1,0.1,0.1,0.2,0.2,0.3c-1.4,0.2-2.7,0.8-3.8,1.6c-3.4,2.5-4,7-3.9,11
		c0,0.5,0,1.1,0.1,1.6c-4.5,2.7-7.8,7.3-9.8,12.2c-3.4,8.3-4.2,17.8-4.3,26.7c-0.1,5.3,0.2,10.7,0.4,16c0.1,3.2,5.1,3.2,5,0
		c-0.4-8.6-0.8-17.2,0.1-25.7C298.7,507.3,300.2,498.7,305.3,493z M326.3,478.4c-1,0-1.6-0.1-2.4-0.3c-0.8-0.2-1.7-0.4-2.5-0.6
		c0.3-0.3,0.6-0.7,0.7-1.2c0.3-1.3-0.4-2.7-1.7-3.1c0,0,0,0-0.1,0c-0.2-0.2-0.3-0.4-0.5-0.5c0-0.1-0.1-0.2-0.1-0.3
		c0,0.1,0-0.3,0-0.5c0,0,0,0,0,0c0,0,0,0,0,0c0,0,0,0,0,0c0-0.1,0.1-0.2,0.1-0.1c0,0,0-0.1,0-0.1c0,0,0,0,0,0c0,0,0,0,0,0
		c0,0,0,0,0,0c0-0.1,0.1-0.2,0.1-0.1c0,0,0-0.1,0-0.1c0,0.1,0.3-0.3,0.4-0.4c0.1-0.1,0.2-0.1,0.2-0.1c0.1-0.1,0.3-0.2,0.4-0.2
		c0,0,0,0,0.1,0c0.1-0.1,0.3-0.1,0.4-0.1c0.2-0.1,0.4-0.1,0.6-0.1c0,0,0,0,0.1,0c0.3,0,0.7,0,1,0c0,0,0.2,0,0.3,0
		c0.1,0,0.3,0.1,0.3,0.1c0.4,0.1,0.7,0.2,1.1,0.3c0.5,0.2,1.2,0.5,1.8,0.9c0.7,0.4,1.3,0.8,1.9,1.2c0.3,0.2,0.5,0.4,0.8,0.5
		c0.1,0.1,0.2,0.2,0.3,0.2c0,0,0.4,0.3,0.4,0.3c0.2,0.2,0.5,0.4,0.7,0.7c0.1,0.1,0.2,0.2,0.3,0.4c0,0,0,0,0.1,0.1
		c0.2,0.2,0.3,0.5,0.4,0.7c0,0,0,0,0,0.1c0,0,0,0.2,0.1,0.3c0,0.1,0,0.2,0,0.2c0,0,0,0,0,0c0,0.1-0.1,0.2-0.1,0.3
		c-0.1,0.1-0.1,0.2-0.2,0.3c-0.1,0.1-0.5,0.4-0.4,0.4c-0.2,0.1-0.4,0.2-0.6,0.3c-0.1,0.1-0.2,0.1-0.3,0.2c0,0,0,0,0,0
		c-0.6,0.2-1.2,0.3-1.7,0.5c0.1,0-0.6,0.1-0.8,0.1C327.1,478.5,326.7,478.4,326.3,478.4z M322.1,470.4
		C322.2,470.3,322.3,470.3,322.1,470.4L322.1,470.4z M331.1,475C331.1,475.1,331.2,475.1,331.1,475L331.1,475z M331.5,475.7
		C331.5,475.6,331.5,475.5,331.5,475.7L331.5,475.7z M330,477.9C330.4,477.8,330.2,477.9,330,477.9L330,477.9z M344.6,487.6
		c0.7,0.9,1.3,1.9,1.9,2.9c0.4,0.7,0.6,0.4-0.1,1.1c-1.3,1.2-3,2-4.7,2.5c-7.1,2-13.9-2.9-15-10c0-0.2-0.1-0.4-0.2-0.6
		c0.9,0,1.9,0,2.8-0.2c2.9-0.4,5.8-2.1,6.9-4.8C339.3,481.1,342.2,484.2,344.6,487.6z M309.5,463.6c0-1.6,0-3.1-0.1-4.7
		c0-1.1,0-2.3,0-3.4c0-0.6,0-1.3,0-1.9c0-0.5-0.2-1.3,0-1.8c0.3-1.1,2.7-1.2,3.7-1.4c1.8-0.2,3.7-0.3,5.5,0c3.4,0.6,6.7,2.1,8.9,4.9
		c1.7,2.2,2.6,4.9,2.4,7.6c-0.1,0.6-0.2,1.2-0.3,1.8c-0.2,1.3,0.3,2.7,1.7,3.1c1.3,0.4,2.7-0.4,3.1-1.7c0.3-1,0.4-2.1,0.5-3.1
		c0.5-2.5,1.3-4.9,3.3-6.4c2.4-1.8,5.2-0.4,6.4,2.1c1.5,3.1,0.5,7.3-0.9,10.2c-1.1,2.4-3,5.1-5.9,5.1c-0.6,0-1.1,0.2-1.5,0.6
		c-0.9-3.4-4.5-5.8-7.5-7.4c-3.6-1.9-8.2-2.7-11.6,0C315.2,465,312.5,463.8,309.5,463.6z M311.8,480.1c0.3-1.5,0.9-3,2.3-3.7
		c0.9-0.4,1.6-0.5,2.2-0.1c0,0.1,0.1,0.1,0.1,0.2c-0.4,0.2-0.7,0.5-0.9,0.9c-0.6,1.1-0.3,2.8,0.9,3.4c1.8,0.9,3.7,1.6,5.6,2.1
		c-2,0.9-3.6,2.5-5.1,4.2c-0.9,0.9-1.7,1.8-2.5,2.3c-0.1,0-0.2,0.1-0.2,0.1c-0.1,0-0.2,0.1-0.3,0.1c-0.1,0-0.1,0-0.1,0
		c0,0-0.1,0-0.1,0c-0.1,0-0.1,0-0.2,0c-0.1,0-0.3-0.1-0.4-0.1c0,0-0.3-0.2-0.4-0.3c-0.2-0.2-0.4-0.5-0.5-0.8
		c0.9-0.3,1.9-0.5,2.9-0.5c3.2-0.2,3.2-5.1,0-5c-1.3,0.1-2.4,0.3-3.6,0.6C311.5,482.3,311.5,481.2,311.8,480.1z"/>
	<path class="st0" d="M319.8,471.7C319.8,471.7,319.8,471.7,319.8,471.7c0.1-0.1,0.1-0.1,0.1-0.1
		C319.9,471.6,319.8,471.6,319.8,471.7z"/>
	<path class="st0" d="M319.7,472C319.7,472,319.7,472,319.7,472c0-0.1,0.1-0.1,0.1-0.2C319.8,471.9,319.8,471.9,319.7,472z"/>
	<path class="st0" d="M137.9,61.8c3.3-3.7,5.7-8.2,6.4-13c0.2-1.3-0.3-2.7-1.7-3.1c-1.2-0.3-2.8,0.4-3.1,1.7
		c-1.1,6.9-5.6,12.8-11.8,16c-6.6,3.5-15.4,4-22.4,1.4c-2.9-1.1-6.4-4.3-4.1-7.5c0.8-1.1,0.2-2.8-0.9-3.4c-1.2-0.7-2.6-0.2-3.4,0.9
		c-2.7,3.8-1.2,9.3,2.2,12.1c3.7,3.1,8.7,4,13.3,4.3C121.9,71.9,131.6,68.8,137.9,61.8z"/>
	<path class="st0" d="M30.8,116.6c7.5-2,15.1-3.2,22.8-3.8c-0.2,0.7-0.3,1.5-0.1,2.3c0.4,2.1,2.1,3.5,3.6,4.9c2.5,2.6,4.3,5.8,5.7,9
		c3.1,7,4.6,14.6,8,21.4c2,3.8,6.6,7.8,10.9,4.7c2-1.4,3.2-3.8,4.1-5.9c1.1-2.3,1.8-4.8,2.2-7.3c0.1-0.9-0.1-1.9-0.7-2.5
		c1-0.4,1.7-1.4,1.3-2.8c-1.2-3.9-2.5-7.8-4-11.6c10.4-13.2,23.4-24.3,37.9-32.6c1-0.6,1.3-1.5,1.2-2.4c2.7-0.8,5.3-1.9,7.8-3.1
		c0.2,0.3,0.4,0.5,0.7,0.7c7.2,16.3,14.9,32.4,23.3,48.1c-4.5-1.4-9.2-2.4-13.9-2.9c-1.3-0.1-2.5,1.2-2.5,2.5c0,1.5,1.1,2.3,2.5,2.5
		c5,0.5,9.8,1.7,14.5,3.3c-9.6,10.3-18.9,21-27.6,32.1c-2.8,3.6-5.6,7.2-8.3,10.8c-0.8,1.1-0.2,2.8,0.9,3.4c1.3,0.7,2.6,0.2,3.4-0.9
		c11.4-15.2,23.7-29.7,36.7-43.6c5.3,2.1,10.5,4.5,15.6,7c11.7,5.7,23.1,11.8,34.3,18.3c6.3,3.6,12.5,7.4,18.7,11.3
		c2.7,1.7,5.2-2.6,2.5-4.3c-11.2-7.1-22.7-13.8-34.5-20.1c-11-5.9-22.3-11.8-33.9-16.5c0-1-0.4-1.9-1.1-2.6
		c-0.6-0.5-1.2-0.7-1.9-0.7c-0.1-0.1-0.1-0.3-0.2-0.4c-0.5-1-1.1-2-1.6-3c-1-2-2.1-4-3.1-6c-2-3.9-3.9-7.7-5.9-11.6
		c-3.9-7.8-7.6-15.8-11.2-23.7c-0.4-1-0.9-1.9-1.3-2.9c18.8-0.8,37.9-1.3,56.4,2.4c5.6,1.1,11.1,2.7,16.5,4.6
		c1.3,0.5,2.7-0.5,3.1-1.7c0.4-1.4-0.5-2.6-1.7-3.1c-19.4-7.1-40.4-8.1-60.9-7.7c-4.2,0.1-8.3,0.2-12.5,0.4c1.6-1.1,3.2-2.4,4.7-3.7
		c14.2-12.5,21.8-33.7,14.3-51.8c-3.6-8.7-10.6-16-19.6-19.1c-10.7-3.8-21.8,0-31.7,4.3c-4.7,2.1-9.6,4.2-13.8,7.3
		c-4.1,2.9-7.4,6.7-9.7,11.3c-4.9,9.7-5,20.8-3.8,31.4c0.3,3,0.8,5.9,1.2,8.9c0.1,0.9,0.9,1.5,1.8,1.7c1.9,5.7,5,10.8,9.9,14.4
		c6.1,4.5,14.1,5.5,21.7,4.8c-8.4,5.4-16.2,11.8-23.2,18.9c-6.5-13.8-12.9-27.7-19.1-41.7c-6.1-13.8-12.5-27.6-17.4-41.8
		C52,22,50.4,16.4,49.2,10.6c-0.1-2.5-0.5-5-1.2-7.4c-0.3-1.2-1.5-2-2.7-1.8c-1.1,0.2-2.3,1.2-2.2,2.4c0,0.2,0.1,0.4,0.1,0.7
		c0,0,0,0,0,0c0,0,0,0,0,0c0.3,2.1,0.6,4.3,1,6.4c0.3,4.9-0.3,9.8-0.9,14.7c-0.8,7.6-1.6,15.1-2.5,22.7C39.1,63,37.4,77.8,35,92.4
		c-1.2,7.2-3,14.4-7,20.6C26.8,114.9,28.8,117.2,30.8,116.6z M100.8,86.2c-8.4-2.4-13.2-10-15-18.1c-2-8.7-0.8-18.3,3-26.5
		c1-2.1,2.1-4.1,3.4-6c1.8-2.7-2.5-5.1-4.3-2.5c-0.8,1.3-1.6,2.6-2.3,3.9c1.1-3.2,2.7-6.3,4.9-8.9c3-3.6,7-6,11.2-8.1
		c8.7-4.4,18.5-9.1,28.5-8.5c8.2,0.5,15.7,5.5,20.1,12.3c9.7,14.8,5.1,35-6.2,47.5c-2.9,3.2-6.2,6.1-9.9,8.4
		c-0.4-0.9-0.8-1.8-1.2-2.8c-0.5-1.2-2.3-1.5-3.4-0.9c-1.3,0.7-1.4,2.2-0.9,3.4c0.4,0.9,0.8,1.8,1.2,2.8c-1.5,0.8-3.1,1.5-4.7,2.1
		C117.6,87.2,108.7,88.5,100.8,86.2z M83.2,140.6c-0.5,3.4-1.6,7.1-3.8,9.9c-0.7,0.9-1.3,1.1-2.2,0.4c-1.2-0.9-1.9-2.3-2.5-3.5
		c-2.7-5.9-4.2-12.2-6.6-18.2c-1.2-3-2.6-5.9-4.4-8.6c-1-1.4-2-2.8-3.2-4c-0.5-0.6-1.1-1.1-1.6-1.6c-0.2-0.2-0.5-0.4-0.5-0.7
		c0,0,0-0.1,0-0.1c0.2-0.6,2.2-1.3,3.1-1.6c2.6,0,5.3,0,7.9,0.2c1.6,0.5,3.3,0.9,5,1.3c1.7,3.4,3.2,6.8,4.6,10.2
		c-0.2,0.2-0.4,0.5-0.5,0.7c-0.8,1.1-0.2,2.8,0.9,3.4c0.5,0.3,0.9,0.4,1.4,0.3c1.1,3,2.2,6.1,3.1,9.2c0.1,0.5,0.4,0.8,0.7,1.1
		C83.9,139.4,83.4,139.9,83.2,140.6z M82.5,119.9c-0.7-1.6-1.4-3.2-2.2-4.8c2,0.2,4,0.3,6,0.3C85,116.9,83.7,118.3,82.5,119.9z
		 M39.3,96.5c1.4-7.3,2.2-14.6,3.2-22c2.1-15.5,4-31,5.6-46.5c0.1-0.6,0.1-1.2,0.2-1.7c2.3,7.1,5.1,14.1,8.1,21.1
		C62.5,61.7,68.8,76,75.3,90.2c3.1,6.8,6.2,13.5,9.4,20.2c-2.3-0.1-4.7-0.3-7-0.7c-0.8-1.6-1.6-3.3-2.7-4.7
		c-1.7-2.3-4.1-1.6-6.4-0.7c-1.3,0.5-2.5,1-3.8,1.6c-4-1.8-7.8-4-11.3-6.8c-1-0.8-2.5-1-3.5,0c-0.9,0.9-1.1,2.7,0,3.5
		c2.4,1.9,4.9,3.6,7.6,5.1c-7.6,0.3-15.2,1.2-22.6,2.8C37.1,106.1,38.4,101.3,39.3,96.5z"/>
	<path class="st0" d="M257,238.2c2.7,1.7,5.2-2.6,2.5-4.3c-18.2-11.1-36.1-22.8-53.5-35c-5-3.5-9.9-7-14.9-10.6
		c-1.1-0.8-2.8-0.2-3.4,0.9c-0.7,1.3-0.2,2.6,0.9,3.4c17.2,12.6,34.9,24.6,52.9,36C246.7,231.8,251.8,235,257,238.2z"/>
	<path class="st0" d="M59.3,556.5c-7.3-3.1-14.3-6.7-21-10.9c-1.7-1-3.3-2.1-5-3.2c-1.6-1.1-3.5-2.9-5.6-2.4
		c-4.2,1.1-2.6,6.8-1.9,9.7c0.7,3.3,1.8,6.5,3.1,9.7c-0.8-0.4-1.7-0.8-2.5-1.2c-2.5-1.1-5-2.3-7.5-3.4c-5-2.3-10-4.5-15-6.8
		c-1.8-0.8-3.5,0.2-3.7,2.1c-0.6,4.9,0.7,10,3.5,14.1c0.8,1.1,2.2,1.6,3.4,0.9c1.1-0.6,1.6-2.3,0.9-3.4c-1.6-2.4-2.6-5-2.9-7.7
		c4.6,2.1,9.3,4.2,13.9,6.4c3,1.3,5.9,2.7,8.9,4c2.2,1,5.3,1.2,6.6-1.3c0.9-1.6-0.1-3.1-0.8-4.6c-0.6-1.3-1.1-2.7-1.6-4.1
		c-0.9-2.7-1.6-5.4-2.1-8.2c0.1,0,0.1,0.1,0.2,0.1c0.7,0.5,1.4,0.9,2.1,1.4c2.5,1.6,5,3.2,7.6,4.6c5.8,3.4,11.9,6.3,18.1,8.9
		c1.2,0.5,2.7-0.6,3.1-1.7C61.4,558.1,60.5,557,59.3,556.5z"/>
	<path class="st0" d="M129,254.3c5.8-1.4,11.2-6.2,12.6-12.1c1.6-7-2.4-13.4-7-18.3c-4.5-4.8-10.9-9.4-17.9-8.4
		c-3,0.4-5.7,2-7.6,4.2c-3-1.9-7-2.7-10.2-3.3c-4.5-0.8-9.2-1.2-13.8-0.6c-4.1,0.5-8.1,2.3-8.9,6.8c-0.6,3.1,0.5,6.4,0.3,9.5
		c-8-1.8-16.6-2.2-24,1.8c-6.9,3.8-11.4,11.1-9.9,19.1c0.7,3.6,2.7,7,5.7,9.1c0,0.5,0.1,1,0.1,1.4c0.1,1.4,1,2.4,2.5,2.5
		c6,0.4,12.3,0.8,18-1.4c2-0.8,3.9-1.9,5.5-3.2c0.4,0.9,0.9,1.8,1.6,2.6c2.9,3.7,7.9,4.9,12.2,5.9c5.1,1.2,10.5,2.3,15.7,1.1
		c4.2-1,8.3-3.6,10.1-7.6c1.6-3.4,1.4-7,0.6-10.4C119.1,254.7,124.1,255.5,129,254.3z M111.3,245.3c-0.9-0.6-2.3-0.3-3,0.4
		c-0.8,0.8-0.8,2-0.4,3c1.4,3.3,3.1,7.3,2.1,11c-0.8,3-3.4,5-6.2,5.9c-3.8,1.2-7.8,0.7-11.5-0.1c-3.5-0.7-7.4-1.3-10.5-3.2
		c-1.7-1-3.7-3.4-3.4-5.6c0.5-0.8,0.9-1.7,1.3-2.6c0.9-2.3-2.6-4.3-4.1-2.4c-0.7,0.9-1.2,1.8-1.5,2.8c-1.7,2.6-4.5,4.5-7.4,5.4
		c-4.3,1.4-8.9,1.3-13.4,1c0-0.1,0-0.3,0-0.4c0.1-0.8-0.2-1.6-1-2.1c-0.1-0.1-0.3-0.2-0.4-0.3c-4.4-2.7-5.7-9-3.4-13.5
		c2.9-5.9,9.5-8.9,15.8-9.2c4.6-0.2,9.1,0.6,13.6,1.8c1.4,0.4,2.6-0.5,3.1-1.7c1.3-3.7,0-7.4,0.2-11.2c0.1-1.5,0.6-2.7,2.1-3.3
		c1.7-0.7,3.8-0.7,5.6-0.7c4.7-0.1,9.4,0.5,13.9,1.9c1.4,0.4,3,0.8,4.2,1.7c-0.6,2.1-0.6,4.4,0.4,6.7c0.5,1.1,2.4,1.6,3.4,0.9
		c2.7-2,3.3-5.4,2-8.2c1.4-1.6,3.5-2.9,5.3-3c5.2-0.5,9.8,3.3,13.2,6.8c3.3,3.4,6.8,8.1,6.1,13.1c-0.6,4.4-4.5,7.9-8.6,9.1
		C122.4,251.1,116.2,248.7,111.3,245.3z"/>
	<path class="st0" d="M252.8,77.5c-4.8,5.4-7,12.4-5.9,19.5c1.1,6.8,5.3,12.8,10.8,16.8c5.5,4.1,12.4,5.9,19.2,4.9
		c4.7-0.7,9.2-2.9,12.4-6.2c1.8,6.1,6.5,11.4,11.6,15.1c7.3,5.3,16.3,8.2,25.2,9c8.9,0.7,18.1-1,26.1-4.9
		c7.6-3.7,14.1-9.6,18.9-16.6c5.5-7.9,8.6-17.3,9-26.9c0.1-3.2-4.8-3.2-5,0c-0.5,15.1-9.2,29.6-22.1,37.4c-13.8,8.3-32.1,8.2-46,0.1
		c-7.3-4.2-14.5-11.6-13.4-20.7c0.2-1.2-1.1-2.3-2.2-2.4c-1.3-0.1-2.3,0.6-2.7,1.8c-1.6,5-6.4,8.1-11.3,9.3
		c-5.3,1.3-10.8,0.1-15.4-2.7c-4.7-2.9-8.4-7.6-9.9-13c-1.5-5.4-0.3-10.9,3-15.4c2.4-3.3,5.7-5.9,9.6-7.1c2.4,0.5,4.9,0.2,7.4-1.1
		c2.3-1.2,1.1-4.5-1.3-4.6c-2.2-0.1-4.3,0.1-6.4,0.6c-2.4-0.9-4.6-3-6-5.2c-3.2-5.3-1.7-11.5,0.2-17c1.2-3.4,2.6-6.6,3.8-10
		c0.9-2.5,1.6-5.1,2.6-7.6c0.9-2.1,2.2-4.2,4.3-5.4c2.7-1.5,6.6-0.8,9.6-0.8c8.7,0.2,17.5,0.3,26.2,0.5c3.2,0.1,3.2-4.9,0-5
		c-8.6-0.2-17.2-0.3-25.7-0.5c-4-0.1-8.3-0.6-12,1.1c-2.8,1.3-4.8,3.8-6.2,6.5c-1.4,2.8-2.3,5.9-3.3,8.9c-1.2,3.7-2.8,7.2-4,10.8
		c-2.3,6.8-3.6,14.4,0.3,20.8c1.2,1.9,2.7,3.7,4.5,5.1C256.5,73.9,254.5,75.6,252.8,77.5z"/>
	<path class="st0" d="M599.5,499.2c1.5-0.3,3.1-0.6,4.6-0.9c2.3-0.5,4.7-0.9,7-1.4c2-0.4,4-1.1,5.7-2.3c1.1-0.8,1.6-2.1,0.9-3.4
		c-0.6-1-2.3-1.7-3.4-0.9c-2.7,2.1-6.8,2.3-10.1,2.9c-1.9,0.4-3.9,0.8-5.8,1.1c-0.5-2.5-1.1-4.9-1.6-7.4c2.5,0,5.1,0,7.6,0
		c2.7,0,3.1-3.6,1.2-4.7c0.2-6.2,0.3-12.4,0.3-18.5c0-1.6,0-3.2,0-4.7c0-1.4,0.1-2.9-0.4-4.3c-1.2-3.4-5.1-3-8-3c-2.7,0-5.5,0-8.2,0
		c-0.2-1-0.4-2.1-0.7-3.1c-1-4.6-1.7-9.4-3.5-13.8c-1.8-4.3-4.7-7.6-8.7-10c-4-2.3-8.5-4-12.8-5.8c-9.4-3.9-19.1-6.4-29.4-5.6
		c-10.2,0.8-20,3.8-29.8,6.4c-9.9,2.6-19.9,4.8-30,6.5c-20.1,3.4-40.6,4.8-61,4.3c-2.6-0.1-5.1-0.1-7.7-0.3
		c-1.5-0.1-2.9,1.7-2.4,3.1c0.7,1.8,1.2,3.6,1.7,5.5c-6.2-0.2-12.5-0.5-18.7-0.7c18.5-14.4,34.9-31.2,50.5-48.7
		c17.2-19.2,33.5-39.2,51.1-57.9c9.2-9.8,18.8-19.2,28.9-28c4.7,8.3,11.3,15.3,18.4,21.6c8.4,7.4,17.3,14.1,25.9,21.1
		c18.5,15.2,36.5,31.2,53.8,47.7c8.3,8,16.5,16.1,24.5,24.3c-15.9-0.1-31.8-0.2-47.7-0.2c-5.1,0-10.3-0.1-15.4-0.1
		c-3.2,0-3.2,4.9,0,5c17.9,0.1,35.7,0.2,53.6,0.3c5.1,0,10.3,0.1,15.4,0.1c2.2,0,3.2-2.7,1.8-4.2c-16.5-17.2-33.6-33.8-51.3-49.7
		c-8.9-8-18-15.8-27.2-23.5c-8.7-7.2-17.6-14.1-26.3-21.3c-8.9-7.5-17.3-15.7-22.6-26.2c-0.8-1.5-2.8-1.5-3.9-0.5
		c-19.7,16.6-37,35.7-53.8,55.1c-16.8,19.4-33.3,39.2-51.6,57.3c-10.1,10-20.8,19.5-32.3,28c-1.9,1.4-1.4,4.5,1.3,4.6
		c8.8,0.3,17.5,0.6,26.3,1c0.1,0,0.2,0,0.3,0c2.3,16.1-2.2,32.9-0.4,49c0.6,5.1,1.7,10.1,3.7,14.9c2.1,5.1,4.8,9.9,7,15
		c4,9.6,5.7,19.9,6.1,30.2c0.5,12-0.7,24-1.8,35.9c-0.1,1.3,1.2,2.5,2.5,2.5c1.5,0,2.3-1.1,2.5-2.5c2.1-21,4.2-43.1-2.9-63.5
		c-1.8-5.2-4.3-10.1-6.7-15c-2.3-4.7-4-9.5-4.9-14.7c-1.7-9.9-0.6-20.1,0.1-30c0.7-10.1,1.1-20.6-1.8-30.4c19.1,0.7,38.3-0.3,57.2-3
		c10-1.4,19.9-3.2,29.7-5.5c9.8-2.3,19.3-5.4,29.2-7.4c4.8-1,9.6-1.5,14.5-1.4c4.9,0.1,9.7,1.1,14.4,2.6c4.5,1.4,8.9,3.3,13.3,5.2
		c3.8,1.6,7.9,3.3,10.7,6.5c2.7,3.2,3.5,7.6,4.3,11.5c0.6,2.6,1.1,5.1,1.7,7.7c-5,0-10.1,0-15.1,0c0-0.3,0-0.5,0-0.8
		c0-3.2-5-3.2-5,0c0,0.3,0,0.5,0,0.8c-1.9,0-3.8,0-5.7,0c-7.4,0-14.7,0-22.1,0c-3.2,0-3.2,5,0,5c9.3,0,18.5,0,27.8,0
		c0,8.4,0,16.9,0,25.3c-3.4,0-6.7,0-10.1,0c-4.8,0-9.6,0-14.5,0c-0.1,0-0.3,0-0.4,0c-0.1-0.3-0.2-0.5-0.3-0.8
		c-2.7-7.3-4.4-14.9-5-22.7c-0.1-1.3-1.1-2.5-2.5-2.5c-1.3,0-2.6,1.1-2.5,2.5c1.1,15,6,29.8,14.5,42.3c2.1,3,4.3,6.7,8.2,7.2
		c2.1,0.3,4.2-0.4,6.2-0.8c2.1-0.4,4.1-0.8,6.2-1.2c0,2.5,0,5,0,7.6c0,3.2,5,3.2,5,0c0-2.8,0-5.7,0-8.5c6.9-1.4,13.9-2.7,20.8-4.1
		c1.6-0.3,3.1-0.6,4.7-0.9c3.7,17.2,7.4,34.5,11.1,51.7c0.5,2.5,1.1,5,1.6,7.6c0.7,3.1,5.5,1.8,4.8-1.3
		C608,538.5,603.7,518.8,599.5,499.2z M564.2,501.1c-2.6,0.5-5.2,1-7.8,1.5c-1.3,0.3-3.3,1-4.6,0.5c-1.4-0.5-2.3-2.3-3.1-3.4
		c-2.8-4-5.2-8.2-7.3-12.6c7.6,0,15.2,0,22.8,0C564.2,491.7,564.2,496.4,564.2,501.1z M600.8,456.4c0,0,0,0,0,0.1
		C600.8,456.4,600.8,456.4,600.8,456.4z M569.1,456.7c1.3,0,2.7,0,4,0c4,0,8.1,0,12.1,0c0.2,0.9,0.4,1.8,0.6,2.7
		c1.6,7.5,3.2,15,4.9,22.6c-7.2,0-14.4,0-21.6,0C569.1,473.6,569.1,465.1,569.1,456.7z M592.3,495.6c-7.7,1.5-15.4,3-23.2,4.5
		c0-4.4,0-8.7,0-13.1c7,0,13.9,0,20.9,0c0.6,0,1.2,0,1.8,0c0.2,1.1,0.5,2.1,0.7,3.2c0.4,1.7,0.7,3.4,1.1,5.2
		C593.2,495.4,592.7,495.5,592.3,495.6z M592,464.2c-0.5-2.5-1.1-5-1.6-7.5c0.4,0,0.8,0,1.2,0c3,0,6.1-0.1,9.1,0c0,0,0.1,0,0.2,0
		c0,0.4,0,1,0,1.1c0,1.6,0,3.2,0.1,4.7c0,6.5-0.1,13-0.3,19.5c-1.6,0-3.2,0-4.9,0C594.5,476.1,593.2,470.2,592,464.2z"/>
	<path class="st0" d="M503.9,512.6c-0.6-2.7-1.2-5.5-1.8-8.2c5.3-0.2,10.6-0.3,15.9-0.5c3.2-0.1,3.2-5.1,0-5
		c-5.6,0.2-11.2,0.3-16.9,0.5c-2.7-14.2-4.4-28.5-5.2-43c-0.1-1.6-1.5-2.9-3.1-2.4c-10.1,2.9-20.4,5.2-30.8,6.9
		c-1.1-0.9-3-0.7-3.7,0.6c-3.9,0.6-7.7,1.1-11.6,1.5c-1.3,0.1-2.5,1-2.5,2.5c0,1.2,1.1,2.6,2.5,2.5c3.8-0.4,7.6-0.9,11.4-1.5
		c0.2,11.4,0.3,22.8,0.5,34.1c-3.8,0.1-7.5,0.2-11.3,0.3c-0.8,0-1.6,0-2.4,0.1c0-2.4,0.1-4.8,0.1-7.2c0-7.5,0-15,0-22.4
		c0-3.2-5-3.2-5,0c0,9.9-0.1,19.9-0.1,29.8c-4.2,0.1-8.4,0.3-12.5,0.4c-3.2,0.1-3.2,5.1,0,5c4.2-0.1,8.4-0.3,12.6-0.4
		c0,2.4,0,4.8,0,7.3c0.1,6,0.7,12.3,4.4,17.3c3.1,4.2,7.5,7,12.5,8.4c11.7,3.5,23.3-1.2,33.5-6.9c2.6-1.5,5.2-2.9,7.7-4.6
		c2.3-1.5,4.5-3.3,5.7-5.8C505.1,519,504.7,515.8,503.9,512.6z M491.2,459.7c0.7,12,2.1,24,4.2,35.9c0.2,1.3,0.5,2.7,0.7,4
		c-10.9,0.3-21.8,0.7-32.7,1c-0.2-11.6-0.3-23.2-0.5-34.8C472.5,464.3,481.9,462.2,491.2,459.7z M498.2,521.2
		c-1.7,1.8-3.9,3-6.1,4.3c-9.1,5.4-19.6,11.5-30.7,9.8c-4.3-0.7-8.6-2.4-11.7-5.5c-3.7-3.7-4.7-8.9-4.9-14c-0.1-3.2-0.1-6.4-0.1-9.6
		c4.6-0.1,9.2-0.3,13.8-0.4c0.1,6.3,0.2,12.5,0.3,18.8c0,3.2,5,3.2,5,0c-0.1-6.3-0.2-12.6-0.3-18.9c11.2-0.3,22.4-0.7,33.6-1
		c0.7,3.4,1.4,6.7,2.2,10.1C499.9,517.1,500,519.3,498.2,521.2z"/>
	<path class="st0" d="M558.7,545.1c-0.6-3.4-1-6.9-1.4-10.3c-0.2-1.5-0.6-3-1.8-4c-1.6-1.4-3.9-1.1-5.9-1
		c-6.9,0.3-13.8,1.1-20.7,1.1c-7.4,0-15-0.8-21.7-4c-2-0.9-4.1,0.6-3.6,2.8c4.1,17.9,8.1,35.8,12.2,53.8c0.6,2.8,4.9,2.1,4.9-0.7
		c-0.1-15.5-0.2-31-0.2-46.5c0-0.4-0.1-0.7-0.2-1c8,0.9,16.1,0.2,24.1-0.3c1.6-0.1,3.2-0.2,4.8-0.3c0.9,0,1.7-0.1,2.6-0.1
		c0.1,0,0.3,0,0.4,0c0,0,0,0,0,0c0,0.2,0,0.3,0.1,0.2c-0.1,0.6,0.2,1.5,0.3,2.2c0.1,0.8,0.2,1.5,0.3,2.3c0.3,1.9,0.5,3.8,0.8,5.7
		c1.1,7.1,2.6,14.1,4.5,21c2.1,7.8,4.8,15.5,7.8,23c0.5,1.2,1.6,2.1,3.1,1.7c1.2-0.3,2.2-1.8,1.7-3.1
		C565.2,574,561.2,559.7,558.7,545.1z M515.5,536.4c0,7.9,0.1,15.9,0.1,23.8c-2-9-4.1-18-6.1-27.1c2.2,0.7,4.3,1.3,6.6,1.7
		C515.7,535.2,515.5,535.7,515.5,536.4z"/>
	<path class="st0" d="M655.7,491.3c0.8-0.9,1.6-1.6,2.5-2.3c0.6,1.2,1.4,2.2,2.5,2.9c2.9,1.8,6.1,0.7,8.4-1.4c1.1-1,2-2.2,3.1-3.2
		c0.3-0.3,0.6-0.6,0.8-0.8c2.1,6.2,8,10.8,14.7,11.3c3.8,0.3,7.8-0.8,10.9-3.1c1.6-1.2,3.4-2.7,3.6-4.8c0.2-2.3-1.4-4.3-2.7-6.1
		c-2-2.8-4.2-5.4-6.6-7.8c4.9-2.9,7.5-9.8,7.6-15.1c0.1-4-1.5-7.9-4.8-10.2c-3.2-2.2-7.3-2-10.3,0.4c-0.8,0.6-1.5,1.4-2.1,2.1
		c-1.6-3-4.1-5.6-7.2-7.2c-3.5-1.8-7.4-2.5-11.3-2.3c-3.7,0.2-9.1,0.9-9.9,5.4c-0.4,2.5-0.1,5.2,0,7.7c0,2.6,0.1,5.2,0.1,7.8
		c0,1.7,1.6,2.7,3.1,2.4c2.3-0.4,4.9,0.6,6.3,2.5c0.1,0.1,0.1,0.2,0.2,0.3c-1.4,0.2-2.7,0.8-3.8,1.6c-3.4,2.5-4,7-3.9,11
		c0,0.5,0,1.1,0.1,1.6c-4.5,2.7-7.8,7.3-9.8,12.2c-3.4,8.3-4.2,17.8-4.3,26.7c-0.1,5.3,0.2,10.7,0.4,16c0.1,3.2,5.1,3.2,5,0
		c-0.4-8.6-0.8-17.2,0.1-25.7C649.1,505.7,650.6,497.1,655.7,491.3z M676.7,476.8c-1,0-1.6-0.1-2.4-0.3c-0.8-0.2-1.7-0.4-2.5-0.6
		c0.3-0.3,0.6-0.7,0.7-1.2c0.3-1.3-0.4-2.7-1.7-3.1c0,0,0,0-0.1,0c-0.2-0.2-0.3-0.4-0.5-0.5c0-0.1-0.1-0.2-0.1-0.3
		c0,0.1,0-0.3,0-0.5c0,0,0,0,0,0c0,0,0,0,0,0c0,0,0,0,0,0c0-0.1,0.1-0.2,0.1-0.1c0,0,0-0.1,0-0.1c0,0,0,0,0,0c0,0,0,0,0,0
		c0,0,0,0,0,0c0-0.1,0.1-0.2,0.1-0.1c0,0,0-0.1,0-0.1c0,0.1,0.3-0.3,0.4-0.4c0.1-0.1,0.2-0.1,0.2-0.1c0.1-0.1,0.3-0.2,0.4-0.2
		c0,0,0,0,0.1,0c0.1-0.1,0.3-0.1,0.4-0.1c0.2-0.1,0.4-0.1,0.6-0.1c0,0,0,0,0.1,0c0.3,0,0.7,0,1,0c0,0,0.2,0,0.3,0
		c0.1,0,0.3,0.1,0.3,0.1c0.4,0.1,0.7,0.2,1.1,0.3c0.5,0.2,1.2,0.5,1.8,0.9c0.7,0.4,1.3,0.8,1.9,1.2c0.3,0.2,0.5,0.4,0.8,0.5
		c0.1,0.1,0.2,0.1,0.3,0.2c0,0,0.4,0.3,0.4,0.3c0.2,0.2,0.5,0.4,0.7,0.7c0.1,0.1,0.2,0.2,0.3,0.4c0,0,0,0,0.1,0.1
		c0.2,0.2,0.3,0.5,0.4,0.7c0,0,0,0,0,0.1c0,0,0,0.2,0.1,0.3c0,0.1,0,0.2,0,0.2c0,0,0,0,0,0c0,0.1-0.1,0.2-0.1,0.3
		c-0.1,0.1-0.1,0.2-0.2,0.3c-0.1,0.1-0.5,0.4-0.4,0.4c-0.2,0.1-0.4,0.2-0.6,0.3c-0.1,0.1-0.2,0.1-0.3,0.2c0,0,0,0,0,0
		c-0.6,0.2-1.2,0.3-1.7,0.5c0.1,0-0.6,0.1-0.8,0.1C677.5,476.8,677.1,476.8,676.7,476.8z M672.5,468.7
		C672.6,468.7,672.6,468.7,672.5,468.7L672.5,468.7z M681.5,473.4C681.5,473.5,681.5,473.5,681.5,473.4L681.5,473.4z M681.9,474
		C681.8,474,681.8,473.9,681.9,474L681.9,474z M680.4,476.3C680.7,476.1,680.5,476.2,680.4,476.3L680.4,476.3z M695,486
		c0.7,0.9,1.3,1.9,1.9,2.9c0.4,0.7,0.6,0.4-0.1,1.1c-1.3,1.2-3,2-4.7,2.5c-7.1,2-13.9-2.9-15-10c0-0.2-0.1-0.4-0.2-0.6
		c0.9,0,1.9,0,2.8-0.2c2.9-0.4,5.8-2.1,6.9-4.8C689.7,479.5,692.6,482.6,695,486z M659.9,461.9c0-1.6,0-3.1-0.1-4.7
		c0-1.1,0-2.3,0-3.4c0-0.6,0-1.3,0-1.9c0-0.5-0.2-1.3,0-1.8c0.3-1.1,2.7-1.2,3.7-1.4c1.8-0.2,3.7-0.3,5.5,0c3.4,0.6,6.7,2.1,8.9,4.9
		c1.7,2.2,2.6,4.9,2.4,7.6c-0.1,0.6-0.2,1.2-0.3,1.8c-0.2,1.3,0.3,2.7,1.7,3.1c1.3,0.4,2.7-0.4,3.1-1.7c0.3-1,0.4-2.1,0.5-3.1
		c0.5-2.5,1.3-4.9,3.3-6.4c2.4-1.8,5.2-0.4,6.4,2.1c1.5,3.1,0.5,7.3-0.9,10.2c-1.1,2.4-3,5.1-5.9,5.1c-0.6,0-1.1,0.2-1.5,0.6
		c-0.9-3.4-4.5-5.8-7.5-7.4c-3.6-1.9-8.2-2.7-11.6,0C665.5,463.4,662.8,462.2,659.9,461.9z M662.1,478.5c0.3-1.5,0.9-3,2.3-3.7
		c0.9-0.4,1.6-0.5,2.2-0.1c0,0.1,0.1,0.1,0.1,0.2c-0.4,0.2-0.7,0.5-0.9,0.9c-0.6,1.1-0.3,2.8,0.9,3.4c1.8,0.9,3.7,1.6,5.6,2.1
		c-2,0.9-3.6,2.5-5.1,4.2c-0.9,0.9-1.7,1.8-2.5,2.3c-0.1,0-0.2,0.1-0.2,0.1c-0.1,0-0.2,0.1-0.3,0.1c-0.1,0-0.1,0-0.1,0
		c0,0-0.1,0-0.1,0c-0.1,0-0.1,0-0.2,0c-0.1,0-0.3-0.1-0.4-0.1c0,0-0.3-0.2-0.4-0.3c-0.2-0.2-0.4-0.5-0.5-0.8
		c0.9-0.3,1.9-0.5,2.9-0.5c3.2-0.2,3.2-5.1,0-5c-1.3,0.1-2.4,0.3-3.6,0.6C661.9,480.7,661.9,479.6,662.1,478.5z"/>
	<path class="st0" d="M670.2,470.1C670.2,470.1,670.2,470.1,670.2,470.1c0.1-0.1,0.1-0.1,0.1-0.1C670.2,470,670.2,470,670.2,470.1z"
		/>
	<path class="st0" d="M670.1,470.4C670.1,470.4,670.1,470.4,670.1,470.4c0-0.1,0.1-0.1,0.1-0.2C670.1,470.3,670.1,470.3,670.1,470.4
		z"/>
	<path class="st0" d="M488.3,60.2c3.3-3.7,5.7-8.2,6.4-13c0.2-1.3-0.3-2.7-1.7-3.1c-1.2-0.3-2.8,0.4-3.1,1.7
		c-1.1,6.9-5.6,12.8-11.8,16c-6.6,3.5-15.4,4-22.4,1.4c-2.9-1.1-6.4-4.3-4.1-7.5c0.8-1.1,0.2-2.8-0.9-3.4c-1.2-0.7-2.6-0.2-3.4,0.9
		c-2.7,3.8-1.2,9.3,2.2,12.1c3.7,3.1,8.7,4,13.3,4.3C472.2,70.3,482,67.2,488.3,60.2z"/>
	<path class="st0" d="M381.2,115c7.5-2,15.1-3.2,22.8-3.8c-0.2,0.7-0.3,1.5-0.1,2.3c0.4,2.1,2.1,3.5,3.6,4.9c2.5,2.6,4.3,5.8,5.7,9
		c3.1,7,4.6,14.6,8,21.4c2,3.8,6.6,7.8,10.9,4.7c2-1.4,3.2-3.8,4.1-5.9c1.1-2.3,1.8-4.8,2.2-7.3c0.1-0.9-0.1-1.9-0.7-2.5
		c1-0.4,1.7-1.4,1.3-2.8c-1.2-3.9-2.5-7.8-4-11.6c10.4-13.2,23.4-24.3,37.9-32.6c1-0.6,1.3-1.5,1.2-2.4c2.7-0.8,5.3-1.9,7.8-3.1
		c0.2,0.3,0.4,0.5,0.7,0.7c7.2,16.3,14.9,32.4,23.3,48.1c-4.5-1.4-9.2-2.4-13.9-2.9c-1.3-0.1-2.5,1.2-2.5,2.5c0,1.5,1.1,2.3,2.5,2.5
		c5,0.5,9.8,1.7,14.5,3.3c-9.6,10.3-18.9,21-27.6,32.1c-2.8,3.6-5.6,7.2-8.3,10.8c-0.8,1.1-0.2,2.8,0.9,3.4c1.3,0.7,2.6,0.2,3.4-0.9
		c11.4-15.2,23.7-29.7,36.7-43.6c5.3,2.1,10.5,4.5,15.6,7c11.7,5.7,23.1,11.8,34.3,18.3c6.3,3.6,12.5,7.4,18.7,11.3
		c2.7,1.7,5.2-2.6,2.5-4.3c-11.2-7.1-22.7-13.8-34.5-20.1c-11-5.9-22.3-11.8-33.9-16.5c0-1-0.4-1.9-1.1-2.6
		c-0.6-0.5-1.2-0.7-1.9-0.7c-0.1-0.1-0.1-0.3-0.2-0.4c-0.5-1-1.1-2-1.6-3c-1-2-2.1-4-3.1-6c-2-3.9-3.9-7.7-5.9-11.6
		c-3.9-7.8-7.6-15.8-11.2-23.7c-0.4-1-0.9-1.9-1.3-2.9c18.8-0.8,37.9-1.3,56.4,2.4c5.6,1.1,11.1,2.7,16.5,4.6
		c1.3,0.5,2.7-0.5,3.1-1.7c0.4-1.4-0.5-2.6-1.7-3.1c-19.4-7.1-40.4-8.1-60.9-7.7c-4.2,0.1-8.3,0.2-12.5,0.4c1.6-1.1,3.2-2.4,4.7-3.7
		C507.9,65,515.4,43.8,508,25.6c-3.6-8.7-10.6-16-19.6-19.1c-10.7-3.8-21.8,0-31.7,4.3c-4.7,2.1-9.6,4.2-13.8,7.3
		c-4.1,2.9-7.4,6.7-9.7,11.3c-4.9,9.7-5,20.8-3.8,31.4c0.3,3,0.8,5.9,1.2,8.9c0.1,0.9,0.9,1.5,1.8,1.7c1.9,5.7,5,10.8,9.9,14.4
		c6.1,4.5,14.1,5.5,21.7,4.8c-8.4,5.4-16.2,11.8-23.2,18.9c-6.5-13.8-12.9-27.7-19.1-41.7c-6.1-13.8-12.5-27.6-17.4-41.8
		c-1.9-5.5-3.6-11.2-4.7-16.9c-0.1-2.5-0.5-5-1.2-7.4c-0.3-1.2-1.5-2-2.7-1.8c-1.1,0.2-2.3,1.2-2.2,2.4c0,0.2,0.1,0.4,0.1,0.7
		c0,0,0,0,0,0c0,0,0,0,0,0c0.3,2.1,0.6,4.3,1,6.4c0.3,4.9-0.3,9.8-0.9,14.7c-0.8,7.6-1.6,15.1-2.5,22.7c-1.7,14.7-3.5,29.5-5.9,44.2
		c-1.2,7.2-3,14.4-7,20.6C377.2,113.3,379.2,115.6,381.2,115z M451.2,84.6c-8.4-2.4-13.2-10-15-18.1c-2-8.7-0.8-18.3,3-26.5
		c1-2.1,2.1-4.1,3.4-6c1.8-2.7-2.5-5.1-4.3-2.5c-0.8,1.3-1.6,2.6-2.3,3.9c1.1-3.2,2.7-6.3,4.9-8.9c3-3.6,7-6,11.2-8.1
		c8.7-4.4,18.5-9.1,28.5-8.5c8.2,0.5,15.7,5.5,20.1,12.3c9.7,14.8,5.1,35-6.2,47.5c-2.9,3.2-6.2,6.1-9.9,8.4
		c-0.4-0.9-0.8-1.8-1.2-2.8c-0.5-1.2-2.3-1.5-3.4-0.9c-1.3,0.7-1.4,2.2-0.9,3.4c0.4,0.9,0.8,1.8,1.2,2.8c-1.5,0.8-3.1,1.5-4.7,2.1
		C468,85.6,459.1,86.9,451.2,84.6z M433.6,139c-0.5,3.4-1.6,7.1-3.8,9.9c-0.7,0.9-1.3,1.1-2.2,0.4c-1.2-0.9-1.9-2.3-2.5-3.5
		c-2.7-5.9-4.2-12.2-6.6-18.2c-1.2-3-2.6-5.9-4.4-8.6c-1-1.4-2-2.8-3.2-4c-0.5-0.6-1.1-1.1-1.6-1.6c-0.2-0.2-0.5-0.4-0.5-0.7
		c0,0,0-0.1,0-0.1c0.2-0.6,2.2-1.3,3.1-1.6c2.6,0,5.3,0,7.9,0.2c1.6,0.5,3.3,0.9,5,1.3c1.7,3.4,3.2,6.8,4.6,10.2
		c-0.2,0.2-0.4,0.5-0.5,0.7c-0.8,1.1-0.2,2.8,0.9,3.4c0.5,0.3,0.9,0.4,1.4,0.3c1.1,3,2.2,6.1,3.1,9.2c0.1,0.5,0.4,0.8,0.7,1.1
		C434.2,137.8,433.7,138.3,433.6,139z M432.9,118.3c-0.7-1.6-1.4-3.2-2.2-4.8c2,0.2,4,0.3,6,0.3
		C435.4,115.2,434.1,116.7,432.9,118.3z M389.7,94.9c1.4-7.3,2.2-14.6,3.2-22c2.1-15.5,4-31,5.6-46.5c0.1-0.6,0.1-1.2,0.2-1.7
		c2.3,7.1,5.1,14.1,8.1,21.1c6.1,14.4,12.4,28.6,18.9,42.8c3.1,6.8,6.2,13.5,9.4,20.2c-2.3-0.1-4.7-0.3-7-0.7
		c-0.8-1.6-1.6-3.3-2.7-4.7c-1.7-2.3-4.1-1.6-6.4-0.7c-1.3,0.5-2.5,1-3.8,1.6c-4-1.8-7.8-4-11.3-6.8c-1-0.8-2.5-1-3.5,0
		c-0.9,0.9-1.1,2.7,0,3.5c2.4,1.9,4.9,3.6,7.6,5.1c-7.6,0.3-15.2,1.2-22.6,2.8C387.4,104.5,388.7,99.7,389.7,94.9z"/>
	<path class="st0" d="M730.6,244.8c6.6,0.1,13.1,0.1,19.7,0.3c3.2,0.1,3.2-4.9,0-5c-13.8-0.3-27.6-0.3-41.4-0.3
		c-0.1-0.2-0.1-0.4-0.2-0.7c-2.2-6.4-5.8-12.5-10.9-17c-5.5-4.8-12.4-7.4-19.6-8.6c-12.3-2.1-24.9-0.8-36.7,3.3
		c-11.5,4.1-22.1,10.7-30.8,19.3c-6.7,6.7-12.2,14.6-16,23.3c-16.4,3.9-31.6,12.8-43,25.4c-3.9,4.4-7.4,9.1-10.3,14.2
		c-1.6,2.8,2.7,5.3,4.3,2.5c9.6-16.8,25.5-29.6,43.8-35.6c1-0.3,2-0.6,3-0.9c-0.3,0.9-0.6,1.8-0.9,2.8c-3.9,13.6-2.9,29.9,8.5,39.7
		c2.2,1.9,4.6,3.3,7.3,4.4c0.4,1.5,0.8,3,1.5,4.4c1.4,3,3.8,5.5,6.6,7.2c5.5,3.4,12.2,4.1,18.5,4.9c0,0,0,0,0,0c0,2.4,0,4.8,0,7.2
		c0,5.6,0,11.3,0,16.9c0,3.2,5,3.2,5,0c0-7.8,0-15.7,0-23.5c5,0.5,10,0.9,15,0.9c13.2,0,26.8-2.7,37.1-11.6c3.3-2.8,6-6.1,8.2-9.7
		c13,4.2,26.1,8.3,39.1,12.5c3,1,4.4-3.8,1.3-4.8c-12.7-4-25.3-8.1-38-12.1c3.2-6.3,5.2-13.3,6.6-20.1c1.5-7.3,2.5-14.9,2.9-22.3
		c0.3-5.7,0-11.5-1.2-17.2C717,244.8,723.8,244.8,730.6,244.8z M705.2,274.2c-1.4,9.8-3.5,19.8-8.1,28.6c-5.9-1.9-11.7-3.7-17.6-5.6
		c-3-1-4.4,3.8-1.3,4.8c5.4,1.7,10.9,3.5,16.3,5.2c-0.3,0.4-0.5,0.8-0.8,1.2c-7.1,9.9-18.3,14.9-30.2,16.2c-6.3,0.7-12.6,0.6-19,0.1
		c-1.8-0.1-3.6-0.3-5.5-0.5c0-10.4,0-20.8,0-31.2c0-5.6,0-11.3,0-16.9c0-3.2-5-3.2-5,0c0,15.8,0,31.7,0,47.5
		c-2.6-0.3-5.1-0.7-7.7-1.3c-5.4-1.2-11-3.4-13.3-8.9c-1.2-2.9-1.5-6.1-1.7-9.1c-0.2-3.8-0.3-7.7-0.2-11.5c0.1-3.9,0.3-7.7,0.7-11.5
		c0.1-1.3-1.2-2.5-2.5-2.5c-1.5,0-2.3,1.1-2.5,2.5c-0.8,8.2-1.1,16.5-0.5,24.7c0,0,0,0,0,0.1c-3.8-2.2-6.8-5.7-8.9-9.6
		c-3.1-5.9-3.7-12.7-3-19.2c0.5-4.6,1.7-9.2,3.5-13.6c2.4-0.5,4.8-0.9,7.2-1.1c1.3-0.1,2.5-1,2.5-2.5c0-1.2-1.1-2.6-2.5-2.5
		c-1.6,0.2-3.2,0.4-4.8,0.6c2.4-4.8,5.4-9.3,8.8-13.4c14.3-17.2,36.5-28.1,59-27.4c6.2,0.2,12.7,1.1,18.4,3.6
		c5.8,2.5,10.4,6.7,13.6,12.1c1.3,2.1,2.3,4.3,3.1,6.6c-7.6,0-15.2,0.1-22.7,0.3c-6.6,0.1-13.1,0.3-19.6,0.5c-3.2,0.1-3.2,5.1,0,5
		c14.6-0.4,29.2-0.6,43.9-0.7C707.3,254.3,706.5,264.6,705.2,274.2z"/>
	<path class="st0" d="M607.4,236.6c2.7,1.7,5.2-2.6,2.5-4.3c-18.2-11.1-36.1-22.8-53.5-35c-5-3.5-9.9-7-14.9-10.6
		c-1.1-0.8-2.8-0.2-3.4,0.9c-0.7,1.3-0.2,2.6,0.9,3.4c17.2,12.6,34.9,24.6,52.9,36C597,230.2,602.2,233.4,607.4,236.6z"/>
	<path class="st0" d="M409.6,554.9c-7.3-3.1-14.3-6.7-21-10.9c-1.7-1-3.3-2.1-5-3.2c-1.6-1.1-3.5-2.9-5.6-2.4
		c-4.2,1.1-2.6,6.8-1.9,9.7c0.7,3.3,1.8,6.5,3.1,9.7c-0.8-0.4-1.7-0.8-2.5-1.2c-2.5-1.1-5-2.3-7.5-3.4c-5-2.3-10-4.5-15-6.8
		c-1.8-0.8-3.5,0.2-3.7,2.1c-0.6,4.9,0.7,10,3.5,14.1c0.8,1.1,2.2,1.6,3.4,0.9c1.1-0.6,1.6-2.3,0.9-3.4c-1.6-2.4-2.6-5-2.9-7.7
		c4.6,2.1,9.3,4.2,13.9,6.4c3,1.3,5.9,2.7,8.9,4c2.2,1,5.3,1.2,6.6-1.3c0.9-1.6-0.1-3.1-0.8-4.6c-0.6-1.3-1.1-2.7-1.6-4.1
		c-0.9-2.7-1.6-5.4-2.1-8.2c0.1,0,0.1,0.1,0.2,0.1c0.7,0.5,1.4,0.9,2.1,1.4c2.5,1.6,5,3.2,7.6,4.6c5.8,3.4,11.9,6.3,18.1,8.9
		c1.2,0.5,2.7-0.6,3.1-1.7C411.7,556.5,410.9,555.4,409.6,554.9z"/>
	<path class="st0" d="M479.3,252.7c5.8-1.4,11.2-6.2,12.6-12.1c1.6-7-2.4-13.4-7-18.3c-4.5-4.8-10.9-9.4-17.9-8.4
		c-3,0.4-5.7,2-7.6,4.2c-3-1.9-7-2.7-10.2-3.3c-4.5-0.8-9.2-1.2-13.8-0.6c-4.1,0.5-8.1,2.3-8.9,6.8c-0.6,3.1,0.5,6.4,0.3,9.5
		c-8-1.8-16.6-2.2-24,1.8c-4,2.2-7.1,5.5-8.8,9.5c-11.8-0.2-23.7-0.3-35.5-0.2c-0.1-0.2-0.1-0.4-0.2-0.7c-2.2-6.4-5.8-12.5-10.9-17
		c-5.5-4.8-12.4-7.4-19.6-8.6c-12.3-2.1-24.9-0.8-36.7,3.3c-11.5,4.1-22.1,10.7-30.8,19.3c-6.7,6.7-12.2,14.6-16,23.3
		c-16.4,3.9-31.6,12.8-43,25.4c-3.9,4.4-7.4,9.1-10.3,14.2c-1.6,2.8,2.7,5.3,4.3,2.5c9.6-16.8,25.5-29.6,43.8-35.6
		c1-0.3,2-0.6,3-0.9c-0.3,0.9-0.6,1.8-0.9,2.8c-3.9,13.6-2.9,29.9,8.5,39.7c2.2,1.9,4.6,3.3,7.3,4.4c0.4,1.5,0.8,3,1.5,4.4
		c1.4,3,3.8,5.5,6.6,7.2c5.5,3.4,12.2,4.1,18.5,4.9c0,0,0,0,0,0c0,2.4,0,4.8,0,7.2c0,5.6,0,11.3,0,16.9c0,3.2,5,3.2,5,0
		c0-7.8,0-15.7,0-23.5c5,0.5,10,0.9,15,0.9c13.2,0,26.8-2.7,37.1-11.6c3.3-2.8,6-6.1,8.2-9.7c13,4.2,26.1,8.3,39.1,12.5
		c3,1,4.4-3.8,1.3-4.8c-12.7-4-25.3-8.1-38-12.1c3.2-6.3,5.2-13.3,6.6-20.1c1.5-7.3,2.5-14.9,2.9-22.3c0.3-5.7,0-11.5-1.2-17.2
		c6.8,0,13.6,0,20.5,0c4.2,0,8.3,0.1,12.5,0.2c-0.1,1.5-0.1,3.1,0.2,4.7c0.7,3.6,2.7,7,5.7,9.1c0,0.5,0.1,1,0.1,1.4
		c0.1,1.4,1,2.4,2.5,2.5c6,0.4,12.3,0.8,18-1.4c2-0.8,3.9-1.9,5.5-3.2c0.4,0.9,0.9,1.8,1.6,2.6c2.9,3.7,7.9,4.9,12.2,5.9
		c5.1,1.2,10.5,2.3,15.7,1.1c4.2-1,8.3-3.6,10.1-7.6c1.6-3.4,1.4-7,0.6-10.4C469.5,253.1,474.5,253.9,479.3,252.7z M354.8,275.8
		c-1.4,9.8-3.5,19.8-8.1,28.6c-5.9-1.9-11.7-3.7-17.6-5.6c-3-1-4.4,3.8-1.3,4.8c5.4,1.7,10.9,3.5,16.3,5.2c-0.3,0.4-0.5,0.8-0.8,1.2
		c-7.1,9.9-18.3,14.9-30.2,16.2c-6.3,0.7-12.6,0.6-19,0.1c-1.8-0.1-3.6-0.3-5.5-0.5c0-10.4,0-20.8,0-31.2c0-5.6,0-11.3,0-16.9
		c0-3.2-5-3.2-5,0c0,15.8,0,31.7,0,47.5c-2.6-0.3-5.1-0.7-7.7-1.3c-5.4-1.2-11-3.4-13.3-8.9c-1.2-2.9-1.5-6.1-1.7-9.1
		c-0.2-3.8-0.3-7.7-0.2-11.5c0.1-3.9,0.3-7.7,0.7-11.5c0.1-1.3-1.2-2.5-2.5-2.5c-1.5,0-2.3,1.1-2.5,2.5c-0.8,8.2-1.1,16.5-0.5,24.7
		c0,0,0,0,0,0.1c-3.8-2.2-6.8-5.7-8.9-9.6c-3.1-5.9-3.7-12.7-3-19.2c0.5-4.6,1.7-9.2,3.5-13.6c2.4-0.5,4.8-0.9,7.2-1.1
		c1.3-0.1,2.5-1,2.5-2.5c0-1.2-1.1-2.6-2.5-2.5c-1.6,0.2-3.2,0.4-4.8,0.6c2.4-4.8,5.4-9.3,8.8-13.4c14.3-17.2,36.5-28.1,59-27.4
		c6.2,0.2,12.7,1.1,18.4,3.6c5.8,2.5,10.4,6.7,13.6,12.1c1.3,2.1,2.3,4.3,3.1,6.6c-7.6,0-15.2,0.1-22.7,0.3
		c-6.6,0.1-13.1,0.3-19.6,0.5c-3.2,0.1-3.2,5.1,0,5c14.6-0.4,29.2-0.6,43.9-0.7C356.9,255.9,356.2,266.2,354.8,275.8z M461.7,243.7
		c-0.9-0.6-2.3-0.3-3,0.4c-0.8,0.8-0.8,2-0.4,3c1.4,3.3,3.1,7.3,2.1,11c-0.8,3-3.4,5-6.2,5.9c-3.8,1.2-7.8,0.7-11.5-0.1
		c-3.5-0.7-7.4-1.3-10.5-3.2c-1.7-1-3.7-3.4-3.4-5.6c0.5-0.8,0.9-1.7,1.3-2.6c0.9-2.3-2.6-4.3-4.1-2.4c-0.7,0.9-1.2,1.8-1.5,2.8
		c-1.7,2.6-4.5,4.5-7.4,5.4c-4.3,1.4-8.9,1.3-13.4,1c0-0.1,0-0.3,0-0.4c0.1-0.8-0.2-1.6-1-2.1c-0.1-0.1-0.3-0.2-0.4-0.3
		c-3.4-2-4.9-6.2-4.4-10c0.8,0,1.5,0,2.3,0c3.2,0.1,3.2-4.9,0-5c-0.1,0-0.3,0-0.4,0c3.2-4.9,9.2-7.4,15-7.8
		c4.6-0.2,9.1,0.6,13.6,1.8c1.4,0.4,2.6-0.5,3.1-1.7c1.3-3.7,0-7.4,0.2-11.2c0.1-1.5,0.6-2.7,2.1-3.3c1.7-0.7,3.8-0.7,5.6-0.7
		c4.7-0.1,9.4,0.5,13.9,1.9c1.4,0.4,3,0.8,4.2,1.7c-0.6,2.1-0.6,4.4,0.4,6.7c0.5,1.1,2.4,1.6,3.4,0.9c2.7-2,3.3-5.4,2-8.2
		c1.4-1.6,3.5-2.9,5.3-3c5.2-0.5,9.8,3.3,13.2,6.8c3.3,3.4,6.8,8.1,6.1,13.1c-0.6,4.4-4.5,7.9-8.6,9.1
		C472.8,249.5,466.5,247.1,461.7,243.7z"/>
	<path class="st0" d="M603.2,75.9c-4.8,5.4-7,12.4-5.9,19.5c1.1,6.8,5.3,12.8,10.8,16.8c5.5,4.1,12.4,5.9,19.2,4.9
		c4.7-0.7,9.2-2.9,12.4-6.2c1.8,6.1,6.5,11.4,11.6,15.1c7.3,5.3,16.3,8.2,25.2,9c8.9,0.7,18.1-1,26.1-4.9
		c7.6-3.7,14.1-9.6,18.9-16.6c5.5-7.9,8.6-17.3,9-26.9c0.1-3.2-4.8-3.2-5,0c-0.5,15.1-9.2,29.6-22.1,37.4c-13.8,8.3-32.1,8.2-46,0.1
		c-7.3-4.2-14.5-11.6-13.4-20.7c0.2-1.2-1.1-2.3-2.2-2.4c-1.3-0.1-2.3,0.6-2.7,1.8c-1.6,5-6.4,8.1-11.3,9.3
		c-5.3,1.3-10.8,0.1-15.4-2.7c-4.7-2.9-8.4-7.6-9.9-13c-1.5-5.4-0.3-10.9,3-15.4c2.4-3.3,5.7-5.9,9.6-7.1c2.4,0.5,4.9,0.2,7.4-1.1
		c2.3-1.2,1.1-4.5-1.3-4.6c-2.2-0.1-4.3,0.1-6.4,0.6c-2.4-0.9-4.6-3-6-5.2c-3.2-5.3-1.7-11.5,0.2-17c1.2-3.4,2.6-6.6,3.8-10
		c0.9-2.5,1.6-5.1,2.6-7.6c0.9-2.1,2.2-4.2,4.3-5.4c2.7-1.5,6.6-0.8,9.6-0.8c8.7,0.2,17.5,0.3,26.2,0.5c3.2,0.1,3.2-4.9,0-5
		c-8.6-0.2-17.2-0.3-25.7-0.5c-4-0.1-8.3-0.6-12,1.1c-2.8,1.3-4.8,3.8-6.2,6.5c-1.4,2.8-2.3,5.9-3.3,8.9c-1.2,3.7-2.8,7.2-4,10.8
		c-2.3,6.8-3.6,14.4,0.3,20.8c1.2,1.9,2.7,3.7,4.5,5.1C606.9,72.3,604.9,74,603.2,75.9z"/>
	<path class="st0" d="M953.5,509.2c1.5-0.3,3.1-0.6,4.6-0.9c2.3-0.5,4.7-0.9,7-1.4c2-0.4,4-1.1,5.7-2.3c1.1-0.8,1.6-2.1,0.9-3.4
		c-0.6-1-2.3-1.7-3.4-0.9c-2.7,2.1-6.8,2.3-10.1,2.9c-1.9,0.4-3.9,0.8-5.8,1.1c-0.5-2.5-1.1-4.9-1.6-7.4c2.5,0,5.1,0,7.6,0
		c2.7,0,3.1-3.6,1.2-4.7c0.2-6.2,0.3-12.4,0.3-18.5c0-1.6,0-3.2,0-4.7c0-1.4,0.1-2.9-0.4-4.3c-1.2-3.4-5.1-3-8-3c-2.7,0-5.5,0-8.2,0
		c-0.2-1-0.4-2.1-0.7-3.1c-1-4.6-1.7-9.4-3.5-13.8c-1.8-4.3-4.7-7.6-8.7-10c-4-2.3-8.5-4-12.8-5.8c-9.4-3.9-19.1-6.4-29.4-5.6
		c-10.2,0.8-20,3.8-29.8,6.4c-9.9,2.6-19.9,4.8-30,6.5c-20.1,3.4-40.6,4.8-61,4.3c-2.6-0.1-5.1-0.1-7.7-0.3
		c-1.5-0.1-2.9,1.7-2.4,3.1c0.7,1.8,1.2,3.6,1.7,5.5c-6.2-0.2-12.5-0.5-18.7-0.7c18.5-14.4,34.9-31.2,50.5-48.7
		c17.2-19.2,33.5-39.2,51.1-57.9c9.2-9.8,18.8-19.2,28.9-28c4.7,8.3,11.3,15.3,18.4,21.6c8.4,7.4,17.3,14.1,25.9,21.1
		c18.5,15.2,36.5,31.2,53.8,47.7c8.3,8,16.5,16.1,24.5,24.3c-15.9-0.1-31.8-0.2-47.7-0.2c-5.1,0-10.3-0.1-15.4-0.1
		c-3.2,0-3.2,4.9,0,5c17.9,0.1,35.7,0.2,53.6,0.3c5.1,0,10.3,0.1,15.4,0.1c2.2,0,3.2-2.7,1.8-4.2c-16.5-17.2-33.6-33.8-51.3-49.7
		c-8.9-8-18-15.8-27.2-23.5c-8.7-7.2-17.6-14.1-26.3-21.3c-8.9-7.5-17.3-15.7-22.6-26.2c-0.8-1.5-2.8-1.5-3.9-0.5
		c-19.7,16.6-37,35.7-53.8,55.1c-16.8,19.4-33.3,39.2-51.6,57.3c-10.1,10-20.8,19.5-32.3,28c-1.9,1.4-1.4,4.5,1.3,4.6
		c8.8,0.3,17.5,0.6,26.3,1c0.1,0,0.2,0,0.3,0c2.3,16.1-2.2,32.9-0.4,49c0.6,5.1,1.7,10.1,3.7,14.9c2.1,5.1,4.8,9.9,7,15
		c4,9.6,5.7,19.9,6.1,30.2c0.5,12-0.7,24-1.8,35.9c-0.1,1.3,1.2,2.5,2.5,2.5c1.5,0,2.3-1.1,2.5-2.5c2.1-21,4.2-43.1-2.9-63.5
		c-1.8-5.2-4.3-10.1-6.7-15c-2.3-4.7-4-9.5-4.9-14.7c-1.7-9.9-0.6-20.1,0.1-30c0.7-10.1,1.1-20.6-1.8-30.4c19.1,0.7,38.3-0.3,57.2-3
		c10-1.4,19.9-3.2,29.7-5.5c9.8-2.3,19.3-5.4,29.2-7.4c4.8-1,9.6-1.5,14.5-1.4c4.9,0.1,9.7,1.1,14.4,2.6c4.5,1.4,8.9,3.3,13.3,5.2
		c3.8,1.6,7.9,3.3,10.7,6.5c2.7,3.2,3.5,7.6,4.3,11.5c0.6,2.6,1.1,5.1,1.7,7.7c-5,0-10.1,0-15.1,0c0-0.3,0-0.5,0-0.8
		c0-3.2-5-3.2-5,0c0,0.3,0,0.5,0,0.8c-1.9,0-3.8,0-5.7,0c-7.4,0-14.7,0-22.1,0c-3.2,0-3.2,5,0,5c9.3,0,18.5,0,27.8,0
		c0,8.4,0,16.9,0,25.3c-3.4,0-6.7,0-10.1,0c-4.8,0-9.6,0-14.5,0c-0.1,0-0.3,0-0.4,0c-0.1-0.3-0.2-0.5-0.3-0.8
		c-2.7-7.3-4.4-14.9-5-22.7c-0.1-1.3-1.1-2.5-2.5-2.5c-1.3,0-2.6,1.1-2.5,2.5c1.1,15,6,29.8,14.5,42.3c2.1,3,4.3,6.7,8.2,7.2
		c2.1,0.3,4.2-0.4,6.2-0.8c2.1-0.4,4.1-0.8,6.2-1.2c0,2.5,0,5,0,7.6c0,3.2,5,3.2,5,0c0-2.8,0-5.7,0-8.5c6.9-1.4,13.9-2.7,20.8-4.1
		c1.6-0.3,3.1-0.6,4.7-0.9c3.7,17.2,7.4,34.5,11.1,51.7c0.5,2.5,1.1,5,1.6,7.6c0.7,3.1,5.5,1.8,4.8-1.3
		C962,548.5,957.7,528.8,953.5,509.2z M918.2,511.1c-2.6,0.5-5.2,1-7.8,1.5c-1.3,0.3-3.3,1-4.6,0.5c-1.4-0.5-2.3-2.3-3.1-3.4
		c-2.8-4-5.2-8.2-7.3-12.6c7.6,0,15.2,0,22.8,0C918.2,501.7,918.2,506.4,918.2,511.1z M954.8,466.4c0,0,0,0,0,0.1
		C954.8,466.4,954.8,466.4,954.8,466.4z M923.1,466.7c1.3,0,2.7,0,4,0c4,0,8.1,0,12.1,0c0.2,0.9,0.4,1.8,0.6,2.7
		c1.6,7.5,3.2,15,4.9,22.6c-7.2,0-14.4,0-21.6,0C923.1,483.6,923.1,475.1,923.1,466.7z M946.3,505.6c-7.7,1.5-15.4,3-23.2,4.5
		c0-4.4,0-8.7,0-13.1c7,0,13.9,0,20.9,0c0.6,0,1.2,0,1.8,0c0.2,1.1,0.5,2.1,0.7,3.2c0.4,1.7,0.7,3.4,1.1,5.2
		C947.2,505.4,946.7,505.5,946.3,505.6z M946,474.2c-0.5-2.5-1.1-5-1.6-7.5c0.4,0,0.8,0,1.2,0c3,0,6.1-0.1,9.1,0c0,0,0.1,0,0.2,0
		c0,0.4,0,1,0,1.1c0,1.6,0,3.2,0.1,4.7c0,6.5-0.1,13-0.3,19.5c-1.6,0-3.2,0-4.9,0C948.5,486.1,947.2,480.2,946,474.2z"/>
	<path class="st0" d="M857.9,522.6c-0.6-2.7-1.2-5.5-1.8-8.2c5.3-0.2,10.6-0.3,15.9-0.5c3.2-0.1,3.2-5.1,0-5
		c-5.6,0.2-11.2,0.3-16.9,0.5c-2.7-14.2-4.4-28.5-5.2-43c-0.1-1.6-1.5-2.9-3.1-2.4c-10.1,2.9-20.4,5.2-30.8,6.9
		c-1.1-0.9-3-0.7-3.7,0.6c-3.9,0.6-7.7,1.1-11.6,1.5c-1.3,0.1-2.5,1-2.5,2.5c0,1.2,1.1,2.6,2.5,2.5c3.8-0.4,7.6-0.9,11.4-1.5
		c0.2,11.4,0.3,22.8,0.5,34.1c-3.8,0.1-7.5,0.2-11.3,0.3c-0.8,0-1.6,0-2.4,0.1c0-2.4,0.1-4.8,0.1-7.2c0-7.5,0-15,0-22.4
		c0-3.2-5-3.2-5,0c0,9.9-0.1,19.9-0.1,29.8c-4.2,0.1-8.4,0.3-12.5,0.4c-3.2,0.1-3.2,5.1,0,5c4.2-0.1,8.4-0.3,12.6-0.4
		c0,2.4,0,4.8,0,7.3c0.1,6,0.7,12.3,4.4,17.3c3.1,4.2,7.5,7,12.5,8.4c11.7,3.5,23.3-1.2,33.5-6.9c2.6-1.5,5.2-2.9,7.7-4.6
		c2.3-1.5,4.5-3.3,5.7-5.8C859.1,529,858.7,525.8,857.9,522.6z M845.2,469.7c0.7,12,2.1,24,4.2,35.9c0.2,1.3,0.5,2.7,0.7,4
		c-10.9,0.3-21.8,0.7-32.7,1c-0.2-11.6-0.3-23.2-0.5-34.8C826.5,474.3,835.9,472.2,845.2,469.7z M852.2,531.2
		c-1.7,1.8-3.9,3-6.1,4.3c-9.1,5.4-19.6,11.5-30.7,9.8c-4.3-0.7-8.6-2.4-11.7-5.5c-3.7-3.7-4.7-8.9-4.9-14c-0.1-3.2-0.1-6.4-0.1-9.6
		c4.6-0.1,9.2-0.3,13.8-0.4c0.1,6.3,0.2,12.5,0.3,18.8c0,3.2,5,3.2,5,0c-0.1-6.3-0.2-12.6-0.3-18.9c11.2-0.3,22.4-0.7,33.6-1
		c0.7,3.4,1.4,6.7,2.2,10.1C853.9,527.1,854,529.3,852.2,531.2z"/>
	<path class="st0" d="M912.7,555.1c-0.6-3.4-1-6.9-1.4-10.3c-0.2-1.5-0.6-3-1.8-4c-1.6-1.4-3.9-1.1-5.9-1
		c-6.9,0.3-13.8,1.1-20.7,1.1c-7.4,0-15-0.8-21.7-4c-2-0.9-4.1,0.6-3.6,2.8c4.1,17.9,8.1,35.8,12.2,53.8c0.6,2.8,4.9,2.1,4.9-0.7
		c-0.1-15.5-0.2-31-0.2-46.5c0-0.4-0.1-0.7-0.2-1c8,0.9,16.1,0.2,24.1-0.3c1.6-0.1,3.2-0.2,4.8-0.3c0.9,0,1.7-0.1,2.6-0.1
		c0.1,0,0.3,0,0.4,0c0,0,0,0,0,0c0,0.2,0,0.3,0.1,0.2c-0.1,0.6,0.2,1.5,0.3,2.2c0.1,0.8,0.2,1.5,0.3,2.3c0.3,1.9,0.5,3.8,0.8,5.7
		c1.1,7.1,2.6,14.1,4.5,21c2.1,7.8,4.8,15.5,7.8,23c0.5,1.2,1.6,2.1,3.1,1.7c1.2-0.3,2.2-1.8,1.7-3.1
		C919.2,584,915.2,569.7,912.7,555.1z M869.5,546.4c0,7.9,0.1,15.9,0.1,23.8c-2-9-4.1-18-6.1-27.1c2.2,0.7,4.3,1.3,6.6,1.7
		C869.7,545.2,869.5,545.7,869.5,546.4z"/>
	<path class="st0" d="M1082.6,586.4c-8.6-3.2-17.3-6.1-26-8.7c-4.4-1.3-8.9-2.6-13.3-3.8c-3.4-0.9-6.9-2-10.4-1.1
		c-3.4,0.9-5.7,4.1-4.2,7.6c0.4,0.9,0.9,1.6,1.5,2.3c0.5,0.5,1.1,1,1.4,1.7c-0.4-0.1-0.7-0.1-0.9-0.2c-8.2-2.4-16.1-5.8-23.5-10.1
		c-1.7-1-3.7-1.9-5.7-1.3c-2.7,0.8-3.2,3.4-2.6,5.8c0.9,3.7,2,7.4,3,11.1c-6.5-1.3-12.9-2.7-19.4-4c-1.9-0.4-3.8-0.8-5.7-1.2
		c-1.9-0.3-3.8-0.5-5.6,0.4c-3.1,1.6-3.6,6.1-0.7,8.1c2.4,1.6,4.7-1.8,3.1-3.7c0.1,0,0.1,0,0.1,0c1.1-0.3,2.5,0.2,3.5,0.4
		c3.1,0.6,6.1,1.3,9.2,1.9c6.1,1.2,12.1,2.5,18.2,3.7c1.8,0.4,3.6-1.1,3.1-3.1c-1.2-4.2-2.3-8.4-3.5-12.7c-0.1-0.5-0.3-0.9-0.4-1.4
		c0-0.1,0-0.2-0.1-0.3c1.3,0.5,2.6,1.5,3.8,2.2c7.1,3.9,14.9,7.2,22.8,9.3c2,0.5,4.3,0.4,5.6-1.5c0.9-1.4,0.9-3.2,0.4-4.7
		c-0.6-1.8-2-2.7-3-4.2c-0.1-0.1-0.2-0.3-0.2-0.4c0,0,0,0,0,0c0,0,0,0,0-0.1c0,0,0,0,0-0.1c0,0,0,0,0,0c0,0,0,0,0-0.1
		c0,0,0.1-0.1,0.1-0.1c0.1,0,0.2-0.1,0.2-0.1c0.4-0.2,0.6-0.3,1.2-0.4c0.3-0.1,1.2-0.1,1.7-0.1c1.5,0.1,3,0.6,4.7,1
		c4.2,1.1,8.3,2.2,12.4,3.4c9.4,2.8,18.7,5.9,27.9,9.2c1.3,0.5,2.7-0.5,3.1-1.7C1084.7,588.1,1083.8,586.9,1082.6,586.4z
		 M1003.6,576.9C1003.6,576.9,1003.6,576.9,1003.6,576.9C1003.4,576.7,1004.2,576.3,1003.6,576.9z M1031.8,585.2
		C1032,585.4,1031.8,585.4,1031.8,585.2L1031.8,585.2z"/>
	<path class="st0" d="M1001.2,506.1c-3.4,8.3-4.2,17.8-4.3,26.7c-0.1,5.3,0.2,10.7,0.4,16c0.1,3.2,5.1,3.2,5,0
		c-0.4-8.6-0.8-17.2,0.1-25.7c0.7-7.4,2.2-16,7.3-21.7c0.8-0.9,1.6-1.6,2.5-2.3c0.6,1.2,1.4,2.2,2.5,2.9c2.9,1.8,6.1,0.7,8.4-1.4
		c1.1-1,2-2.2,3.1-3.2c0.3-0.3,0.6-0.6,0.8-0.8c2.1,6.2,8,10.8,14.7,11.3c3.8,0.3,7.8-0.8,10.9-3.1c1.6-1.2,3.4-2.7,3.6-4.8
		c0.2-2.3-1.4-4.3-2.7-6.1c-2-2.8-4.2-5.4-6.6-7.8c4.9-2.9,7.5-9.8,7.6-15.1c0.1-4-1.5-7.9-4.8-10.2c-3.2-2.2-7.3-2-10.3,0.4
		c-0.8,0.6-1.5,1.4-2.1,2.1c-1.6-3-4.1-5.6-7.2-7.2c-3.5-1.8-7.4-2.5-11.3-2.3c-3.7,0.2-9.1,0.9-9.9,5.4c-0.4,2.5-0.1,5.2,0,7.7
		c0,2.6,0.1,5.2,0.1,7.8c0,1.7,1.6,2.7,3.1,2.4c2.3-0.4,4.9,0.6,6.3,2.5c0.1,0.1,0.1,0.2,0.2,0.3c-1.4,0.2-2.7,0.8-3.8,1.6
		c-3.4,2.5-4,7-3.9,11c0,0.5,0,1.1,0.1,1.6C1006.5,496.6,1003.2,501.1,1001.2,506.1z M1030.7,486.8c-1,0-1.6-0.1-2.4-0.3
		c-0.8-0.2-1.7-0.4-2.5-0.6c0.3-0.3,0.6-0.7,0.7-1.2c0.3-1.3-0.4-2.7-1.7-3.1c0,0,0,0-0.1,0c-0.2-0.2-0.3-0.4-0.5-0.5
		c0-0.1-0.1-0.2-0.1-0.3c0,0.1,0-0.3,0-0.5c0,0,0,0,0,0c0,0,0,0,0,0c0,0,0,0,0,0c0-0.1,0.1-0.2,0.1-0.1c0,0,0-0.1,0-0.1c0,0,0,0,0,0
		c0,0,0,0,0,0c0,0,0,0,0,0c0-0.1,0.1-0.2,0.1-0.1c0,0,0-0.1,0-0.1c0,0.1,0.3-0.3,0.4-0.4c0.1-0.1,0.2-0.1,0.2-0.1
		c0.1-0.1,0.3-0.2,0.4-0.2c0,0,0,0,0.1,0c0.1-0.1,0.3-0.1,0.4-0.1c0.2-0.1,0.4-0.1,0.6-0.1c0,0,0,0,0.1,0c0.3,0,0.7,0,1,0
		c0,0,0.2,0,0.3,0c0.1,0,0.3,0.1,0.3,0.1c0.4,0.1,0.7,0.2,1.1,0.3c0.5,0.2,1.2,0.5,1.8,0.9c0.7,0.4,1.3,0.8,1.9,1.2
		c0.3,0.2,0.5,0.4,0.8,0.5c0.1,0.1,0.2,0.1,0.3,0.2c0,0,0.4,0.3,0.4,0.3c0.2,0.2,0.5,0.4,0.7,0.7c0.1,0.1,0.2,0.2,0.3,0.4
		c0,0,0,0,0.1,0.1c0.2,0.2,0.3,0.5,0.4,0.7c0,0,0,0,0,0.1c0,0,0,0.2,0.1,0.3c0,0.1,0,0.2,0,0.2c0,0,0,0,0,0c0,0.1-0.1,0.2-0.1,0.3
		c-0.1,0.1-0.1,0.2-0.2,0.3c-0.1,0.1-0.5,0.4-0.4,0.4c-0.2,0.1-0.4,0.2-0.6,0.3c-0.1,0.1-0.2,0.1-0.3,0.2c0,0,0,0,0,0
		c-0.6,0.2-1.2,0.3-1.7,0.5c0.1,0-0.6,0.1-0.8,0.1C1031.5,486.8,1031.1,486.8,1030.7,486.8z M1026.5,478.7
		C1026.6,478.7,1026.6,478.7,1026.5,478.7L1026.5,478.7z M1035.5,483.4C1035.5,483.5,1035.5,483.5,1035.5,483.4L1035.5,483.4z
		 M1035.9,484C1035.8,484,1035.8,483.9,1035.9,484L1035.9,484z M1034.4,486.3C1034.7,486.1,1034.5,486.2,1034.4,486.3L1034.4,486.3z
		 M1049,496c0.7,0.9,1.3,1.9,1.9,2.9c0.4,0.7,0.6,0.4-0.1,1.1c-1.3,1.2-3,2-4.7,2.5c-7.1,2-13.9-2.9-15-10c0-0.2-0.1-0.4-0.2-0.6
		c0.9,0,1.9,0,2.8-0.2c2.9-0.4,5.8-2.1,6.9-4.8C1043.7,489.5,1046.6,492.6,1049,496z M1013.9,471.9c0-1.6,0-3.1-0.1-4.7
		c0-1.1,0-2.3,0-3.4c0-0.6,0-1.3,0-1.9c0-0.5-0.2-1.3,0-1.8c0.3-1.1,2.7-1.2,3.7-1.4c1.8-0.2,3.7-0.3,5.5,0c3.4,0.6,6.7,2.1,8.9,4.9
		c1.7,2.2,2.6,4.9,2.4,7.6c-0.1,0.6-0.2,1.2-0.3,1.8c-0.2,1.3,0.3,2.7,1.7,3.1c1.3,0.4,2.7-0.4,3.1-1.7c0.3-1,0.4-2.1,0.5-3.1
		c0.5-2.5,1.3-4.9,3.3-6.4c2.4-1.8,5.2-0.4,6.4,2.1c1.5,3.1,0.5,7.3-0.9,10.2c-1.1,2.4-3,5.1-5.9,5.1c-0.6,0-1.1,0.2-1.5,0.6
		c-0.9-3.4-4.5-5.8-7.5-7.4c-3.6-1.9-8.2-2.7-11.6,0C1019.5,473.4,1016.8,472.2,1013.9,471.9z M1016.1,488.5c0.3-1.5,0.9-3,2.3-3.7
		c0.9-0.4,1.6-0.5,2.2-0.1c0,0.1,0.1,0.1,0.1,0.2c-0.4,0.2-0.7,0.5-0.9,0.9c-0.6,1.1-0.3,2.8,0.9,3.4c1.8,0.9,3.7,1.6,5.6,2.1
		c-2,0.9-3.6,2.5-5.1,4.2c-0.9,0.9-1.7,1.8-2.5,2.3c-0.1,0-0.2,0.1-0.2,0.1c-0.1,0-0.2,0.1-0.3,0.1c-0.1,0-0.1,0-0.1,0
		c0,0-0.1,0-0.1,0c-0.1,0-0.1,0-0.2,0c-0.1,0-0.3-0.1-0.4-0.1c0,0-0.3-0.2-0.4-0.3c-0.2-0.2-0.4-0.5-0.5-0.8
		c0.9-0.3,1.9-0.5,2.9-0.5c3.2-0.2,3.2-5.1,0-5c-1.3,0.1-2.4,0.3-3.6,0.6C1015.9,490.7,1015.9,489.6,1016.1,488.5z"/>
	<path class="st0" d="M1024.2,480.1C1024.2,480.1,1024.2,480.1,1024.2,480.1c0.1-0.1,0.1-0.1,0.1-0.1
		C1024.2,480,1024.2,480,1024.2,480.1z"/>
	<path class="st0" d="M1024.1,480.4C1024.1,480.4,1024.1,480.4,1024.1,480.4c0-0.1,0.1-0.1,0.1-0.2
		C1024.1,480.3,1024.1,480.3,1024.1,480.4z"/>
	<path class="st0" d="M842.3,70.2c3.3-3.7,5.7-8.2,6.4-13c0.2-1.3-0.3-2.7-1.7-3.1c-1.2-0.3-2.8,0.4-3.1,1.7
		c-1.1,6.9-5.6,12.8-11.8,16c-6.6,3.5-15.4,4-22.4,1.4c-2.9-1.1-6.4-4.3-4.1-7.5c0.8-1.1,0.2-2.8-0.9-3.4c-1.2-0.7-2.6-0.2-3.4,0.9
		c-2.7,3.8-1.2,9.3,2.2,12.1c3.7,3.1,8.7,4,13.3,4.3C826.2,80.3,836,77.2,842.3,70.2z"/>
	<path class="st0" d="M735.2,125c7.5-2,15.1-3.2,22.8-3.8c-0.2,0.7-0.3,1.5-0.1,2.3c0.4,2.1,2.1,3.5,3.6,4.9c2.5,2.6,4.3,5.8,5.7,9
		c3.1,7,4.6,14.6,8,21.4c2,3.8,6.6,7.8,10.9,4.7c2-1.4,3.2-3.8,4.1-5.9c1.1-2.3,1.8-4.8,2.2-7.3c0.1-0.9-0.1-1.9-0.7-2.5
		c1-0.4,1.7-1.4,1.3-2.8c-1.2-3.9-2.5-7.8-4-11.6c10.4-13.2,23.4-24.3,37.9-32.6c1-0.6,1.3-1.5,1.2-2.4c2.7-0.8,5.3-1.9,7.8-3.1
		c0.2,0.3,0.4,0.5,0.7,0.7c7.2,16.3,14.9,32.4,23.3,48.1c-4.5-1.4-9.2-2.4-13.9-2.9c-1.3-0.1-2.5,1.2-2.5,2.5c0,1.5,1.1,2.3,2.5,2.5
		c5,0.5,9.8,1.7,14.5,3.3c-9.6,10.3-18.9,21-27.6,32.1c-2.8,3.6-5.6,7.2-8.3,10.8c-0.8,1.1-0.2,2.8,0.9,3.4c1.3,0.7,2.6,0.2,3.4-0.9
		c11.4-15.2,23.7-29.7,36.7-43.6c5.3,2.1,10.5,4.5,15.6,7c11.7,5.7,23.1,11.8,34.3,18.3c6.3,3.6,12.5,7.4,18.7,11.3
		c2.7,1.7,5.2-2.6,2.5-4.3c-11.2-7.1-22.7-13.8-34.5-20.1c-11-5.9-22.3-11.8-33.9-16.5c0-1-0.4-1.9-1.1-2.6
		c-0.6-0.5-1.2-0.7-1.9-0.7c-0.1-0.1-0.1-0.3-0.2-0.4c-0.5-1-1.1-2-1.6-3c-1-2-2.1-4-3.1-6c-2-3.9-3.9-7.7-5.9-11.6
		c-3.9-7.8-7.6-15.8-11.2-23.7c-0.4-1-0.9-1.9-1.3-2.9c18.8-0.8,37.9-1.3,56.4,2.4c5.6,1.1,11.1,2.7,16.5,4.6
		c1.3,0.5,2.7-0.5,3.1-1.7c0.4-1.4-0.5-2.6-1.7-3.1c-19.4-7.1-40.4-8.1-60.9-7.7c-4.2,0.1-8.3,0.2-12.5,0.4c1.6-1.1,3.2-2.4,4.7-3.7
		C861.9,75,869.4,53.8,862,35.6c-3.6-8.7-10.6-16-19.6-19.1c-10.7-3.8-21.8,0-31.7,4.3c-4.7,2.1-9.6,4.2-13.8,7.3
		c-4.1,2.9-7.4,6.7-9.7,11.3c-4.9,9.7-5,20.8-3.8,31.4c0.3,3,0.8,5.9,1.2,8.9c0.1,0.9,0.9,1.5,1.8,1.7c1.9,5.7,5,10.8,9.9,14.4
		c6.1,4.5,14.1,5.5,21.7,4.8c-8.4,5.4-16.2,11.8-23.2,18.9c-6.5-13.8-12.9-27.7-19.1-41.7c-6.1-13.8-12.5-27.6-17.4-41.8
		c-1.9-5.5-3.6-11.2-4.7-16.9c-0.1-2.5-0.5-5-1.2-7.4c-0.3-1.2-1.5-2-2.7-1.8c-1.1,0.2-2.3,1.2-2.2,2.4c0,0.2,0.1,0.4,0.1,0.7
		c0,0,0,0,0,0c0,0,0,0,0,0c0.3,2.1,0.6,4.3,1,6.4c0.3,4.9-0.3,9.8-0.9,14.7c-0.8,7.6-1.6,15.1-2.5,22.7c-1.7,14.7-3.5,29.5-5.9,44.2
		c-1.2,7.2-3,14.4-7,20.6C731.2,123.3,733.2,125.6,735.2,125z M805.2,94.6c-8.4-2.4-13.2-10-15-18.1c-2-8.7-0.8-18.3,3-26.5
		c1-2.1,2.1-4.1,3.4-6c1.8-2.7-2.5-5.1-4.3-2.5c-0.8,1.3-1.6,2.6-2.3,3.9c1.1-3.2,2.7-6.3,4.9-8.9c3-3.6,7-6,11.2-8.1
		c8.7-4.4,18.5-9.1,28.5-8.5c8.2,0.5,15.7,5.5,20.1,12.3c9.7,14.8,5.1,35-6.2,47.5c-2.9,3.2-6.2,6.1-9.9,8.4
		c-0.4-0.9-0.8-1.8-1.2-2.8c-0.5-1.2-2.3-1.5-3.4-0.9c-1.3,0.7-1.4,2.2-0.9,3.4c0.4,0.9,0.8,1.8,1.2,2.8c-1.5,0.8-3.1,1.5-4.7,2.1
		C822,95.6,813.1,96.9,805.2,94.6z M787.6,149c-0.5,3.4-1.6,7.1-3.8,9.9c-0.7,0.9-1.3,1.1-2.2,0.4c-1.2-0.9-1.9-2.3-2.5-3.5
		c-2.7-5.9-4.2-12.2-6.6-18.2c-1.2-3-2.6-5.9-4.4-8.6c-1-1.4-2-2.8-3.2-4c-0.5-0.6-1.1-1.1-1.6-1.6c-0.2-0.2-0.5-0.4-0.5-0.7
		c0,0,0-0.1,0-0.1c0.2-0.6,2.2-1.3,3.1-1.6c2.6,0,5.3,0,7.9,0.2c1.6,0.5,3.3,0.9,5,1.3c1.7,3.4,3.2,6.8,4.6,10.2
		c-0.2,0.2-0.4,0.5-0.5,0.7c-0.8,1.1-0.2,2.8,0.9,3.4c0.5,0.3,0.9,0.4,1.4,0.3c1.1,3,2.2,6.1,3.1,9.2c0.1,0.5,0.4,0.8,0.7,1.1
		C788.2,147.8,787.7,148.3,787.6,149z M786.9,128.3c-0.7-1.6-1.4-3.2-2.2-4.8c2,0.2,4,0.3,6,0.3
		C789.4,125.2,788.1,126.7,786.9,128.3z M743.7,104.9c1.4-7.3,2.2-14.6,3.2-22c2.1-15.5,4-31,5.6-46.5c0.1-0.6,0.1-1.2,0.2-1.7
		c2.3,7.1,5.1,14.1,8.1,21.1c6.1,14.4,12.4,28.6,18.9,42.8c3.1,6.8,6.2,13.5,9.4,20.2c-2.3-0.1-4.7-0.3-7-0.7
		c-0.8-1.6-1.6-3.3-2.7-4.7c-1.7-2.3-4.1-1.6-6.4-0.7c-1.3,0.5-2.5,1-3.8,1.6c-4-1.8-7.8-4-11.3-6.8c-1-0.8-2.5-1-3.5,0
		c-0.9,0.9-1.1,2.7,0,3.5c2.4,1.9,4.9,3.6,7.6,5.1c-7.6,0.3-15.2,1.2-22.6,2.8C741.4,114.5,742.7,109.7,743.7,104.9z"/>
	<path class="st0" d="M1104.3,250.1c-13.8-0.3-27.6-0.3-41.4-0.3c-0.1-0.2-0.1-0.4-0.2-0.7c-2.2-6.4-5.8-12.5-10.9-17
		c-5.5-4.8-12.4-7.4-19.6-8.6c-12.3-2.1-24.9-0.8-36.7,3.3c-11.5,4.1-22.1,10.7-30.8,19.3c-6.7,6.7-12.2,14.6-16,23.3
		c-16.4,3.9-31.6,12.8-43,25.4c-3.9,4.4-7.4,9.1-10.3,14.2c-1.6,2.8,2.7,5.3,4.3,2.5c9.6-16.8,25.5-29.6,43.8-35.6
		c1-0.3,2-0.6,3-0.9c-0.3,0.9-0.6,1.8-0.9,2.8c-3.9,13.6-2.9,29.9,8.5,39.7c2.2,1.9,4.6,3.3,7.3,4.4c0.4,1.5,0.8,3,1.5,4.4
		c1.4,3,3.8,5.5,6.6,7.2c5.5,3.4,12.2,4.1,18.5,4.9c0,0,0,0,0,0c0,2.4,0,4.8,0,7.2c0,5.6,0,11.3,0,16.9c0,3.2,5,3.2,5,0
		c0-7.8,0-15.7,0-23.5c5,0.5,10,0.9,15,0.9c13.2,0,26.8-2.7,37.1-11.6c3.3-2.8,6-6.1,8.2-9.7c13,4.2,26.1,8.3,39.1,12.5
		c3,1,4.4-3.8,1.3-4.8c-12.7-4-25.3-8.1-38-12.1c3.2-6.3,5.2-13.3,6.6-20.1c1.5-7.3,2.5-14.9,2.9-22.3c0.3-5.7,0-11.5-1.2-17.2
		c6.8,0,13.6,0,20.5,0c6.6,0.1,13.1,0.1,19.7,0.3C1107.4,255.2,1107.4,250.2,1104.3,250.1z M1059.2,284.2
		c-1.4,9.8-3.5,19.8-8.1,28.6c-5.9-1.9-11.7-3.7-17.6-5.6c-3-1-4.4,3.8-1.3,4.8c5.4,1.7,10.9,3.5,16.3,5.2c-0.3,0.4-0.5,0.8-0.8,1.2
		c-7.1,9.9-18.3,14.9-30.2,16.2c-6.3,0.7-12.6,0.6-19,0.1c-1.8-0.1-3.6-0.3-5.5-0.5c0-10.4,0-20.8,0-31.2c0-5.6,0-11.3,0-16.9
		c0-3.2-5-3.2-5,0c0,15.8,0,31.7,0,47.5c-2.6-0.3-5.1-0.7-7.7-1.3c-5.4-1.2-11-3.4-13.3-8.9c-1.2-2.9-1.5-6.1-1.7-9.1
		c-0.2-3.8-0.3-7.7-0.2-11.5c0.1-3.9,0.3-7.7,0.7-11.5c0.1-1.3-1.2-2.5-2.5-2.5c-1.5,0-2.3,1.1-2.5,2.5c-0.8,8.2-1.1,16.5-0.5,24.7
		c0,0,0,0,0,0.1c-3.8-2.2-6.8-5.7-8.9-9.6c-3.1-5.9-3.7-12.7-3-19.2c0.5-4.6,1.7-9.2,3.5-13.6c2.4-0.5,4.8-0.9,7.2-1.1
		c1.3-0.1,2.5-1,2.5-2.5c0-1.2-1.1-2.6-2.5-2.5c-1.6,0.2-3.2,0.4-4.8,0.6c2.4-4.8,5.4-9.3,8.8-13.4c14.3-17.2,36.5-28.1,59-27.4
		c6.2,0.2,12.7,1.1,18.4,3.6c5.8,2.5,10.4,6.7,13.6,12.1c1.3,2.1,2.3,4.3,3.1,6.6c-7.6,0-15.2,0.1-22.7,0.3
		c-6.6,0.1-13.1,0.3-19.6,0.5c-3.2,0.1-3.2,5.1,0,5c14.6-0.4,29.2-0.6,43.9-0.7C1061.3,264.3,1060.5,274.6,1059.2,284.2z"/>
	<path class="st0" d="M910.4,207.2c-5-3.5-9.9-7-14.9-10.6c-1.1-0.8-2.8-0.2-3.4,0.9c-0.7,1.3-0.2,2.6,0.9,3.4
		c17.2,12.6,34.9,24.6,52.9,36c5.1,3.3,10.3,6.5,15.5,9.7c2.7,1.7,5.2-2.6,2.5-4.3C945.7,231.2,927.9,219.5,910.4,207.2z"/>
	<path class="st0" d="M763.6,564.9c-7.3-3.1-14.3-6.7-21-10.9c-1.7-1-3.3-2.1-5-3.2c-1.6-1.1-3.5-2.9-5.6-2.4
		c-4.2,1.1-2.6,6.8-1.9,9.7c0.7,3.3,1.8,6.5,3.1,9.7c-0.8-0.4-1.7-0.8-2.5-1.2c-2.5-1.1-5-2.3-7.5-3.4c-5-2.3-10-4.5-15-6.8
		c-1.8-0.8-3.5,0.2-3.7,2.1c-0.4,3.5,0.1,7,1.5,10.2c-1.1-0.3-2.3-0.7-3.4-1c-4.4-1.3-8.9-2.6-13.3-3.8c-3.4-0.9-6.9-2-10.4-1.1
		c-3.4,0.9-5.7,4.1-4.2,7.6c0.4,0.9,0.9,1.6,1.5,2.3c0.5,0.5,1.1,1,1.4,1.7c-0.4-0.1-0.7-0.1-0.9-0.2c-8.2-2.4-16.1-5.8-23.5-10.1
		c-1.7-1-3.7-1.9-5.7-1.3c-2.7,0.8-3.2,3.4-2.6,5.8c0.9,3.7,2,7.4,3,11.1c-6.5-1.3-12.9-2.7-19.4-4c-1.9-0.4-3.8-0.8-5.7-1.2
		c-1.9-0.3-3.8-0.5-5.6,0.4c-3.1,1.6-3.6,6.1-0.7,8.1c2.4,1.6,4.7-1.8,3.1-3.7c0.1,0,0.1,0,0.1,0c1.1-0.3,2.5,0.2,3.5,0.4
		c3.1,0.6,6.1,1.3,9.2,1.9c6.1,1.2,12.1,2.5,18.2,3.7c1.8,0.4,3.6-1.1,3.1-3.1c-1.2-4.2-2.3-8.4-3.5-12.7c-0.1-0.5-0.3-0.9-0.4-1.4
		c0-0.1,0-0.2-0.1-0.3c1.3,0.5,2.6,1.5,3.8,2.2c7.1,3.9,14.9,7.2,22.8,9.3c2,0.5,4.3,0.4,5.6-1.5c0.9-1.4,0.9-3.2,0.4-4.7
		c-0.6-1.8-2-2.7-3-4.2c-0.1-0.1-0.2-0.3-0.2-0.4c0,0,0,0,0,0c0,0,0,0,0-0.1c0,0,0,0,0-0.1c0,0,0,0,0,0c0,0,0,0,0-0.1
		c0,0,0.1-0.1,0.1-0.1c0.1,0,0.2-0.1,0.2-0.1c0.4-0.2,0.6-0.3,1.2-0.4c0.3-0.1,1.2-0.1,1.7-0.1c1.5,0.1,3,0.6,4.7,1
		c4.2,1.1,8.3,2.2,12.4,3.4c9.4,2.8,18.7,5.9,27.9,9.2c1.3,0.5,2.7-0.5,3.1-1.7c0.4-1.4-0.5-2.6-1.7-3.1c-5.3-2-10.6-3.8-16-5.5
		c-0.1-0.2-0.1-0.5-0.3-0.7c-1.6-2.4-2.6-5-2.9-7.7c4.6,2.1,9.3,4.2,13.9,6.4c3,1.3,5.9,2.7,8.9,4c2.2,1,5.3,1.2,6.6-1.3
		c0.9-1.6-0.1-3.1-0.8-4.6c-0.6-1.3-1.1-2.7-1.6-4.1c-0.9-2.7-1.6-5.4-2.1-8.2c0.1,0,0.1,0.1,0.2,0.1c0.7,0.5,1.4,0.9,2.1,1.4
		c2.5,1.6,5,3.2,7.6,4.6c5.8,3.4,11.9,6.3,18.1,8.9c1.2,0.5,2.7-0.6,3.1-1.7C765.7,566.5,764.9,565.4,763.6,564.9z M649.6,566.9
		C649.6,566.9,649.6,566.9,649.6,566.9C649.4,566.7,650.2,566.3,649.6,566.9z M677.8,575.2C678,575.4,677.8,575.4,677.8,575.2
		L677.8,575.2z"/>
	<path class="st0" d="M833.3,262.7c5.8-1.4,11.2-6.2,12.6-12.1c1.6-7-2.4-13.4-7-18.3c-4.5-4.8-10.9-9.4-17.9-8.4
		c-3,0.4-5.7,2-7.6,4.2c-3-1.9-7-2.7-10.2-3.3c-4.5-0.8-9.2-1.2-13.8-0.6c-4.1,0.5-8.1,2.3-8.9,6.8c-0.6,3.1,0.5,6.4,0.3,9.5
		c-8-1.8-16.6-2.2-24,1.8c-6.9,3.8-11.4,11.1-9.9,19.1c0.7,3.6,2.7,7,5.7,9.1c0,0.5,0.1,1,0.1,1.4c0.1,1.4,1,2.4,2.5,2.5
		c6,0.4,12.3,0.8,18-1.4c2-0.8,3.9-1.9,5.5-3.2c0.4,0.9,0.9,1.8,1.6,2.6c2.9,3.7,7.9,4.9,12.2,5.9c5.1,1.2,10.5,2.3,15.7,1.1
		c4.2-1,8.3-3.6,10.1-7.6c1.6-3.4,1.4-7,0.6-10.4C823.5,263.1,828.5,263.9,833.3,262.7z M815.7,253.7c-0.9-0.6-2.3-0.3-3,0.4
		c-0.8,0.8-0.8,2-0.4,3c1.4,3.3,3.1,7.3,2.1,11c-0.8,3-3.4,5-6.2,5.9c-3.8,1.2-7.8,0.7-11.5-0.1c-3.5-0.7-7.4-1.3-10.5-3.2
		c-1.7-1-3.7-3.4-3.4-5.6c0.5-0.8,0.9-1.7,1.3-2.6c0.9-2.3-2.6-4.3-4.1-2.4c-0.7,0.9-1.2,1.8-1.5,2.8c-1.7,2.6-4.5,4.5-7.4,5.4
		c-4.3,1.4-8.9,1.3-13.4,1c0-0.1,0-0.3,0-0.4c0.1-0.8-0.2-1.6-1-2.1c-0.1-0.1-0.3-0.2-0.4-0.3c-4.4-2.7-5.7-9-3.4-13.5
		c2.9-5.9,9.5-8.9,15.8-9.2c4.6-0.2,9.1,0.6,13.6,1.8c1.4,0.4,2.6-0.5,3.1-1.7c1.3-3.7,0-7.4,0.2-11.2c0.1-1.5,0.6-2.7,2.1-3.3
		c1.7-0.7,3.8-0.7,5.6-0.7c4.7-0.1,9.4,0.5,13.9,1.9c1.4,0.4,3,0.8,4.2,1.7c-0.6,2.1-0.6,4.4,0.4,6.7c0.5,1.1,2.4,1.6,3.4,0.9
		c2.7-2,3.3-5.4,2-8.2c1.4-1.6,3.5-2.9,5.3-3c5.2-0.5,9.8,3.3,13.2,6.8c3.3,3.4,6.8,8.1,6.1,13.1c-0.6,4.4-4.5,7.9-8.6,9.1
		C826.8,259.5,820.5,257.1,815.7,253.7z"/>
	<path class="st0" d="M957.2,85.9c-4.8,5.4-7,12.4-5.9,19.5c1.1,6.8,5.3,12.8,10.8,16.8c5.5,4.1,12.4,5.9,19.2,4.9
		c4.7-0.7,9.2-2.9,12.4-6.2c1.8,6.1,6.5,11.4,11.6,15.1c7.3,5.3,16.3,8.2,25.2,9c8.9,0.7,18.1-1,26.1-4.9
		c7.6-3.7,14.1-9.6,18.9-16.6c5.5-7.9,8.6-17.3,9-26.9c0.1-3.2-4.8-3.2-5,0c-0.5,15.1-9.2,29.6-22.1,37.4c-13.8,8.3-32.1,8.2-46,0.1
		c-7.3-4.2-14.5-11.6-13.4-20.7c0.2-1.2-1.1-2.3-2.2-2.4c-1.3-0.1-2.3,0.6-2.7,1.8c-1.6,5-6.4,8.1-11.3,9.3
		c-5.3,1.3-10.8,0.1-15.4-2.7c-4.7-2.9-8.4-7.6-9.9-13c-1.5-5.4-0.3-10.9,3-15.4c2.4-3.3,5.7-5.9,9.6-7.1c2.4,0.5,4.9,0.2,7.4-1.1
		c2.3-1.2,1.1-4.5-1.3-4.6c-2.2-0.1-4.3,0.1-6.4,0.6c-2.4-0.9-4.6-3-6-5.2c-3.2-5.3-1.7-11.5,0.2-17c1.2-3.4,2.6-6.6,3.8-10
		c0.9-2.5,1.6-5.1,2.6-7.6c0.9-2.1,2.2-4.2,4.3-5.4c2.7-1.5,6.6-0.8,9.6-0.8c8.7,0.2,17.5,0.3,26.2,0.5c3.2,0.1,3.2-4.9,0-5
		c-8.6-0.2-17.2-0.3-25.7-0.5c-4-0.1-8.3-0.6-12,1.1c-2.8,1.3-4.8,3.8-6.2,6.5c-1.4,2.8-2.3,5.9-3.3,8.9c-1.2,3.7-2.8,7.2-4,10.8
		c-2.3,6.8-3.6,14.4,0.3,20.8c1.2,1.9,2.7,3.7,4.5,5.1C960.9,82.3,958.9,84,957.2,85.9z"/>
	<path class="st0" d="M103.4,45c1.5,0,2.7-1.2,2.7-2.7c0-1.5-1.2-2.7-2.7-2.7c-1.5,0-2.7,1.2-2.7,2.7C100.8,43.8,102,45,103.4,45z"
		/>
	<circle class="st0" cx="131.3" cy="22.9" r="2.7"/>
	<path class="st0" d="M453.4,37.4c1.5,0,2.7-1.2,2.7-2.7c0-1.5-1.2-2.7-2.7-2.7s-2.7,1.2-2.7,2.7C450.7,36.2,451.9,37.4,453.4,37.4z
		"/>
	<path class="st0" d="M481.2,47.9c1.5,0,2.7-1.2,2.7-2.7c0-1.5-1.2-2.7-2.7-2.7c-1.5,0-2.7,1.2-2.7,2.7
		C478.5,46.7,479.7,47.9,481.2,47.9z"/>
	<circle class="st0" cx="823.3" cy="59.9" r="2.7"/>
	<path class="st0" d="M851.1,43.1c1.5,0,2.7-1.2,2.7-2.7c0-1.5-1.2-2.7-2.7-2.7c-1.5,0-2.7,1.2-2.7,2.7
		C848.4,41.9,849.6,43.1,851.1,43.1z"/>
</g>
<!-- Code injected by live-server -->
<script type="text/javascript">
	// <![CDATA[  <-- For SVG support
	if ('WebSocket' in window) {
		(function () {
			function refreshCSS() {
				var sheets = [].slice.call(document.getElementsByTagName("link"));
				var head = document.getElementsByTagName("head")[0];
				for (var i = 0; i < sheets.length; ++i) {
					var elem = sheets[i];
					var parent = elem.parentElement || head;
					parent.removeChild(elem);
					var rel = elem.rel;
					if (elem.href && typeof rel != "string" || rel.length == 0 || rel.toLowerCase() == "stylesheet") {
						var url = elem.href.replace(/(&|\?)_cacheOverride=\d+/, '');
						elem.href = url + (url.indexOf('?') >= 0 ? '&' : '?') + '_cacheOverride=' + (new Date().valueOf());
					}
					parent.appendChild(elem);
				}
			}
			var protocol = window.location.protocol === 'http:' ? 'ws://' : 'wss://';
			var address = protocol + window.location.host + window.location.pathname + '/ws';
			var socket = new WebSocket(address);
			socket.onmessage = function (msg) {
				if (msg.data == 'reload') window.location.reload();
				else if (msg.data == 'refreshcss') refreshCSS();
			};
			if (sessionStorage && !sessionStorage.getItem('IsThisFirstTime_Log_From_LiveServer')) {
				console.log('Live reload enabled.');
				sessionStorage.setItem('IsThisFirstTime_Log_From_LiveServer', true);
			}
		})();
	}
	else {
		console.error('Upgrade your browser. This Browser is NOT supported WebSocket for Live-Reloading.');
	}
	// ]]>
</script></svg>
