<?xml version="1.0" encoding="utf-8"?>
<!-- Generator: Adobe Illustrator 24.3.0, SVG Export Plug-In . SVG Version: 6.00 Build 0)  -->
<svg version="1.1" id="Calque_1" xmlns="http://www.w3.org/2000/svg" xmlns:xlink="http://www.w3.org/1999/xlink" x="0px" y="0px"
	 viewBox="0 0 223.8 180.8" style="enable-background:new 0 0 223.8 180.8;" xml:space="preserve">
<style type="text/css">
	.st0{fill:#808080;}
</style>
<path class="st0" d="M51.1,74v35.1h32.2c9.8,0,17.3-9,17.4-9.1l0.8-0.9l2.9,2.9l-0.8,0.8c-6.4,6.2-8.9,11.7-8.9,19.8v28.7h35.1
	v-28.1c-0.4-0.6-0.5-1.5-0.5-2.1c0-7.6-2-11.9-8.6-18.2l-0.8-0.8l2.9-2.9l0.8,0.9c0.1,0.1,7.8,8.7,17.6,8.7h1.9l-0.2,0.4h30V74
	h-29.9l0,0h-1.7c-9.8,0-17.6,8.6-17.6,8.7l-0.8,0.9l-2.9-2.9l0.8-0.8c6.6-6.3,8.6-10.6,8.6-18.2c0-0.6,0.1-1.5,0.5-2.1v-30H94.6
	v30.2c0.2,0.5,0.3,1.1,0.3,1.8c0,7.6,2,11.9,8.6,18.2l0.8,0.8l-2.9,2.9l-0.8-0.9c-0.1-0.1-7.8-8.7-17.6-8.7H51.1z"/>
</svg>
