<?xml version="1.0" encoding="utf-8"?>
<!-- Generator: Adobe Illustrator 24.3.0, SVG Export Plug-In . SVG Version: 6.00 Build 0)  -->
<svg version="1.1" id="Calque_1" xmlns="http://www.w3.org/2000/svg" xmlns:xlink="http://www.w3.org/1999/xlink" x="0px" y="0px"
	 viewBox="0 0 269.7 142" style="enable-background:new 0 0 269.7 142;" xml:space="preserve">
<style type="text/css">
	.st0{fill:#808080;}
	.st1{fill-rule:evenodd;clip-rule:evenodd;fill:#808080;}
</style>
<path class="st0" d="M71.9,64c-2.8,0.9-3.6,2.9-4,5.4c-0.3,2.4-0.1,4.8,0.7,7.1v1.9c-0.1,1-0.1,2,0.1,3.1c0.3,1.4,0.9,2.8,1.3,4.2
	c0.4,1.6,1.5,2.9,2.4,4.2l2.9,4.7l1.4,2.5c0.4,0.9,0.7,1.9,0.9,2.9c0.3,1.4,0.9,2.8,1.7,4c0.6,1.2,1.1,2.4,1.5,3.7
	c0.8,1.8,1,3.8,2.7,5.1c0.6,0.4,1,1,1.3,1.6c0.9,1.6,0.6,4-1.3,5c-1.5,0.8-2.9,1.7-4.6,1.5c-2.2-0.1-4.2-1.4-5.2-3.4l-0.2-0.5
	c0.1-1.3-0.1-2.5-0.7-3.6l-1-2.5l-5.5-9.4l-2.9-4.7L60.3,92l-1.5-1.8l-5.5,2.2c-0.3,0.3-0.7,0.3-1.1,0.3c-2.3-0.4-4.6-0.7-6.9-1.3
	l-2.6-1.3c-2-0.8-3.9-1.7-5.7-2.7c-1.5-1.1-2.8-2.4-4-3.9L29.9,80c-1.1-1.1-1.5-2.3-2.9-3c-0.4-0.2-0.5-0.8-0.8-1.2l-1.8-2.3
	l-0.5-0.6L22,69.5c-0.6-1.2-1.2-2.4-2-3.5c-0.9-1-1.4-2.4-1.3-3.7l-0.1-0.6c-0.2-1.1-0.3-2.2-0.2-3.3l-0.3-3.9l0.1-1.6l0.1-1.9
	l0.3-1c0.3-0.7,0.5-1.4,0.5-2.2c-0.1-1,0.1-2.1,0.7-2.9l3.4-5.3c0.4-0.5,0.8-1,1.4-1.3c1-0.5,1.8-1.3,2.4-2.2c0.8-1.2,2-2,3.4-2.3
	l0.6-0.2c1.5-0.4,2.5-1.7,2.5-3.2c0.3-1.8,0.9-3.5,2-5c0.2-0.5,0.6-0.9,1-1.2c0.9-0.5,1.4-1.4,1.6-2.4l2.3-1.6l0.6-0.3l2.8-0.6
	l4.3-0.9l4.6-1.2l4-0.7l1.9-0.5l5.2-2.3c2.2-1,5.9,0,7,2.1c0.5,0.9,0.6,2,0.4,3c-0.2,1.2-0.8,2.4-1.6,3.3c-0.9,0.8-1.5,1.8-1.8,3
	c-0.1,0.8-0.5,1.6-1.2,2.1c-0.5,0.5-0.8,1.1-0.8,1.7l-0.7,3.7l-0.8,6.7v5l0.5-1.2c1-2.3,1.6-4.9,3.5-6.8l1.1-1.8
	c1.7-2.2,3.7-4.1,6-5.7l2.6-1.7l0.6-0.6c0.6-1.3,1.9-2.3,3.3-2.7c1-0.4,1.9-0.8,2.7-1.4c1.6-1,3.3-1.6,4.9-2.5
	c1.2-0.7,2.6-1.3,4-1.6l5.3-0.9l3.5-0.8c1.2-0.2,2.1-0.2,3.2-0.2l1.1-0.1l3.1-0.3c1.6,0,3.3,0.2,4.8-0.6c0.8-0.4,1.9-0.2,2.7-0.5
	c2.3-0.7,4.6-1.1,7-1.3c1.3-0.3,2.5-0.8,3.7-1.4l1.4-0.5c2.9-0.4,5.8-1.2,8.7-1c2.6,0.1,5.3,0.4,7.3,2.5l2.4,2.1
	c2.1,1.8,2.1,4.3,2.3,6.7l-0.6,2.7c0.4,0.8,1.3,0.7,1.9,0.6c2-0.3,4.1,0.4,5.5,1.8c1,0.8,2.1,1.4,3.3,1.7l2.8-2.4l1.4-0.7
	c1.2-0.4,2.4-0.8,3.7-1c1.8-0.3,3.6-0.3,5.4-0.4c0.8-0.2,1.6-0.2,2.4,0c1.3,0.5,2.8,0.7,4.2,0.7c0.7,1,1.7,1.7,2.8,2
	c1.7,0.8,3.3,1.8,4.8,2.9c0.6,0.6,1.1,1.2,1.4,2c0.6,1,0.6,1,1.6,0.5l3.6-2.2l1.9-0.9l-2.7-5.4l-0.3-0.6c-0.3-2-1.6-3.3-2.6-4.9
	l-1.1-2c-0.1-0.4-0.2-1,0-1.2c0.5-0.6,0.8-1.4,0.8-2.2c0.2-1.3,1.1-2.5,2.4-3c2.3-1.2,5-1.1,7.1,0.5c1.3,1,2.3,2.4,2.7,4
	c0.3,1.2,0.9,2.3,1.7,3.3c0.8,0.8,1.2,1.9,1,3l0.1,0.3l1.6,4l3.2,0.2c1-0.1,1.9-0.4,2.8-0.7l0.8-0.2c1.4,0.7,2.5-0.1,3.7-0.5
	c1-0.4,2-0.6,3-0.8c1.4-0.3,2.6,0.4,3.9,0.8c1.6,0.5,2.8,1.7,3.3,3.3c0.4,0.9,1,1.6,1.8,2.2c2,1.7,3.9,3.5,5.7,5.5
	c1.3,1.3,2.8,2.4,4.4,3.2l5.7,3.4l1.4,0.4c2.4,0.3,5,3.4,5,5.8c-0.1,1.4-1.3,2.5-2.8,2.6c-1.6,0.2-3-0.4-4.6,0
	c-1.2,0.2-2.4-0.2-3.2-1.2l-1.4-1.7l-1-1.1c-1.4-1.1-2.6-2.4-4.4-3.1c-0.9-0.4-1.6-1.1-2.2-1.9c-0.7-1-1.8-0.6-2.7-0.9
	c-0.4-0.2-0.8,0.4-0.8,1l-0.4,3.2c-0.1,1.4-0.3,2.7-0.3,4.1c-0.1,1-0.3,1.9-0.6,2.8c-0.3,1.6-0.4,3.3-0.3,5l-0.1,1
	c-0.3,1.1-0.6,2.2-0.7,3.3l-0.5,7.3l-0.4,2.1c-0.3,1.7-0.3,3.4,0,5.1c0.1,0.7,0.1,1.3-0.1,2c-0.6,2.4-0.7,4.9-0.3,7.3
	c0.4,2.2,0.4,4.4,0.6,6.6c0.2,1,0.5,2.1,1,3c0.6,1.4,1.6,2.7,1.9,4.1c0.2,1.1,0.7,2.6-0.5,3.7s-1.3,1.3-3.4,1
	c-1.3,0.7-2.2-0.4-3.3-0.8c-0.8-0.3-1-0.9-1.3-1.5c-0.8-1.6-1.9-3.1-1.5-5c0.1-0.3-0.1-0.6-0.2-1l-1.3-7.2c-0.7,0.5-1.5,0.9-2.2,1.2
	c-1.6,0.5-3.3,0.5-4.9,0.1c-1.3-0.4-2.7-0.6-4-0.9c-0.8-0.1-1.6-0.4-2.2-0.9c-0.6-0.3-1.2-0.6-1.8-0.6c-1.9-0.4-3.8-0.7-5.6,0.2
	l-0.5,0.1c-1.7,0.1-3.4,0.2-5,0.5c-1.4,0.2-2.9,0.6-4.3,1l-1.9,0.3c-2,0.1-4,0.1-6,0.4c-1.1,0.1-2.1,0.6-2.7,1.6l-4,5.5
	c-0.5,1-1.1,1.9-1.9,2.8c-0.4,0.3-0.4,1.2-0.6,1.9c-1.4,0.1-1.7,1.6-2.3,2.6c-1.2,1.9-2.8,3.6-4.6,5l-2.5,1.4l-0.6,0.3
	c-1,1.3-2.5,2-4.1,2.1l0.9,2.3c0.7,2.5,1.9,4.7,3.6,6.6c0.6,0.8,1.1,1.7,1.4,2.6c0.5,1,0.8,2.1,1.1,3.2l0.4,2.9l-2.4,1.9
	c-0.9,0.5-1.8,0.8-2.7,1c-0.5,0-1.1-0.1-1.5-0.4c-0.3-0.1-0.6-0.6-1-0.6c-1.8-0.3-2.3-1.7-2.6-3.1c-0.1-0.2,0-0.5-0.2-0.6
	c-0.8-1-1.6-2-1.1-3.4l-0.3-0.4c-0.9-1.4-1.5-2.9-1.9-4.5c-0.2-0.7-0.6-1.3-1-1.9l-1.1,0.2c-2.1,1.3-4.7,1.7-7.1,1.1
	c-1.8-0.2-3.5-0.8-5.1-1.7l-2.4-1.8c-0.2-0.2-0.3-0.6-0.2-0.9l1.7-4l1.4-2.2l1.8-2.3l1.3-1.9c0.2-0.5,0.2-1,0-1.5l-2-3.1l-0.8-0.6
	c-0.3-0.2-0.6-0.4-0.6-0.7c-0.1-0.9-0.5-1.8-1.2-2.4L132,94c-0.9-0.9-1.7-2-2.2-3.2c-0.6-1.6-1.5-1.8-3.1-1.3l-4.7,1.2l-5.4,2
	l-3.4,1l1.4,6.7l0.7,1.4c0.7,1.4,1.6,2.6,1.3,4.4c-0.1,1-0.9,1.2-1.3,1.7c-0.8,1.1-2.1,1.5-3.4,1.1l-1.3-0.1c-1.8,0-3.3-1.5-3.4-3.3
	l-0.9-3.9c-0.6-1.8-1.1-3.6-1.3-5.5c-0.3-1.2-1.2-2-2.4-2.2c-2.7-0.2-5.2-1.4-7.1-3.2c-1.3-1-2.9-1.6-4.6-1.8
	c-0.9-0.2-1.8-0.4-2.7-0.8l-5.4-2.7l-0.8-1l-1.2-2.1c-0.2-0.3-0.5-0.5-0.6-0.8l-2.8-6.2c-0.7-1.5-1.1-3.2-2.3-4.5l-0.6-1
	C73.4,68.1,72.7,66.1,71.9,64L71.9,64z M30.5,66.9l3.2-1.2h1.9l3-0.1l5.8-0.7c1.5-0.1,3-0.6,4.2-1.6c0.5-0.4,1.1-0.6,1.8-0.7
	c1.3-0.3,1.5-0.4,1-1.7c-0.4-0.8-0.8-1.7-1-2.5c-0.4-1.7-1-3.3-1.8-4.7c-1-2.1-2.1-4.1-3.3-6c-1.1-2-2.6-3.6-4.5-4.8l-0.9-0.7
	c-1.3-1.3-1.8-1.3-3.2-0.1c-1.3,1.1-2.6,2.1-4,3c-1.3,0.7-2.1,1.9-2.3,3.4L29.9,50c-0.6,1-0.9,2.1-0.9,3.3c0,0.6-0.1,1.2-0.4,1.7
	c-0.9,1.2-0.6,2.5-0.4,3.8l0.8,3.8C29.1,64.1,29.7,65.6,30.5,66.9z M166.1,56.7l1.1-1.6c1.3-1.1,1.7-2.7,2.4-4.1
	c0.3-0.7,0.6-1.3,1.1-1.9c0.8-0.9,1.9-1.6,2.4-2.6c0.6-1.1,1.6-2,2.8-2.5c1-0.4,1.6-1.5,1.4-2.5l-0.8-2.1c-1-2-1.5-4.2-1.3-6.5
	l-0.3-1.2c-1,0.1-2,0.1-2.9,0.3c-1,0.1-1.9,0.6-2.5,1.4c-0.3,0.4-0.7,0.6-1.1,0.8c-1.4,0.9-2.8,1.8-3.1,3.8c-0.1,0.7-0.5,1.3-1,1.8
	c-0.6,0.6-0.9,1.5-0.8,2.3c0.1,1.7-0.6,3.3-1.7,4.4c-0.4,0.4-0.7,1-0.7,1.6c0.3,1.5,0.8,3,1.5,4.4C163.5,54.1,165.3,54.8,166.1,56.7
	L166.1,56.7z M149.5,92.2l0.4-1.7l0.9-1.9l0.7-3.8c0.2-1,0.6-2.1,1.1-3l3.2-4.7l2.2-3.5c0.6-0.9,1-1.9,1.2-3
	c0.2-1.3,0.8-2.5,1.7-3.4l0.4-0.8l-10.9-0.5c-0.5,1-0.6,2.3-2,2.6l-0.1,0.3l-1.3,2.8l-2.1,5.1c-0.2,0.3-0.2,0.7-0.2,1.1
	c0.5,1.1-0.2,2.6,1.1,3.4l0.1,0.4l0.5,3.4l0.5,1.2l0.8,2.1C147.8,89.8,148.5,91.1,149.5,92.2L149.5,92.2z M193,46.3
	c0.6,1.2,1.1,2.5,1.5,3.8c0.3,1.7,1.5,2.9,2.1,4.3c0.4,0.7,0.9,1.3,1.6,1.8l1.7,1.5c0.8,0.8,0.9,0.9,2,0.4l2-1.1
	c0.8-0.2,1.2-1.1,1-1.8l-1.3-5.7c-0.3-1.5-0.7-2.9-1.3-4.3l-0.3-2.1c0.1-0.8-0.2-1.6-0.8-2.2c-0.3-0.3-0.4-0.7-0.4-1.2
	c0.2-1.3-0.3-2.6-1.4-3.3l-4.5,2.3l-0.4,0.5c-0.7,1.3-1.8,2.3-3.1,3c0.9,1.3-0.7,2.7,0.3,4c1.2-1.1,1.2-1.1,2.1-1L193,46.3L193,46.3
	z M101.7,24.6l-0.1,0.4l0.5,0.4c2.5,1,4.7,2.6,6.4,4.6c1.6,1.7,1.7,3.3,0.3,5.2l-0.4,1c1.8,0.5,3.6,0.7,5.4,0.6L120,36
	c-0.1-4-0.3-8.2-2.7-12.2l-7.5,0.3l-1.6,0.2C108.2,24.3,101.7,24.6,101.7,24.6z M77.2,46.1c1.3-1.8,2.9-3.3,4.9-4.4
	c0.7-0.5,1.4-0.8,2.1-1.1c0.8-0.2,1.5-0.7,1.9-1.4c0.2-0.4,0.5-0.8,0.8-1l4.2-1.8c0.6-0.3,1.3-0.8,1.5-1.4c0.5-1.3,1.1-2.6,1.8-3.8
	c0.7-1.5,0.8-3.3,2-4.7c-0.9,0-1.7,0.3-2.5,0.7L91,28.6c-0.9,0.5-2.1,0.7-2.6,1.4c-1,1.3-2.4,1.8-3.5,2.7c-0.8,0.7-1.9,1-2.8,1.6
	c-0.6,0.3-1,0.8-1.3,1.4c-0.2,0.7-0.8,1.3-1.5,1.5l-1.6,0.7c-0.2,1.4-0.9,2.6-2,3.5c-1.1,1-1.2,1.6-0.2,2.8L77.2,46.1z M219.9,47.2
	c0.5-0.9,0.8-1.8,0.8-2.8c0-1.5-0.4-3,0.3-4.5c0.2-0.4,0.2-0.9,0.1-1.3c-0.1-0.9,0-2-0.6-2.6c-1-1.2-2.3-2.2-3.7-2.9l-0.5-0.1
	c-1.4,0.2-2.9,0.1-4.3-0.4h-0.6l-2.5,0.7c-0.2,2.1-0.1,4,1.6,5.5c0.7,0.6,1.3,1.5,1.5,2.4c0.3,1.4,1.2,2.6,2.3,3.4
	C216,45.8,217.6,47,219.9,47.2L219.9,47.2z M169.1,69l-2.8,4.5c-0.2,0.6-0.6,1.1-1,1.6c-1.3,0.9-1.7,2.6-1,4
	c-2.1,1.6-5.4,8.1-5.1,10.3c2.1-0.7,4.1-1.9,5.7-3.4c-0.2-0.6-0.3-1.3-0.2-2c0.6-2.2,1.9-3.9,4.4-4.2c0.3,0,0.6-0.2,0.8-0.4
	c1-1.1,2.6-1.7,4.1-1.4c0.8-2,1.3-4.2,1.4-6.4c-0.9-0.7-2-1.3-3-1.8L169.1,69L169.1,69z M108,51.7l-0.2,1.2l0.6,3.4
	c0.4,1.4,0.1,3-0.6,4.2c-0.4,0.8-0.6,1.6-0.7,2.5v2.9c-0.1,0.7-0.1,1.4,0.1,2.1c0.4,1.2,0.4,2.6,0,3.8c-0.2,1,0.1,1.5,1,1.6
	c1.3,0.2,2.5,0.7,3.6,1.5c1.6,1,3.5,1.3,5.4,0.8l1-0.3l-1.5-1.2l-1.9-2c-0.8-0.9-1.4-2-2.2-2.8c-1.4-1.3-1.8-3.3-1.2-5.1
	c0.5-1.7,0.6-3.4,0.4-5.1C111.7,56.2,110.3,53.5,108,51.7z M149,45.2l1.7-0.4c1.8-0.9,3.3-2.1,3.6-4.3l0.5-2.6
	c0.3-1.3-0.2-2.7-1.3-3.4c-2.3-1.8-4.9-1.7-7.6-1.2c-0.8,0.2-1.3,0.9-1.1,1.7c0.1,0.8,0.4,1.6,1,2.2c0.4,0.4,0.7,0.8,0.8,1.4
	C146.9,40.9,148.2,42.9,149,45.2L149,45.2z M57.9,24.7l-5.4,0.6c-1.7,0.2-3.3,1-5,0.8c-1.7-0.2-2.5,1.4-3.7,2
	c-0.2,0.1-0.2,0.5-0.2,0.8v1.7c1.7-0.4,3.4,0,4.7-1.2c0.2-0.2,0.5-0.1,0.8-0.1l4.5,0.9l1.8,0.4C56.4,28.7,57.2,26.7,57.9,24.7z
	 M84.6,69.9c0.3,1.3,0.4,2.3,0.7,3.2c0.2,1,0.5,1.9,1,2.7c1,1.3,2.1,2.5,3.4,3.5c1.9,1.5,3.9,2.8,5.9,4.1l2.7,1.6
	c-0.6-2.3-2.1-3.8-3.3-5.4L93.4,78c-1.6-1.7-3.1-3.4-4.7-4.9C87.5,72,86.1,71.1,84.6,69.9z M142.5,95.9c-0.3-2-0.9-4-1.8-5.9
	l-0.3-0.8l-2.5-6.6c-0.3-0.8-1.1-1.2-1.9-1.2h-1.5c-0.2,1.1-0.1,2.2,0.4,3.1c0.6,1.5,1.2,2.9,2,4.2c0.7,1.2,1.9,2.2,2.5,3.5
	C140.2,93.7,141.2,95,142.5,95.9z M54.4,47.6V47c0.5-0.9,0.5-1.9,0-2.8c-0.2-0.5-0.3-1-0.3-1.6c0.1-1.7,0-3.4-0.4-5.1
	c0-0.6-0.4-1-1-1h-0.2l-2.9,0.1L48,37.1c0.6,2,1.6,3.8,3,5.4C51.1,44.8,53.4,45.7,54.4,47.6z M132.3,28.8c1.5-2.2,4-2.1,5.8-3.5
	l0.7-1.7c0.3-0.8,0.2-1-0.7-1.2c-2.6-0.7-5.2-0.2-7.8-0.3l-0.4,0.2L132.3,28.8z M126.4,48.6l-1.3,0.4c-1.1-0.1-1.4,0.7-1.6,1.5
	l-1.1,4.4c-0.2,0.9-0.1,1.9,0.3,2.8l5-1.9l0.7-0.6C127.9,53.1,127.2,50.9,126.4,48.6z M121.8,83.1l-11.2-0.5l0.4,3
	c0.1,1,0.5,1.2,1.2,1.1c1.2-0.1,2.3-0.5,3.5-0.6c2-0.1,3.6-1.2,5.3-2C121.3,83.9,121.5,83.5,121.8,83.1z M89,60.9l1.5-9.4l-6.9,5.2
	l3.9,3.9C87.8,60.8,88.5,60.7,89,60.9z M139.5,53.2c0.6-0.3,0.9-0.9,0.7-1.5c-0.3-1-0.4-2.1-0.3-3.2c0.4-1.8-0.2-3.4-0.6-5
	c-0.6-2-1.3-4-2.3-5.9l-1.7,1.2c-0.3,0.3-0.4,0.6-0.3,1c0.6,1.4,1.2,2.9,2,4.2c0.8,1.2,1.1,2.6,0.9,4l0.1,0.8l0.6,2.2L139.5,53.2
	L139.5,53.2z M156.9,57.9l-0.3-1l-2.1-4.2c-0.2-0.6-0.9-0.8-1.5-0.6c-2.6,1.1-3.4,2.2-2.3,4.7l0.1,0.3c0.6,1.5,0.7,1.5,2.3,1.3
	l1.3-0.1L156.9,57.9z M182.9,81.6l0.4,0.6c6.8-1.1,13.6-2.3,20.3-4.1c-1-0.2-1.9-0.2-2.9-0.1l-3.3,0.9h-1.1
	c-1.8-0.6-3.6-0.2-5.5-0.2c-2.5,0-4.6,1.5-6.9,2.2L182.9,81.6z M187.7,55.7c-1.5,0.9-1.8,1.9-1.2,3.3c0.5,0.9,0.6,2,0.5,3l0.2,1.2
	l5.4-1.3l-1.3-2.5C190.2,58.1,189,57,187.7,55.7L187.7,55.7z M217.6,70.8l0.4-3.1v-3c-0.1-0.9,1-1.8,0.4-2.7l-2.7,1l-2,0.8
	c1.1,2.1,1.7,4.4,1.6,6.7L217.6,70.8z M49.3,80.6c-1.7-2.8-10-6.3-13.1-5.4C40,78.1,44.5,80,49.3,80.6z M115.2,47.9l2.3-3
	c-1-1.4-2.4-0.8-3.5-1.2c-1.2-0.5-2.4-0.6-3.6-0.3C112.4,44.4,113.3,46.6,115.2,47.9z M159.3,97.3l-0.2-0.2l-1.3,0.6l-4.7,3.5
	c-1.3,1-1.3,1.2-0.3,2.8L159.3,97.3z M132.8,68.7c-1.2,0.9-2.7,0.6-3.4,2.1l1.4,2.3l2.4-3.4C133.3,69.6,133,69.2,132.8,68.7z
	 M99,72.1l0.5,0.1c0.1-0.3,0.3-0.6,0.2-0.8c-0.4-1.2-0.4-2.6,0.1-3.8c0.1-0.3,0.1-0.5,0-0.8l-1.1-3.7C97.8,66.2,98.9,69.1,99,72.1z
	 M99.7,49.5c-0.6,0.5-1.1,1.6-1.5,3.4c-0.5,2.2-0.5,2.2,0.1,3.5C99,54.3,99.8,52.1,99.7,49.5z M177.7,62.5l0.8-1.7
	c0.1-0.4-0.1-0.9-0.6-0.7c-1.1,0.3-2.1,1-2.9,1.9L177.7,62.5z M64.8,49.8c0.7-0.1,1.2-0.2,0.7-1l-0.4-0.1L64.8,49.8z M143,111.9
	l0.3,0.4l0.7-0.6l-0.4-0.4L143,111.9z M65.4,51.1c-0.3,1-0.3,1,0.4,1.7L65.4,51.1z"/>
<path class="st1" d="M244.6,29.6c0,0.3,0.2,0.5,0.5,0.5h0.6c0.9,0,1.8,0,1.8-1.1c0-0.9-0.8-1-1.5-1h-0.9c-0.3,0-0.5,0.2-0.5,0.5
	L244.6,29.6L244.6,29.6z M243.5,27.6c0-0.3,0.2-0.5,0.5-0.5h2.1c1.6,0,2.4,0.6,2.4,1.9c0.1,0.8-0.4,1.5-1.2,1.7
	c-0.2,0.1-0.4,0.4-0.3,0.6v0.1l1.1,1.7c0.1,0.2,0.1,0.5-0.2,0.7l-0.2,0.1l-0.4-0.2l-1.6-2.5l-0.4-0.2h-0.4c-0.3,0-0.5,0.2-0.5,0.5v2
	c0,0.3-0.2,0.5-0.5,0.5h0.1c-0.3,0-0.5-0.2-0.5-0.5L243.5,27.6L243.5,27.6z M245.8,35.5c2.8,0.1,5.1-2,5.2-4.8s-2-5.1-4.8-5.2
	c-2.8-0.1-5.1,2-5.2,4.8v0.2c-0.1,2.6,1.9,4.9,4.6,5C245.6,35.5,245.8,35.5,245.8,35.5z M245.8,24.7c3.2,0,5.8,2.6,5.8,5.9
	c0,3.2-2.6,5.8-5.9,5.8c-3.2,0-5.8-2.6-5.8-5.9c0-3.2,2.6-5.8,5.7-5.8C245.6,24.7,245.8,24.7,245.8,24.7z"/>
</svg>
