<?xml version="1.0" encoding="utf-8"?>
<!-- Generator: Adobe Illustrator 24.3.0, SVG Export Plug-In . SVG Version: 6.00 Build 0)  -->
<svg version="1.1" id="Calque_1" xmlns="http://www.w3.org/2000/svg" xmlns:xlink="http://www.w3.org/1999/xlink" x="0px" y="0px"
	 viewBox="0 0 184.5 40.7" style="enable-background:new 0 0 184.5 40.7;" xml:space="preserve">
<style type="text/css">
	.st0{fill:none;stroke:#DDDEE0;stroke-width:0.7087;stroke-miterlimit:10;}
	.st1{fill:#DDDEE0;}
</style>
<path class="st0" d="M163.8,7.2H25.6c-7.4,0-13.4,6-13.4,13.4l0,0c0,7.4,6,13.4,13.4,13.4h138.3c7.4,0,13.4-6,13.4-13.4l0,0
	C177.2,13.2,171.2,7.2,163.8,7.2z"/>
<g>
	<path class="st1" d="M26.2,21.4v-1.1h5.7v6.9h-1.1v-2.3c-0.2,0.4-0.5,0.8-0.8,1.1s-0.7,0.6-1,0.8c-0.4,0.2-0.9,0.4-1.4,0.5
		c-0.5,0.2-1.1,0.2-1.7,0.2c-0.8,0-1.6-0.1-2.3-0.4s-1.3-0.7-1.8-1.3s-0.9-1.3-1.2-2.2c-0.3-0.9-0.4-1.9-0.4-3.1
		c0-1,0.1-1.9,0.4-2.7c0.2-0.8,0.6-1.6,1.1-2.2c0.5-0.6,1.2-1.1,1.9-1.5c0.8-0.4,1.7-0.5,2.7-0.5c0.7,0,1.4,0.1,2,0.3
		s1.2,0.4,1.6,0.8c0.5,0.4,0.9,0.8,1.2,1.3c0.3,0.5,0.6,1.1,0.7,1.9h-1.3c-0.1-0.5-0.3-0.9-0.6-1.3c-0.3-0.4-0.6-0.7-1-1
		s-0.8-0.5-1.2-0.6c-0.5-0.1-0.9-0.2-1.4-0.2c-0.9,0-1.6,0.2-2.3,0.5c-0.6,0.3-1.1,0.7-1.6,1.3c-0.4,0.6-0.7,1.2-0.9,2
		c-0.2,0.8-0.3,1.6-0.3,2.6c0,0.7,0.1,1.4,0.3,2.1c0.2,0.7,0.5,1.3,0.9,1.8s0.9,0.9,1.5,1.2s1.3,0.4,2,0.4c0.4,0,0.7,0,1.1-0.1
		s0.8-0.2,1.1-0.4c0.4-0.2,0.7-0.4,1-0.7s0.6-0.7,0.8-1.1c0.2-0.4,0.4-0.9,0.4-1.3c0.1-0.5,0.1-0.9,0.1-1.4h-4.2V21.4z"/>
	<path class="st1" d="M35.9,27.2h-1.1v-9.6h1.1v1.8l0,0c0.3-0.8,0.7-1.3,1.2-1.6s1.1-0.5,1.9-0.5v1.2c-0.6,0-1.1,0.1-1.6,0.3
		c-0.4,0.2-0.7,0.5-1,0.9c-0.2,0.4-0.4,0.8-0.5,1.3s-0.1,1-0.1,1.5L35.9,27.2L35.9,27.2z"/>
	<path class="st1" d="M45.3,21.6c0.2,0,0.5-0.1,0.7-0.1c0.3,0,0.5-0.1,0.7-0.2c0.2-0.1,0.3-0.2,0.3-0.4s0.1-0.4,0.1-0.6
		c0-0.6-0.2-1-0.5-1.4c-0.4-0.4-1-0.5-1.8-0.5c-0.4,0-0.7,0-1.1,0.1c-0.3,0.1-0.6,0.2-0.8,0.4s-0.4,0.4-0.6,0.7
		c-0.2,0.3-0.3,0.6-0.3,1h-1.1c0-0.6,0.2-1.1,0.4-1.5s0.5-0.7,0.9-1s0.8-0.4,1.2-0.6c0.5-0.1,1-0.2,1.5-0.2s0.9,0.1,1.4,0.2
		c0.4,0.1,0.8,0.3,1.1,0.5s0.6,0.5,0.7,0.9c0.2,0.4,0.3,0.9,0.3,1.4v5.2c0,0.4,0.1,0.7,0.2,0.8c0.2,0.1,0.5,0.1,0.9-0.1v0.9
		c-0.1,0-0.2,0.1-0.4,0.1s-0.3,0.1-0.5,0.1s-0.3,0-0.5-0.1c-0.2,0-0.3-0.1-0.4-0.2c-0.1-0.1-0.2-0.2-0.3-0.3s-0.1-0.3-0.1-0.4
		c0-0.2,0-0.3,0-0.5c-0.5,0.5-1,0.9-1.6,1.2s-1.3,0.4-2,0.4c-0.4,0-0.8-0.1-1.2-0.2c-0.4-0.1-0.7-0.3-1-0.5s-0.5-0.5-0.7-0.9
		c-0.2-0.3-0.3-0.7-0.3-1.2c0-1.6,1.1-2.6,3.3-2.9L45.3,21.6z M47.2,22.1c-0.5,0.2-0.9,0.3-1.4,0.4c-0.5,0.1-1,0.1-1.4,0.1
		c-0.9,0.1-1.5,0.3-2,0.6s-0.7,0.8-0.7,1.5c0,0.3,0.1,0.6,0.2,0.8c0.1,0.2,0.3,0.4,0.5,0.5s0.4,0.2,0.7,0.3s0.5,0.1,0.8,0.1
		c0.4,0,0.9-0.1,1.3-0.2c0.4-0.1,0.8-0.3,1.1-0.5s0.6-0.5,0.8-0.9s0.3-0.8,0.3-1.2v-1.5H47.2z"/>
	<path class="st1" d="M52.5,30.9h-1.1V17.6h1.1v1.7l0,0c0.2-0.3,0.4-0.6,0.6-0.8c0.3-0.2,0.5-0.4,0.8-0.6c0.3-0.2,0.6-0.3,0.9-0.4
		c0.3-0.1,0.6-0.1,0.9-0.1c0.8,0,1.4,0.1,2,0.4c0.5,0.3,1,0.6,1.3,1.1c0.4,0.4,0.6,1,0.8,1.6s0.2,1.3,0.2,2s-0.1,1.3-0.3,1.9
		c-0.2,0.6-0.4,1.2-0.8,1.6c-0.4,0.5-0.8,0.8-1.3,1.1s-1.2,0.4-1.9,0.4s-1.3-0.1-2-0.5c-0.6-0.3-1.1-0.7-1.5-1.3v5.2H52.5z
		 M52.5,22.4c0,0.5,0.1,1.1,0.2,1.5c0.1,0.5,0.4,0.9,0.6,1.3c0.3,0.4,0.6,0.7,1,0.9s0.9,0.3,1.4,0.3c0.6,0,1.1-0.1,1.5-0.3
		s0.8-0.5,1-0.9c0.3-0.4,0.5-0.9,0.6-1.4s0.2-1.1,0.1-1.7c0-0.6-0.1-1.1-0.2-1.6c-0.2-0.5-0.4-0.9-0.7-1.2s-0.6-0.6-1-0.7
		c-0.4-0.2-0.8-0.3-1.3-0.3s-1,0.1-1.4,0.3s-0.7,0.5-1,0.9s-0.5,0.8-0.6,1.3C52.5,21.3,52.5,21.8,52.5,22.4z"/>
	<path class="st1" d="M62.5,27.2V13.8h1.1v5.1c0.4-0.5,0.9-0.9,1.4-1.1c0.5-0.3,1-0.4,1.7-0.4c0.6,0,1.1,0.1,1.6,0.3
		s0.9,0.6,1.3,1.1c0.2,0.3,0.4,0.7,0.4,1.1c0,0.4,0.1,0.7,0.1,1.1v6.3H69V21c0-0.9-0.2-1.5-0.6-1.9s-1-0.6-1.9-0.6
		c-0.3,0-0.7,0.1-0.9,0.2c-0.3,0.1-0.5,0.2-0.8,0.4c-0.2,0.2-0.4,0.4-0.6,0.6c-0.2,0.2-0.3,0.5-0.4,0.7c-0.1,0.3-0.2,0.6-0.2,0.9
		s0,0.6,0,0.9v5.2h-1.1V27.2z"/>
	<path class="st1" d="M72.9,15.5v-1.6h1.2v1.6H72.9z M73,27.2v-9.6h1.1v9.6C74.1,27.2,73,27.2,73,27.2z"/>
	<path class="st1" d="M83.7,20.6c-0.2-0.7-0.5-1.3-1-1.7s-1.1-0.6-1.8-0.6c-0.6,0-1.1,0.1-1.5,0.4c-0.4,0.2-0.7,0.5-1,0.9
		s-0.4,0.8-0.6,1.3c-0.1,0.5-0.2,1-0.2,1.5s0.1,1,0.2,1.5s0.3,0.9,0.6,1.3c0.3,0.4,0.6,0.7,1,0.9s0.9,0.3,1.5,0.3
		c0.8,0,1.5-0.2,2-0.7s0.8-1.1,1-1.9H85c-0.1,0.5-0.3,1-0.5,1.5c-0.2,0.4-0.5,0.8-0.8,1.1S83,27,82.5,27.1c-0.5,0.2-1,0.3-1.6,0.3
		c-0.8,0-1.4-0.1-2-0.4c-0.6-0.3-1-0.6-1.4-1.1s-0.6-1-0.8-1.6c-0.2-0.6-0.3-1.3-0.3-2s0.1-1.3,0.3-1.9c0.2-0.6,0.5-1.1,0.8-1.6
		c0.4-0.5,0.8-0.8,1.4-1.1c0.5-0.3,1.2-0.4,1.9-0.4c1.1,0,2,0.3,2.7,0.8s1.1,1.4,1.3,2.5H83.7z"/>
	<path class="st1" d="M91.3,13.8h9.7v1.1h-4.2v12.2h-1.3V14.9h-4.2V13.8z"/>
	<path class="st1" d="M103.3,22.6c0,0.5,0.1,1,0.2,1.5s0.3,0.9,0.6,1.2c0.3,0.3,0.6,0.6,1,0.8s0.9,0.3,1.4,0.3
		c0.7,0,1.3-0.2,1.9-0.6c0.5-0.4,0.9-0.9,1-1.6h1.2c-0.1,0.5-0.3,0.9-0.5,1.3c-0.2,0.4-0.5,0.7-0.8,1s-0.7,0.5-1.2,0.7
		s-1,0.2-1.6,0.2c-0.8,0-1.4-0.1-2-0.4c-0.6-0.3-1-0.6-1.4-1.1s-0.6-1-0.8-1.6c-0.2-0.6-0.3-1.3-0.3-2s0.1-1.4,0.3-2
		c0.2-0.6,0.5-1.2,0.9-1.6c0.4-0.5,0.8-0.8,1.4-1.1c0.5-0.3,1.2-0.4,1.8-0.4c1.3,0,2.4,0.5,3.1,1.4c0.8,0.9,1.1,2.2,1.1,3.9
		L103.3,22.6L103.3,22.6z M109.5,21.7c0-0.5-0.1-0.9-0.2-1.3c-0.1-0.4-0.3-0.8-0.6-1.1c-0.3-0.3-0.6-0.5-1-0.7s-0.8-0.3-1.3-0.3
		s-0.9,0.1-1.3,0.3s-0.7,0.4-1,0.7s-0.5,0.7-0.6,1.1c-0.2,0.4-0.3,0.8-0.3,1.3H109.5z"/>
	<path class="st1" d="M114.1,27.2H113v-9.6h1.1v1.8l0,0c0.3-0.8,0.7-1.3,1.2-1.6s1.1-0.5,1.9-0.5v1.2c-0.6,0-1.1,0.1-1.6,0.3
		c-0.4,0.2-0.7,0.5-1,0.9c-0.2,0.4-0.4,0.8-0.5,1.3s-0.1,1-0.1,1.5L114.1,27.2L114.1,27.2z"/>
	<path class="st1" d="M120.2,27.2h-1.1v-9.6h1.1v1.8l0,0c0.3-0.8,0.7-1.3,1.2-1.6s1.1-0.5,1.9-0.5v1.2c-0.6,0-1.1,0.1-1.6,0.3
		c-0.4,0.2-0.7,0.5-1,0.9c-0.2,0.4-0.4,0.8-0.5,1.3s-0.1,1-0.1,1.5L120.2,27.2L120.2,27.2z"/>
	<path class="st1" d="M129,27.4c-0.6,0-1.2-0.1-1.7-0.3s-1-0.5-1.4-0.9s-0.7-0.9-1-1.6c-0.2-0.6-0.4-1.4-0.4-2.2
		c0-0.7,0.1-1.4,0.3-2c0.2-0.6,0.5-1.1,0.8-1.6c0.4-0.5,0.8-0.8,1.4-1.1s1.2-0.4,1.9-0.4c0.8,0,1.4,0.1,2,0.4c0.6,0.3,1,0.6,1.4,1.1
		s0.6,1,0.8,1.6s0.3,1.3,0.3,2c0,0.8-0.1,1.5-0.3,2.1s-0.5,1.1-0.9,1.6c-0.4,0.4-0.9,0.8-1.4,1C130.3,27.3,129.7,27.4,129,27.4z
		 M132.3,22.4c0-0.6-0.1-1.1-0.2-1.6c-0.1-0.5-0.3-0.9-0.6-1.3c-0.3-0.4-0.6-0.7-1-0.9s-0.9-0.3-1.5-0.3s-1.1,0.1-1.5,0.3
		s-0.7,0.5-1,0.9s-0.4,0.8-0.6,1.3c-0.1,0.5-0.2,1-0.2,1.5c0,0.6,0.1,1.1,0.2,1.6s0.3,0.9,0.6,1.3c0.3,0.4,0.6,0.6,1,0.8
		s0.9,0.3,1.4,0.3c0.6,0,1.1-0.1,1.5-0.3s0.7-0.5,1-0.9s0.4-0.8,0.6-1.3C132.2,23.4,132.3,22.9,132.3,22.4z"/>
	<path class="st1" d="M136.7,27.2h-1.1v-9.6h1.1v1.8l0,0c0.3-0.8,0.7-1.3,1.2-1.6s1.1-0.5,1.9-0.5v1.2c-0.6,0-1.1,0.1-1.6,0.3
		c-0.4,0.2-0.7,0.5-1,0.9c-0.2,0.4-0.4,0.8-0.5,1.3s-0.1,1-0.1,1.5v4.7H136.7z"/>
	<path class="st1" d="M141.8,15.5v-1.6h1.2v1.6H141.8z M141.8,27.2v-9.6h1.1v9.6C142.9,27.2,141.8,27.2,141.8,27.2z"/>
	<path class="st1" d="M146.4,24.2c0.2,0.8,0.5,1.4,0.9,1.7s1.1,0.5,1.9,0.5c0.4,0,0.8,0,1.1-0.1s0.5-0.2,0.7-0.4s0.3-0.4,0.4-0.6
		c0.1-0.2,0.1-0.4,0.1-0.7c0-0.5-0.2-0.8-0.5-1s-0.7-0.4-1.1-0.5c-0.5-0.1-0.9-0.2-1.5-0.3c-0.5-0.1-1-0.2-1.5-0.4s-0.8-0.4-1.1-0.8
		c-0.3-0.3-0.5-0.8-0.5-1.5c0-0.8,0.3-1.5,0.9-2c0.6-0.5,1.4-0.8,2.5-0.8c1,0,1.9,0.2,2.5,0.7s1,1.2,1.2,2.3h-1.1
		c-0.1-0.7-0.4-1.3-0.8-1.6c-0.5-0.3-1-0.5-1.7-0.5s-1.2,0.2-1.6,0.5c-0.4,0.3-0.6,0.7-0.6,1.2c0,0.4,0.2,0.8,0.5,1s0.7,0.4,1.1,0.6
		c0.5,0.1,0.9,0.3,1.5,0.4c0.5,0.1,1,0.3,1.5,0.5s0.8,0.5,1.1,0.8s0.5,0.8,0.5,1.4c0,0.5-0.1,0.9-0.3,1.2c-0.2,0.4-0.5,0.6-0.8,0.9
		c-0.3,0.2-0.8,0.4-1.2,0.5c-0.5,0.1-1,0.2-1.6,0.2s-1.1-0.1-1.5-0.2c-0.4-0.2-0.8-0.4-1.1-0.7s-0.5-0.6-0.7-1s-0.3-0.8-0.3-1.3
		C145.3,24.2,146.4,24.2,146.4,24.2z"/>
	<path class="st1" d="M156,27.2h-1.1v-9.6h1.1V19l0,0c0.3-0.6,0.7-1,1.2-1.3s1.1-0.4,1.7-0.4c0.4,0,0.8,0.1,1.1,0.1
		c0.3,0.1,0.6,0.2,0.8,0.4s0.4,0.4,0.5,0.6c0.1,0.2,0.3,0.5,0.4,0.7c0.3-0.6,0.7-1.1,1.3-1.4c0.5-0.3,1.1-0.5,1.8-0.5
		s1.2,0.1,1.6,0.3c0.4,0.2,0.7,0.5,0.9,0.9s0.3,0.8,0.4,1.2c0.1,0.5,0.1,0.9,0.1,1.4v6h-1.1v-6.5c0-0.7-0.1-1.2-0.4-1.6
		c-0.3-0.4-0.8-0.6-1.6-0.6c-0.4,0-0.8,0.1-1.2,0.3s-0.7,0.5-1,0.8c-0.1,0.2-0.2,0.3-0.3,0.6c-0.1,0.2-0.1,0.4-0.2,0.7
		c-0.1,0.2-0.1,0.5-0.1,0.7s0,0.4,0,0.6v5.2h-1.1v-6.7c0-0.7-0.1-1.2-0.4-1.6c-0.3-0.4-0.8-0.6-1.6-0.6c-0.4,0-0.8,0.1-1.2,0.3
		s-0.7,0.5-1,0.8c-0.1,0.2-0.2,0.3-0.3,0.6c-0.1,0.2-0.1,0.4-0.2,0.7c0,0.2-0.1,0.5-0.1,0.7s0,0.4,0,0.6L156,27.2L156,27.2z"/>
</g>
</svg>
