<?xml version="1.0" encoding="utf-8"?>
<!-- Generator: Adobe Illustrator 24.3.0, SVG Export Plug-In . SVG Version: 6.00 Build 0)  -->
<svg version="1.1" id="Calque_1" xmlns="http://www.w3.org/2000/svg" xmlns:xlink="http://www.w3.org/1999/xlink" x="0px" y="0px"
	 viewBox="0 0 105.8 30.4" style="enable-background:new 0 0 105.8 30.4;" xml:space="preserve">
<style type="text/css">
	.st0{fill:none;stroke:#242526;stroke-width:0.2835;stroke-miterlimit:10;}
</style>
<path class="st0" d="M72.1,16.4c-0.6-0.3-1-0.2-1.4,0.3c0,0,0,0.1,0,0.2c0.1,0,0.1,0.1,0.1,0.1c0.9,0.1,1.7-0.1,2.5-0.5
	c0.2-0.1,0.3-0.2,0.4-0.4c0.2-0.4,0.3-0.9,0.2-1.4c-0.2-0.9-0.5-1.8-0.9-2.7c-0.2-0.3-0.3-0.7-0.4-1.1c-0.4-1.5-0.9-3-1.5-4.5
	c-0.1-0.4-0.3-0.7-0.5-1.1c-0.1-0.2-0.4-0.3-0.6-0.4c-0.2,0.2-0.4,0.5-0.6,0.8c-0.4,0.9-0.6,1.8-0.9,2.7c-0.3,1.2-0.7,2.5-0.9,3.7
	c-0.2,0.9-0.4,1.9-0.3,2.9c0,0.2-0.1,0.3-0.2,0.5c-0.1,0.3-0.2,0.6-0.2,0.9c-0.1,0.2-0.1,0.4-0.2,0.7c-0.1,0.2-0.2,0.4-0.5,0.5
	c-0.1,0-0.2,0.1-0.3,0.2c-0.3,0-0.5-0.2-0.6-0.4c-0.3-0.3-0.6-0.4-1-0.5c-0.5-0.1-1-0.3-1.5-0.5c-0.1-0.1-0.3-0.1-0.5-0.1
	c-0.2-0.1-0.4-0.1-0.6-0.2c-1-0.4-2-0.7-2.9-1.3c-0.3-0.2-0.6-0.3-0.8-0.4c-0.2-0.1-0.4-0.1-0.5-0.1c-0.4,0-0.7,0.3-0.6,0.6
	c0.2,0.4,0,0.9,0,1.3c0,0.2,0,0.5,0.1,0.7c0.1,0.4,0.1,0.5,0.6,0.5c0.3,0,0.6,0,0.9-0.2c0.2-0.2,0.5-0.3,0.8-0.4
	c0.3-0.1,0.5,0.2,0.4,0.5c-0.1,0.2-0.1,0.4-0.1,0.6c0,0.1-0.1,0.3-0.2,0.5c-0.3,0.4-0.5,0.8-0.8,1.3c-0.3,0.4-0.5,0.9-0.8,1.2
	c-0.2,0.2-0.3,0.4-0.4,0.7c-0.2,0.6-0.3,1.3-0.6,1.9c-0.1,0.2-0.1,0.4-0.1,0.5c0,1,0,2,0,3c0,0.8-0.1,1.7-0.6,2.4
	c-0.1,0.2,0,0.3-0.1,0.5c-0.1,0-0.2-0.1-0.2-0.1c-0.2,0.1,0,0.3-0.1,0.4c-0.2,0.1-0.3-0.1-0.4-0.2c-0.2-0.3,0.1-0.4,0.2-0.6
	c-0.3-0.1-0.4-0.3-0.4-0.5c-0.1-0.5-0.1-1,0-1.5c0-0.5,0-1,0-1.5c0-0.3-0.1-0.5-0.3-0.6c0,0,0,0,0,0c-0.6-0.5-0.8-0.5-1.5-0.1
	c-0.4,0.2-0.9,0.4-1.3,0.6c-0.4,0.2-0.7,0.4-1.1,0.6c-0.1,0-0.1,0.1-0.2,0.1c-0.6,0.1-1.2,0.4-1.8,0.6c-0.7,0.2-1.4,0.4-2.2,0.6
	c-0.3,0.1-0.6,0.1-0.9-0.1c-0.6-0.3-1.3-0.4-2-0.5c-0.4,0-0.6,0-0.9,0.3c-0.2,0.3-0.5,0.5-0.8,0.6c-0.1,0-0.2,0.1-0.3,0
	c-0.5-0.2-1.1-0.3-1.6-0.3c-0.4,0-0.8-0.1-1.2-0.4c-0.3-0.2-0.7-0.5-1-0.7c-0.3-0.2-0.5-0.3-0.8-0.4c-0.3-0.1-0.6-0.3-0.9-0.5
	c-0.5-0.4-1-0.8-1.5-1.2c-0.4-0.3-0.8-0.6-1.2-0.8c-0.2-0.1-0.4-0.3-0.6-0.5c-0.8-0.8-1.5-1.6-2.3-2.4c-0.5-0.4-0.9-0.9-1.3-1.4
	c-0.7-0.9-1.5-1.7-2.2-2.6c-0.6-0.7-1.2-1.4-1.8-2.1c-0.5-0.6-1.1-1.3-1.6-1.9c-0.1-0.1-0.2-0.2-0.3-0.2c-0.3,0.1-0.5,0.2-0.7,0.4
	c0,1.3-0.1,2.6,0,4c0,0.5,0,1,0.1,1.4c0,0.5,0.1,0.9,0.1,1.4c0,0.2,0.1,0.4,0.4,0.4c0.1,0,0.2,0.1,0.3,0.1c0.2,0.2,0.5,0.4,0.8,0.5
	c0.3,0.1,0.3,0.4,0.1,0.6c-0.2,0.2-0.5,0.4-0.7,0.6c-0.2,0.1-0.4,0.3-0.5,0.5c-0.1,0.1-0.2,0.3-0.2,0.4c0,0.1-0.1,0.1-0.1,0.2
	c-0.1,0.6-0.3,1.2-0.3,1.9c0,0.5-0.2,1-0.2,1.5c0,0.3,0,0.5,0.1,0.8c-0.3,0.2-0.3,0.5-0.4,0.8c-0.1,0.2-0.2,0.4-0.3,0.5
	c-0.2,0.2-0.6,0.2-0.8-0.1c-0.1-0.1-0.1-0.3-0.2-0.4c-0.1-0.9-0.4-1.7-0.3-2.6c0-0.5-0.1-0.9-0.2-1.4c-0.1-0.4-0.4-0.6-0.8-0.8
	c-0.4-0.1-0.7-0.1-1.1,0c-1.2,0.5-2.5,0.9-3.7,1.4c-0.5,0.2-1,0.2-1.6,0.3c-0.5,0.1-1,0.1-1.5,0.2c-0.2,0-0.4,0-0.6,0.1
	c-0.3,0-0.5-0.1-0.7-0.2c-0.3-0.2-0.6-0.4-0.8-0.5c-0.5-0.3-0.8-0.7-1-1.2c-0.2-0.4-0.3-0.8-0.5-1.3c-0.2-0.5-0.2-1.1-0.2-1.6
	c0-0.1,0-0.2,0.1-0.3c0.2-0.3,0.3-0.6,0.3-0.9c0.1-0.6,0.1-1.2,0.3-1.8c0.1-0.7-0.2-1.2-0.6-1.7c-0.2-0.2-0.4-0.3-0.7-0.4
	c-0.3-0.1-0.5-0.2-0.8-0.1c-0.7,0.2-1.4,0.3-2.1,0.4c-0.4,0.1-0.8,0.1-1.2,0.1c-0.3,0-0.6-0.1-0.9-0.2C2,15.4,2,15.3,2,15.1
	c0-0.2,0.1-0.4,0.1-0.7c0.3-0.1,0.6-0.2,0.8-0.5c0.1-0.1,0.2-0.1,0.3-0.1c0.2-0.1,0.4-0.1,0.5-0.2c0.5-0.2,0.5-0.3,0.4-0.9
	c-0.4-0.2-0.9-0.5-1.4-0.7c-0.1-0.1-0.3-0.1-0.4-0.2c-0.6-0.4-0.9-1-1-1.7C1.2,9.2,1.5,8.5,2.1,7.8c0.5-0.6,1.1-1,1.7-1.3
	C3.9,6.5,4,6.5,4,6.4c0.4-0.5,1-0.6,1.6-0.8c0.9-0.4,1.9-0.7,2.9-1c0.4-0.1,0.8-0.2,1.1-0.3c1-0.3,2.1-0.5,3.1-0.8
	c0.7-0.2,1.3-0.4,2-0.6c0.7-0.2,1.3-0.4,2-0.6c0.7-0.1,1.4-0.1,2,0.3c0.2,0.1,0.4,0.2,0.6,0.2c0.9,0.1,1.8,0,2.7,0
	c0.4,0,0.7,0,1.1-0.1c0.9-0.1,1.8-0.3,2.6-0.5c0.4-0.1,0.7-0.2,1.1-0.3c0.9-0.2,1.8-0.5,2.7-0.7c0.2,0,0.4-0.1,0.5-0.1
	c0.3,0,0.4,0.1,0.4,0.4c0,0.1,0,0.2,0,0.2c0.1,0.2,0.1,0.4,0,0.6c-0.1,0.2-0.3,0.4-0.6,0.5c-0.8,0.2-1.7,0.4-2.5,0.6
	c-0.5,0.1-0.9,0.2-1.4,0.4c-0.3,0.1-0.7,0.2-1,0.3c-0.1,0-0.2,0-0.2,0.1c-0.5,0.2-1.1,0.3-1.6,0.4c-0.4,0.1-0.7,0.1-1.1,0.2
	c-0.5,0.1-1,0.2-1.5,0.3c-0.5,0.1-0.9,0.1-1.4-0.1c-0.1,0-0.2-0.1-0.3-0.1c-0.2,0-0.4,0-0.5-0.1c-0.1-0.1-0.2-0.1-0.3-0.1
	c-0.3-0.1-0.5,0-0.8-0.2c-0.3-0.1-0.5-0.1-0.8,0c-0.1,0-0.2,0.1-0.3,0.2c-0.5,0.3-1,0.6-1.6,0.7c-0.3,0.1-0.6,0.2-0.7,0.6
	c0,0,0,0.1-0.1,0.1c-0.5,0.2-0.6,0.7-0.8,1.2c-0.4,0.9-0.6,1.9-1,2.9c-0.1,0.3-0.2,0.5-0.3,0.8c0,0.1,0,0.3,0.1,0.4
	c0.1,0.2,0.3,0.4,0.4,0.6c0.1,0.2,0.3,0.3,0.6,0.3c0.6,0,1.1-0.1,1.7-0.1c0.5-0.1,0.9-0.2,1.4-0.3c0.1,0,0.3-0.1,0.4-0.1
	c0.5,0,0.9-0.1,1.4-0.2c0.4-0.1,0.9-0.1,1.3-0.2c0.1,0,0.2-0.1,0.4-0.1c0-0.5,0.3-0.8,0.6-1.1c0.4-0.5,0.7-1,0.8-1.6
	c0.1-0.2,0.1-0.5,0.3-0.7c0.1-0.1,0.1-0.3,0.2-0.5c0-0.1,0-0.2,0-0.4c0-0.2,0.3-0.3,0.4-0.1c0.1,0,0.1,0.1,0.2,0.2
	c0.1,0,0.3-0.1,0.4,0.1c0.1,0.3,0.3,0.5,0.2,0.9c0,0.1,0,0.1,0,0.2c-0.1,0.4,0.1,0.8,0.5,1c0.2,0.1,0.4,0.3,0.6,0.5
	c0.2,0.2,0.4,0.3,0.7,0.3c0.4,0,0.9,0.1,1.3,0.1c0.9,0,1.7,0,2.6-0.1c0.4,0,0.8,0,1.2,0c0.5,0,0.5,0.1,0.5,0.6c0,0,0,0.1,0,0.1
	c0,0,0.1,0.1,0.1,0.1c0.1,0.1,0.3,0.1,0.3,0.3c0,0.2-0.2,0.3-0.3,0.3c-0.2,0.1-0.4,0.1-0.7,0.1c-0.5,0-0.9,0.1-1.4,0.1
	c-0.7,0-1.1,0.3-1.3,0.9c-0.1,0.2-0.2,0.5-0.3,0.7c0.1,0.1,0.2,0.3,0.3,0.5c1.4,1.7,3,3.3,4.5,4.9c0.5,0.5,1,0.9,1.4,1.4
	c0.2,0.2,0.3,0.3,0.5,0.5c0.3,0.3,0.6,0.6,0.9,0.9c0.7,0.6,1.4,1.2,2.2,1.9c0,0,0.1,0.1,0.1,0.1c0.1-0.1,0.1-0.2,0-0.3
	c-0.2-0.7-0.3-1.4-0.5-2.1c0-0.2-0.1-0.3-0.1-0.5c-0.1-0.6-0.2-1.1-0.4-1.7c-0.2-0.5-0.2-1.1-0.2-1.7c0-0.1,0-0.2,0-0.2
	c-0.2-0.6-0.2-1.3-0.3-1.9c0-0.1,0-0.2-0.1-0.2c-0.3-0.2-0.2-0.5-0.2-0.7c0-0.8-0.1-1.5-0.1-2.3c-0.1-1.2-0.1-2.4,0-3.7
	c0.1-0.9,0.1-1.7,0.2-2.6c0-0.1,0.1-0.2,0.1-0.4c0-0.2,0.1-0.4,0.1-0.6c0-0.6,0.1-1.2,0.2-1.7c0.1-0.5,0.2-0.9,0.3-1.4
	c0-0.2,0-0.2-0.2-0.6c0.4-0.5,0.4-0.5,1.1-0.2c0,0.1,0.1,0.2,0.1,0.4c0,0,0.1,0.1,0.1,0.1c0.3,0,0.5,0.3,0.6,0.6
	C37,1.9,37,2.3,37.1,2.6c0.2,0.9,0.5,1.9,0.7,2.8c0.3,1,0.5,2.1,0.8,3.1c0.3,1.1,0.4,2.1,0.8,3.2c0.1,0.3,0.2,0.6,0.5,0.8
	c0,0,0.1,0.1,0.1,0.1c0,0.4,0.3,0.4,0.5,0.5c0.7-0.5,1-1.3,1.3-2c0.3-0.7,0.6-1.4,0.8-2.1c0.1-0.2,0.1-0.4,0.2-0.7
	c0.1-0.5,0.1-1,0.3-1.5c0.1-0.4,0.3-0.8,0.4-1.2c0.2-0.6,0.4-1.2,0.6-1.7c0.2-0.3,0.3-0.7,0.5-1C44.6,3,44.8,2.9,44.9,3
	c0.3,0.3,0.6,0.3,1,0.3c0.8,0,1.6-0.1,2.4,0.2c0.2,0.1,0.4,0,0.6,0c0.1,0,0.2,0,0.2-0.1C50.6,3.3,52,3,53.5,2.8
	c0.6-0.1,1.2-0.1,1.7-0.1c1.5-0.1,3-0.2,4.5-0.3c1-0.1,1.9-0.1,2.9-0.1c0.2,0,0.3,0,0.5,0c0.2,0,0.4,0,0.7,0.1
	c0.2,0.1,0.4,0.2,0.4,0.4c0,0.1,0.1,0.2,0.1,0.3c0.1,0.1,0.2,0.2,0.3,0.3c0.2,0.2,0.2,0.5-0.1,0.6c-0.1,0-0.3,0.1-0.4,0.1
	c-0.1,0-0.1,0-0.2,0c-0.2-0.2-0.4-0.1-0.6-0.1C62.1,4,61,4.1,59.8,4.1c-1.2,0-2.3,0.1-3.5,0.2c-0.6,0-1.2,0.1-1.8,0.3
	c-0.1,0-0.3,0.1-0.4,0.1c-0.9,0-1.6,0.5-2.2,1c-0.2,0.2-0.4,0.4-0.6,0.6c-0.1,0.1-0.2,0.2-0.4,0.3c-0.4,0.3-0.7,0.6-0.8,1.1
	c-0.3,1-0.6,2.1-1,3.1c-0.1,0.3-0.1,0.5,0.1,0.8c0.2,0.3,0.3,0.6,0.4,0.9c0.1,0,0.3,0,0.4,0c0.8-0.2,1.6-0.3,2.4-0.6
	c0.3-0.1,0.6-0.1,1-0.2c0.6-0.1,1.1-0.3,1.5-0.8c0.1-0.2,0.3-0.3,0.6-0.4c0.1,0.1,0.2,0.1,0.3,0.2c0.5,0.4,1.1,0.7,1.5,1.2
	c0.1,0.1,0.2,0.2,0.4,0.3c0.4,0.3,0.7,0.5,1,0.9c0.5,0.6,1.2,0.9,1.9,1.1c0.9,0.3,1.7,0.5,2.6,0.7c0.4,0.1,0.8,0.2,1.1,0.3
	c0.2,0,0.3,0.1,0.5,0.1c0.2,0,0.4-0.1,0.6-0.3c0.4-0.5,0.7-1.1,0.8-1.7c0.3-1.3,0.6-2.6,0.8-3.9c0.2-0.9,0.4-1.8,0.6-2.7
	c0.1-0.5,0.3-1,0.5-1.5c0.1-0.3,0.2-0.7,0.2-1c0-0.1,0-0.2,0.1-0.4c0.1-0.5,0.3-0.9,0.4-1.4C69,2.2,69,2,69.1,1.9
	c0.1-0.1,0.1-0.3,0.1-0.4c0.1-0.4,0.3-0.8,0.5-1.1c0.2,0,0.4-0.1,0.6-0.1C70.7,0.4,70.9,0.6,71,1c0,0.1,0,0.2,0,0.4
	c0,0.5,0.1,1,0.3,1.4c0.4,0.9,0.7,1.9,1,2.8c0.5,1.4,0.9,2.8,1.4,4.2c0.3,0.8,0.5,1.7,0.8,2.5c0.2,0.5,0.4,0.9,0.8,1.3
	c0.3,0.3,0.4,0.4,0.8,0.1c0.3-0.2,0.6-0.4,0.8-0.7c0.5-0.7,1-1.4,1.6-2.2c0.3-0.5,0.7-1,1-1.4c0.4-0.4,0.3-1.3,0-1.8
	c-0.1-0.1-0.2-0.2-0.3-0.2c-0.2,0-0.4,0-0.6,0.1c-0.4,0.1-0.8,0.1-1.2,0.2c-0.1,0-0.2,0-0.3,0c-0.2,0-0.4,0-0.4-0.1
	c-0.1-0.2,0.2-0.3,0.2-0.5c-0.1-0.1-0.1-0.3-0.2-0.5c0.2-0.2,0.4-0.3,0.6-0.3c0.1-0.1,0.3-0.1,0.5-0.2c0.1,0,0.3,0.1,0.4,0.1
	c0.3,0,0.7-0.1,1-0.1c0.6-0.1,1.2-0.2,1.8-0.2c0.9-0.1,1.8-0.2,2.7-0.3c1.3-0.1,2.6-0.3,3.8-0.4C88.3,5.2,89.2,5.1,90,5
	c1-0.1,2-0.2,3-0.2c1.1-0.1,2.2-0.2,3.3-0.3c1.1-0.1,2.1-0.2,3.2-0.1c1.2,0.1,2.4,0,3.6,0c0.2,0,0.4,0,0.6,0c0.5,0,0.5,0.1,0.6,0.6
	c-0.3,0.3-0.5,0.5-0.9,0.5c-1,0.1-2.1,0.2-3.1,0.3c-1.3,0.1-2.6,0.2-3.8,0.4c-0.6,0-1.2,0.1-1.7,0.1c-1,0.1-2,0.1-3,0.2
	C91,6.5,90,6.5,89.1,6.6c-0.8,0.1-1.6,0.2-2.3,0.2c-0.1,0-0.2,0-0.3,0.1C85.6,7.2,84.8,7.6,84,8c-0.6,0.3-0.7,0.9-0.9,1.4
	c0,0.2-0.1,0.4-0.1,0.6c0,0.1,0,0.3,0,0.5c0,0.2,0,0.4-0.1,0.6c-0.1,0.1-0.2,0.2-0.1,0.4c0.1,0.2,0,0.4-0.1,0.5
	c-0.1,0.2-0.2,0.2-0.4,0.2c-0.2,0-0.3,0.2-0.5,0.1c-0.2-0.1-0.2-0.3-0.2-0.5c0-0.4-0.1-0.8,0-1.2c0.1-0.3,0-0.3-0.1-0.7
	c-0.3,0.1-0.5,0.2-0.8,0.3c-0.2,0.4-0.5,0.7-0.7,1.2c0,0.1-0.1,0.1-0.1,0.2c-0.6,0.6-1,1.3-1.5,2c-0.1,0.1-0.1,0.2-0.2,0.2
	c-0.4,0.3-0.6,0.7-0.8,1.1c0.1,0.1,0.1,0.2,0.2,0.4c0.1,0.2,0.3,0.3,0.5,0.3c0.3,0,0.7,0.1,1,0.1c0.5,0.1,1.1,0,1.6-0.1
	c1.1-0.2,2.3-0.3,3.4-0.4c0.5,0,0.9,0,1.4,0c0.9,0.1,1.9,0.1,2.9,0.1c0.2,0,0.3-0.1,0.5-0.2c1.1,0.3,2.3,0.4,3.4,0.4
	c0.1,0,0.2,0,0.3-0.1c0.1,0,0.2-0.1,0.3,0c0.4,0,0.8,0.1,1.2,0.1c0.3,0,0.7,0.1,1,0.1c0.4,0.1,0.7,0.2,0.7,0.6
	c0,0.1,0.1,0.3,0.2,0.4c0.1,0.2,0,0.4-0.2,0.5c-0.1,0-0.2,0-0.2,0.1c-0.3,0.3-0.8,0.3-1.2,0.3c-0.5,0-0.9-0.1-1.4-0.1
	c-0.8-0.1-1.7-0.1-2.5-0.2c-0.6,0-1.3-0.1-1.9-0.1c-0.4,0-0.8-0.1-1.2-0.1c-1.2,0-2.5-0.1-3.7,0.1c-0.7,0.1-1.4,0-2,0.1
	c-0.7,0-1.3,0.1-2,0.2c-0.1,0-0.3,0.1-0.4,0.1c-0.1,0-0.2,0.1-0.3,0.1c-0.6,0.1-0.6,0.1-1.1,0.6c0.1,0.1,0.1,0.2,0.2,0.3
	c-0.4,0.3-0.4,0.4-0.2,0.8c0.1,0.2,0.2,0.4,0.3,0.5c0.6,0.6,1.2,1.3,2,1.7c0.4,0.2,0.8,0.4,1.2,0.6c1,0.4,2,0.7,3,0.9
	c0.7,0.1,1.4,0.2,2.1,0.3c0.6,0.1,1.3,0,1.9,0c1.1,0,2.2,0,3.3-0.1c1.1,0,2.2-0.1,3.2-0.6c0.2-0.1,0.4-0.1,0.6-0.1
	c0.2,0,0.4,0,0.5-0.1c0.4-0.1,0.8,0,1.1,0.1c0.3,0.1,0.4,0.4,0.5,0.6c0,0.1,0,0.2-0.2,0.3c-0.4,0.2-0.8,0.4-1.2,0.5
	c-0.7,0.2-1.3,0.5-1.9,0.7c-0.8,0.3-1.5,0.7-2.3,1c-0.4,0.2-0.7,0.3-1.1,0.4c-0.9,0.4-1.7,0.8-2.6,1.1c-0.3,0.1-0.5,0.2-0.8,0.3
	c-0.5,0.2-1,0.3-1.4,0.6c-0.3,0.1-0.6,0.2-0.9,0.3c-0.2,0.1-0.5,0.1-0.7,0.1c-1,0.3-2,0.3-3,0.3c-0.1,0-0.2,0-0.3,0
	c-0.1,0-0.2,0.1-0.3,0.1c-0.1-0.2-0.3-0.3-0.5-0.2c-0.3,0-0.7,0-1,0c-0.2,0-0.5-0.1-0.7-0.1c-0.4-0.1-0.8-0.2-1.2-0.4
	c-0.2,0-0.3-0.1-0.5-0.2c-0.1-0.1-0.3-0.2-0.4-0.2c-0.8-0.1-1.3-0.5-1.8-1c-0.4-0.4-0.9-0.8-1.2-1.3c0,0-0.1-0.1-0.1-0.1
	c-0.4-0.1-0.4-0.4-0.6-0.7c-0.1-0.4-0.2-0.7-0.1-1.1c0.2-1.1,0.4-2.2,0.6-3.2c0.1-0.6,0.4-1.3,0.6-1.9c0.1-0.2,0.2-0.4,0-0.6
	c-0.3-0.1-0.6,0-0.9,0.1c-0.5,0.1-0.9,0.2-1.4,0.3c-0.3,0.1-0.6,0.2-0.8,0.2c-0.2,0.1-0.4,0.1-0.7,0.2c-0.5,0.1-1.1,0.2-1.5,0.5
	c-0.4,0.2-0.9,0.3-1.3,0.3c-0.2,0-0.3-0.1-0.3-0.2c0-0.1,0-0.3,0.1-0.3c0.2-0.1,0.3-0.3,0.4-0.5c0.1-0.2,0.2-0.5,0.4-0.7
	c0.3-0.3,0.5-0.6,0.8-0.9c0.6-0.6,1.2-1.2,1.7-1.9c0.1-0.1,0.2-0.2,0.3-0.3c0.4-0.4,0.7-0.5,1.2-0.1c0.1,0.1,0.1,0.1,0.2,0.2
	c-0.1,0.4-0.4,0.6-0.7,0.9c0.1,0.2,0.4,0.1,0.6,0.2C72.1,16.2,72.1,16.3,72.1,16.4L72.1,16.4z M18,12.9c-0.4-0.1-0.6-0.1-0.9,0
	c-0.4,0.1-0.8,0.2-1.2,0.3c-0.8,0.3-1.6,0.4-2.5,0.5c-0.4,0.1-0.8,0.2-1.1,0.5c-0.6,0.5-1.2,1.1-1.7,1.7c-0.3,0.3-0.5,0.7-0.6,1.2
	c0,0.2-0.1,0.4-0.1,0.6c-0.2,0.9-0.4,1.8-0.2,2.7c0,0.1,0,0.2,0,0.4c0,0.1,0,0.3,0,0.4c0,0.1,0,0.2,0,0.2c-0.1,0.3,0,0.5,0.2,0.7
	c0.2,0.2,0.3,0.4,0.5,0.6c0.5,0.6,1,0.8,1.7,0.6c0.6-0.2,1.3-0.1,1.9-0.3c0.1,0,0.1,0,0.2,0c0.4,0,0.7,0,1-0.1
	c0.4-0.1,0.7-0.2,1-0.4c0.4-0.3,0.8-0.6,1.2-0.9c0.5-0.4,0.9-0.7,1.4-1.1c0.4-0.3,0.9-0.6,1.3-0.9c0.4-0.3,0.7-0.7,0.9-1.1
	c0.1-0.3,0.3-0.7,0.3-1c0-0.8,0-1.6,0-2.4c0-0.2,0-0.5,0-0.7c0-0.6-0.4-1.1-0.9-1.4c-0.3-0.2-0.5-0.2-0.9-0.2
	C19,12.8,18.5,12.8,18,12.9z M53.6,12.8c-0.8,0.2-1.7,0.5-2.5,0.7c-0.1,0-0.3,0.1-0.3,0.1c-0.3,0.2-0.5,0.3-0.9,0.4
	c-0.5,0.1-0.9,0.4-1.2,0.9c0,0.1-0.1,0.2-0.2,0.2c-0.3,0.1-0.5,0.4-0.6,0.6c-0.2,0.2-0.4,0.5-0.4,0.7c-0.2,0.6-0.5,1.2-0.5,1.8
	c0,0.3-0.1,0.7-0.2,1c-0.2,0.7-0.4,1.4-0.5,2.2c-0.1,0.3-0.2,0.6-0.1,0.9c0.2,0.1,0.3,0.2,0.5,0.3c0.4,0.2,0.7,0.2,1.1,0
	c0.7-0.4,1.3-0.7,2-1.1c1.2-0.6,2.3-1.2,3.5-1.7c0.6-0.3,1-0.7,1.4-1.1c0.1-0.1,0.2-0.3,0.3-0.4c0.2-0.3,0.4-0.6,0.4-1
	c0.1-0.7,0.1-1.4,0.1-2.2c0-0.4-0.1-0.8-0.4-1.1C54.5,13.5,54.2,13,53.6,12.8z M2.8,9.7c0.2,0.6,0.5,1.1,1.1,1.4
	c0.7,0.4,1.6,0.5,2.4,0.7c0.1,0,0.2,0,0.4,0c0.8-0.1,1.5-0.4,2.2-0.6c0.5-0.2,0.8-0.5,1-0.9c0.4-1,0.9-2,0.6-3.1c0-0.1,0-0.2,0-0.3
	c0-0.4-0.2-0.7-0.6-0.7c-0.2,0-0.5,0-0.7,0.1C8.3,6.5,7.5,6.7,6.6,7c-0.5,0.1-1,0.3-1.4,0.5C4.7,7.7,4.3,7.9,3.9,8.1
	C3.6,8.3,3.4,8.6,3.2,8.9C3.1,9.1,3,9.4,2.8,9.7z M47.1,5.3c-0.2,0.1-0.4,0.2-0.6,0.3c-0.3,0.2-0.7,0.3-1,0.6
	c-0.3,0.2-0.5,0.6-0.7,0.9c-0.4,0.8-0.8,1.6-1.1,2.4c-0.4,1.1-0.7,2.2-1.1,3.3c-0.1,0.4-0.2,0.7-0.2,1.1c-0.1,0.6,0.4,0.9,0.9,0.8
	c0.2,0,0.4-0.1,0.6-0.2c0.4-0.2,0.7-0.3,1.1-0.5c0.5-0.3,1-0.5,1.3-1.1c0.3-0.4,0.5-0.8,0.7-1.3c0.1-0.4,0.3-0.8,0.4-1.2
	c0.1-0.5,0.2-1,0.3-1.5c0.1-0.9,0.4-1.7,0.3-2.6C48,6,47.8,5.7,47.5,5.5C47.3,5.5,47.2,5.4,47.1,5.3z M38.5,22.9
	c0-0.1,0.1-0.3,0.1-0.4c0.1-1,0.2-2,0.3-2.9c-0.2-0.2-0.3-0.4-0.5-0.6c-0.1-0.2-0.1-0.4,0-0.5c0.1-0.2,0.3-0.4,0.5-0.6
	c0.5-0.5,0.6-1.2,0.3-1.8c-0.2-0.5-0.4-1.1-0.6-1.6c-0.3-1-0.6-2.1-1-3.1c-0.2-0.5-0.3-1-0.4-1.5c-0.2-0.8-0.5-1.6-0.7-2.4
	c0-0.1-0.1-0.2-0.3-0.3c0,0-0.1,0.1-0.2,0.1C36,7.4,35.8,7.7,36.1,8c0,0,0,0.1,0,0.2c-0.2,0.5-0.2,1-0.1,1.5c0.1,1.5,0.4,3,0.5,4.6
	c0,0.9,0.2,1.7,0.4,2.6c0.2,1,0.4,1.9,0.5,2.9c0.1,0.6,0.2,1.2,0.3,1.8c0,0.2,0.1,0.5,0.4,0.6C37.9,22.7,38,22.8,38.5,22.9z
	 M79.5,24c0.1,0.8,0.4,1.4,0.8,2c0.3,0.5,0.7,0.9,1.3,1.1c0.1,0,0.1,0,0.2,0.1c0.7,0.4,1.3,0.4,2,0.1c0.9-0.3,1.9-0.6,2.8-0.8
	c1.7-0.4,3.3-1,5-1.6c0.1,0,0.2,0,0.2-0.2c-0.1,0-0.3,0-0.4,0c-0.5,0-1,0.1-1.5,0.1c-1.1,0-2.1,0-3.2-0.1c-1.7-0.1-3.4-0.5-5-1
	c-0.4-0.1-0.7-0.2-1.1-0.4c-0.2-0.1-0.5,0-0.6,0.2C79.8,23.8,79.6,23.8,79.5,24z M41.1,26.3c0.3,0,0.4-0.1,0.6-0.2
	c0.2-0.1,0.4-0.3,0.7-0.4c0.4-0.2,0.6-0.5,0.8-0.9c0.2-0.3,0.3-0.6,0.5-0.8c0.7-0.9,1.1-2,1.3-3.1c0.2-0.8,0.3-1.5,0.5-2.3
	c0.1-0.4,0.2-0.7,0.2-1.1c0.1-0.3,0-0.5-0.1-0.7c-0.2-0.5-0.6-0.7-1-0.9c-0.6,0.3-1.2,0.5-1.8,0.8c-0.2,0.1-0.4,0.3-0.5,0.5
	c-0.3,0.7-0.2,1.4,0,2c0.2,0.5,0.5,1.1,0.6,1.6c0,0.1,0.1,0.2,0.1,0.3c0.2,0.3,0.2,0.6,0.3,0.9c-0.2,0.3-0.5,0.6-0.7,0.9
	c-0.6,0.7-0.9,1.6-1.3,2.5C41.3,25.6,41.2,25.9,41.1,26.3z M74.2,21.6c0,0.3,0.1,0.5-0.1,0.7c-0.1,0.1-0.1,0.4-0.1,0.5
	c0,0.4,0.1,0.9-0.1,1.3c0,0.1,0,0.1,0,0.2c0.1,0.3,0.2,0.5,0.4,0.7c0.1,0.1,0.2,0.3,0.4,0.4c0.3,0.3,0.7,0.6,1,0.9
	c0.2,0.2,0.5,0.3,0.8,0.4c0.6,0.2,1.1-0.3,1.2-0.8c0.1-0.6,0.1-1.2-0.1-1.8c-0.3-0.8-0.6-1.5-0.9-2.3c0-0.1-0.1-0.2-0.1-0.3
	c0-0.4-0.3-0.6-0.4-0.9c-0.1-0.2-0.3-0.3-0.5-0.2c-0.2,0.1-0.4,0.2-0.6,0.2C74.8,21,74.6,21.4,74.2,21.6z M55.1,21
	c-0.6-0.4-1.3-0.3-1.9-0.1c-0.5,0.2-0.9,0.4-1.3,0.7c-0.6,0.4-1.3,0.7-2,1c-0.6,0.3-1.2,0.5-1.7,0.9c0,0-0.1,0-0.2,0.1
	c-0.3,0.2-0.7,0.3-1,0.5c-0.4,0.3-0.7,0.7-0.9,1.1c-0.1,0.3,0,0.4,0.3,0.4c0.4,0,0.7-0.1,1.1-0.2c0.7-0.3,1.5-0.5,2.2-0.8
	c0.7-0.2,1.4-0.5,2.1-0.8c0.4-0.2,0.9-0.5,1.3-0.7c0.8-0.3,1.3-0.9,1.7-1.5C55,21.5,55.2,21.3,55.1,21z M41.4,19.8
	c-0.4,0.2-0.7,0.5-0.9,0.9c-0.1,0.3-0.3,0.6-0.4,1c0,0.6-0.1,1.1-0.2,1.7c0,0.1,0,0.2,0,0.3c0,0.2,0.1,0.2,0.3,0.3
	c0.1,0.1,0.2,0,0.3-0.1c0.1-0.2,0.3-0.3,0.4-0.6c0.1-0.3,0.4-0.3,0.4-0.5c0,0,0-0.1,0.1-0.1c0.2-0.4,0.3-0.8,0.5-1.1
	c0.1-0.2,0.1-0.3,0-0.5C41.8,20.7,41.6,20.3,41.4,19.8z M56.8,19.9c0.5-0.4,0.8-0.9,1.2-1.4c0,0,0-0.1,0-0.1c-0.6,0.1-0.9,0.5-1.2,1
	C56.7,19.6,56.6,19.8,56.8,19.9z M51.2,5.3C51.2,5.3,51.2,5.3,51.2,5.3C51.2,5.3,51.2,5.3,51.2,5.3C51.1,5.3,51.1,5.3,51.2,5.3
	C51.2,5.3,51.2,5.3,51.2,5.3z M45.7,5.3c0,0-0.1,0.1-0.1,0.1c0,0,0.1,0.1,0.1,0c0,0,0.1-0.1,0.1-0.1C45.8,5.3,45.8,5.3,45.7,5.3z
	 M54.7,13.3C54.7,13.3,54.7,13.3,54.7,13.3c0,0,0,0.1,0,0.1C54.7,13.4,54.8,13.3,54.7,13.3C54.8,13.3,54.7,13.3,54.7,13.3z
	 M46.6,26.6C46.6,26.6,46.6,26.6,46.6,26.6C46.6,26.6,46.6,26.6,46.6,26.6C46.6,26.6,46.6,26.6,46.6,26.6
	C46.6,26.6,46.6,26.6,46.6,26.6z"/>
</svg>
