<?xml version="1.0" encoding="utf-8"?>
<!-- Generator: Adobe Illustrator 24.3.0, SVG Export Plug-In . SVG Version: 6.00 Build 0)  -->
<svg version="1.1" id="Calque_1" xmlns="http://www.w3.org/2000/svg" xmlns:xlink="http://www.w3.org/1999/xlink" x="0px" y="0px"
	 viewBox="0 0 546 123.2" style="enable-background:new 0 0 546 123.2;" xml:space="preserve">
<style type="text/css">
	.st0{fill:#808080;}
</style>
<rect x="108.8" y="26.4" class="st0" width="22.9" height="73.3"/>
<polygon class="st0" points="23.9,48.5 65.7,48.5 24,75.6 24,75.6 24,99.7 104.2,99.6 104.1,77.5 62.6,77.5 104.1,50.4 104.1,50.4 
	104.1,26.3 23.9,26.4 "/>
<path class="st0" d="M297.1,55.1c-2.1,0-3.9-1.7-3.9-3.9c0-2.1,1.7-3.9,3.9-3.9s3.9,1.7,3.9,3.9l0,0C301,53.4,299.2,55.1,297.1,55.1
	z M297.1,48.8c-1.4,0-2.5,1.1-2.5,2.4c0,1.4,1.1,2.5,2.5,2.5s2.5-1.1,2.5-2.5C299.6,49.9,298.5,48.8,297.1,48.8L297.1,48.8
	L297.1,48.8z"/>
<path class="st0" d="M215.6,56c0-4.6-1.7-7.3-8.5-7.3V45H222c-1.8-3.7-4.4-6.9-7.6-9.5c0,0,0,0-1.4-1c-4.7-3.2-9.9-5.5-15.5-6.6
	c-2.5-0.6-2.9-0.7-6.8-1.1c-3.2-0.4-6.5-0.5-9.8-0.5h-44.1l0.1,73.4h25.3V68.5h0.7c0.1,11.2,11.7,23.7,27.3,23.7
	c10.1,0,19.1-3.6,25.4-10v0.4l0,0C215.6,82.6,215.6,60.2,215.6,56z M186.4,68.1c-6.1-0.1-12-2.2-16.8-6c-4.4-3.3-7.2-7.5-7.3-10.6
	h21.8c2.3,0,4.6,0.1,6.8,0.4h0.2h0.4l0.4,0.1h0.2c0.6,0.1,1.3,0.2,1.9,0.4l0.4,0.1l0.3,0.1l0.4,0.1c3.1,1.1,4.5,3,4.5,6
	C199.7,65.2,192.8,68.1,186.4,68.1z"/>
<g>
	<path class="st0" d="M447.1,89.4c0-4-0.2-10.5-0.4-16.2v-0.1c-0.2-6-0.4-12.1-0.4-15.8c0-5.2,1.2-8,7.6-8h1v-3.5h-28.2v3.5h1
		c5,0,7.5,1.3,7.5,8.2v30.3c0,5.8-1.6,8.7-10.4,8.8h-12.2c-22.1-23.8-51.6-32.5-66.4-32.5c-5.2,0-8.4,1.1-9.7,3.5
		c-2.1,3.9,2.1,9.9,6,15.7l0.3,0.4c3,4.4,6.5,9.4,5.4,11.5c-0.6,1-2.3,1.6-5.2,1.6c-2.7,0-9.5-1.6-16.3-6.1
		c-5.5-3.7-12.3-10.3-13.6-20.7l-0.1-0.6l-0.4,0.4c-0.2,0.2-0.4,0.4-0.6,0.5c-0.2,0.2-0.5,0.4-0.7,0.6l-0.1,0.1v0.1
		c2.6,16.2,17.4,24.6,26.9,27c-24.7-1.2-37.5-8.8-38-22.5v-0.3l-0.3,0.1c-0.5,0.1-0.9,0.1-1.4,0.1h-0.3v0.3
		c0.6,16.2,16.4,24.5,46.8,24.5c0.2,0,0.4,0,0.6,0c14.9,0,22.1-1.8,23.4-5.9c1.7-5.2-8.2-11.9-16.8-17.9l-0.1-0.1
		c-3.1-2.1-10.2-7-9.9-7.9c0,0,0.4-0.5,2.8-0.5c14.3,0,38.4,16.8,38.4,24.7c0,1.1-0.7,2.2-1.8,2.7c-1.5,0.8-4,1.3-7.1,1.3h-1v3.5
		l41.8-0.1h43.1v-3.5h-5.1C449.3,96.5,447.1,93.9,447.1,89.4z M350.2,96.2c1.7-3.3-1.9-8.5-5.7-14l-0.1-0.2
		c-3.4-5-7.3-10.7-5.8-13.4c0.5-0.9,1.5-1.5,3-1.9c-0.6,0.3-1,0.7-1.2,1.3c-0.6,2.3,2.8,4.8,10.7,10.2c6.9,4.7,17.2,11.9,16.1,15.7
		c-0.5,1.6-3.6,4.2-19.5,4.4C348.8,97.9,349.7,97.2,350.2,96.2z M382.6,97.5c1.8-0.9,2.9-2.6,2.9-4.5c0-9.2-24.2-25.5-38.9-26.7
		c14.4,0.1,43.1,8.7,64.6,32h-30.9C381.1,98.1,381.9,97.8,382.6,97.5z M376.4,98.6L376.4,98.6L376.4,98.6L376.4,98.6z M432.3,47.9
		h17.1c-4.5,1.5-5.2,5.6-5.2,9.5c0,3.8,0.2,10.1,0.4,15.6v0.3c0.2,5.4,0.4,12.1,0.4,16.2c0,4.3,1.7,7.3,4.8,8.5H431
		c4.5-1.2,6.5-4.5,6.5-10.2V57.5C437.5,54.6,437.5,49.6,432.3,47.9z"/>
	<path class="st0" d="M519.3,96.8c-12.1,0-28-5.3-42.6-14.3c-12.7-7.7-22-16.8-23-22.5l18.9-0.1c0.3,15,7.1,23,19.8,23
		c13.4,0,27.8-9.3,27.8-24.4c0-19.2-28.4-32.1-70.7-32.1h-34.2l0.1,53.8v0.3h3.4l-0.1-15.9c0-28.8,21.6-32.9,45-33
		c23.6,0,42,15.5,42,35.3v4.5c-19.9-0.3-29.5-8.4-29.5-24.7v-1h-1c-15.8,0-28.6,10-28.6,22.4c0,8.5,5.9,16.2,16.7,21.8
		c12.9,6.7,31.8,10.1,56,10.1h1v-3L519.3,96.8L519.3,96.8z M448.8,68.1c0-3.2,1-6.3,2.8-9.2V59c0,6.3,9.3,16.1,23.6,24.9
		c11.1,6.8,22.8,11.6,33.3,13.7c-18.6-0.8-33.8-4.1-44.3-9.6l0,0C454.3,82.8,448.8,75.7,448.8,68.1z M463.8,29.7
		c-13.9,0-23.8,1.7-31.1,5.3c-8.4,4.2-13.4,11-15.2,20.6v-27h32.1c41,0,68.6,12.1,68.6,30c0,13.8-13.4,22.3-25.8,22.3
		c-11.8,0-17.7-7.4-17.7-22v-1.1L452.3,58c1.1-1.5,2.4-2.8,4-4.1c5.3-4,11.5-6.1,18-6.1c0.4,17.4,11.1,25.8,32.7,25.8h1v-6.5
		C507.9,46.1,488.5,29.7,463.8,29.7z"/>
	<path class="st0" d="M321.1,47.3c0.1,0.3,0.2,0.7,0.2,1v0.5l0.4-0.2c25-13.5,65.4-19.7,86.4-19.9v25.1
		C405.7,38.2,397.7,32,380.8,32c-0.1,0-0.2,0-0.4,0c-14.5,0-22.2,5.1-22.2,14.8v14.6h-7.9V45.7h-1c-10.3,0-20.9,0.4-27.9,3.1
		l-0.2,0.1v0.2c0,0.2,0,0.5,0,0.8s0.1,0.6,0.1,0.9v0.4l0.4-0.2c5.3-2.2,13.4-3.2,26.5-3.2v15.6h32.1c8,0,10.6,2.4,10.6,9.9v0.9h3.4
		V40.7H391v1.1c0,9.5-13.8,17.4-30.7,17.8V46.7c0-10.5,10.9-12.7,20.1-12.7c19.4,0,26.3,8.1,26.3,30.8v15.9h3.4L410,26.8v-0.3h-1
		c-15.4,0-42.8,3.4-66.5,11c-7.6,2.4-14.6,5.2-21.4,8.8l-0.2,0.1v0.2C321,46.9,321,47.1,321.1,47.3z M382.6,56.1
		c4.9-2.8,8.1-6.2,9.6-10l0.1,21.7c-1.4-4.5-5.1-6.4-11.9-6.4h-15.7C371.4,60.8,377.6,59,382.6,56.1z"/>
	<path class="st0" d="M518.5,25.3c-3.6,0-6.5,2.7-6.5,6.4s3,6.5,6.5,6.5s6.4-2.8,6.4-6.5C524.9,28.1,522,25.3,518.5,25.3z
		 M518.5,37.2c-3.1,0-5.4-2.3-5.3-5.5c0-3.1,2.3-5.5,5.3-5.5s5.3,2.4,5.3,5.5S521.5,37.2,518.5,37.2z"/>
	<path class="st0" d="M520.1,32.1c0.8-0.2,1.3-0.8,1.3-1.9c0-1.5-0.8-2.2-2.6-2.2h-2.4c-0.3,0-0.5,0.2-0.5,0.5h0.2V35
		c0,0.3,0.2,0.5,0.5,0.5h0.1c0.3,0,0.5-0.2,0.5-0.5v-2.1c0-0.3,0.2-0.5,0.5-0.5h0.4c0.1,0,0.3,0,0.4,0.2l1.7,2.8
		c0.1,0.1,0.2,0.2,0.4,0.2c0.4,0,0.6-0.4,0.4-0.8l-1.2-1.9C519.6,32.6,519.8,32.2,520.1,32.1z M518.3,31.3h-0.7
		c-0.3,0-0.5-0.2-0.5-0.5v-1.4c0-0.3,0.2-0.5,0.5-0.5h1c0.8,0,1.7,0.2,1.7,1.2C520.3,31.3,519.3,31.3,518.3,31.3z"/>
	<path class="st0" d="M292.5,75l-0.1,0.3L292.5,75h-0.2l-0.1,0.2c-4.9,9-15.1,15.4-24.9,15.4c-20.9,0-29.9-12.7-30-42.6v-1h-2
		c-5,0.2-10.9,2.4-10.9,11.7V59c0,3.8,0.2,9.5,0.4,15.1c0.2,5.8,0.4,11.7,0.4,15.6c0,4.3,1.9,7.5,5,8.7H211c4.1-1,6.6-3.8,6.6-10.3
		V57.4c0-4.8-0.7-10-8.7-10.4v-0.3h29.3c0.5,23.4,17.2,36.8,45.8,36.8h1V72.4v-0.2l-0.1-0.1c-0.5-0.3-1-0.6-1.5-1l-0.5-0.4v10.5
		C255.8,81,240.2,68,240.2,45.6v-1h-33.4v4.3h0.3c6.8,0,8.2,2.8,8.2,7v32.3c0,5.9-1.6,8.9-10.5,8.9h-8.5l0.2,3.5l54-0.2v-3.5h-17.4
		c-4,0-6.2-2.6-6.2-7.2c0-3.9-0.2-9.4-0.4-15.7c-0.2-5.6-0.4-11.4-0.4-15.1c0-6.1,3-9.4,8.8-9.8c0.3,30.5,9.8,43.6,32,43.6
		c10.6,0,21.7-6.9,26.9-16.9l0.1-0.2l-0.1-0.1C293.5,75.2,293,75.1,292.5,75z"/>
	<path class="st0" d="M244.9,29.4c-3.7,0-7.6,0.2-11.6,0.5c-7.9,0.7-14.8,2.1-20.4,4.2l-0.5,0.2l2,1.4h0.1c5.5-1.9,12-3.2,19.4-3.8
		c3.2-0.3,6.7-0.4,11.1-0.4c9.7,0,20.1,5.5,27.9,14.6l0.4,0.5l0.1-0.6c0-0.3,0.1-0.6,0.2-0.8c0.1-0.3,0.2-0.6,0.2-0.9v-0.1l-0.1-0.1
		C265.7,34.9,254.9,29.4,244.9,29.4z"/>
	<path class="st0" d="M225.2,28.1c2.4,0,4.8,0,7.1,0.1c18.5,0.6,33.9,3.7,44.6,9.1l0.2,0.1l1.2-1.7l-0.3-0.2
		c-11.2-5.6-27.3-8.8-46.4-9.4c-2.1-0.1-4.3-0.1-6.4-0.1h-42.7v0.6l8.2,0.4c3.9,0.4,4.3,0.5,6.7,1.1H225.2z"/>
</g>
<g>
	<path class="st0" d="M297.1,75.9c-13.6,0-24.6-11-24.6-24.6s11-24.6,24.6-24.6l0,0c13.6,0,24.6,11,24.6,24.6S310.7,75.9,297.1,75.9
		z M297.1,28.9L297.1,28.9c-12.4,0-22.4,10.1-22.4,22.5s10.1,22.4,22.5,22.4s22.4-10.1,22.4-22.5l0,0
		C319.5,38.9,309.5,28.8,297.1,28.9L297.1,28.9z"/>
	<path class="st0" d="M297.1,76.3c-13.8,0-25-11.2-25-25s11.2-25,25-25s25,11.2,25,25S310.9,76.3,297.1,76.3z M297.1,27.1
		c-13.4,0-24.2,10.9-24.2,24.2c0,13.4,10.9,24.2,24.2,24.2s24.2-10.9,24.2-24.2C321.3,37.9,310.5,27.1,297.1,27.1z M297.2,74.2
		c-12.6,0-22.9-10.2-22.9-22.8s10.2-22.9,22.8-22.9c6.1,0,11.8,2.3,16.1,6.6c4.3,4.3,6.7,10,6.7,16.1
		C320,63.9,309.7,74.2,297.2,74.2z M297.1,29.3c-12.2,0-22,9.9-22,22.1s9.9,22,22.1,22s22-9.9,22-22.1c0-5.9-2.4-11.5-6.5-15.6
		C308.5,31.5,303,29.2,297.1,29.3L297.1,29.3z"/>
</g>
</svg>
