<svg id="Calque_1" data-name="Calque 1" xmlns="http://www.w3.org/2000/svg" viewBox="0 0 588.4 176.17"><defs><style>.cls-1{fill:#1d1d1b;}</style></defs><path class="cls-1" d="M654.23,292.56c5.34.7,10.67,2,16,2,8,0,15,1.55,20.4,8,3.7,4.41,9.11,5.45,14.3,7,1.78.53,3.22,2.21,4.82,3.36-1.53,1.48-2.92,4-4.61,4.25-6.5.83-13.16.48-19.65,1.37-9.43,1.3-18.78,3.22-28.14,5q-11.91,2.26-23.77,4.85c-4,.87-7.91,2.1-11.87,3.08-3.66.92-7.32,1.89-11,2.55-8.61,1.53-17.26,2.85-25.88,4.31-5,.86-10,2-15.05,2.73s-10.4,2.41-15.34,1.73-9.77-4-14.76-5.72-9-6.46-14.78-4.65c-12.19,3.84-25.37,4.41-36.59,11.46-8.22,5.16-16.6,10.08-25.05,14.87-4.45,2.53-10,3-12.46,8.89-1.08,2.59-13.8,2.27-15.62,0-1.58-2-1.72-4.34,1.43-5.37,7.68-2.51,15.61-4.44,23-7.58s14.29-7.47,21.41-11.27l-.53-1.52c-.81-.34-1.7-1.09-2.42-.95-12.36,2.26-24.73,4.5-37,7.14-2,.43-3.82,2.57-5.29,4.29-1.79,2.08-3.06,2.85-6.22,2a40.38,40.38,0,0,0-14.56-1.2c-12.12,1.26-23.9,3.7-35.34,8.64-8.33,3.6-17.89,4.28-26.84,6.53-8.25,2.07-16.38,4.62-24.63,6.69-1.64.41-3.6-.44-5.41-.7.86-1.49,1.36-3.57,2.65-4.38,7.45-4.66,15.27-8.27,24.4-8.41,13.09-.21,25.55-3.42,37.82-8,7.67-2.85,15.83-4.38,23.68-6.8,2-.61,3.6-2.4,5.78-3.91A24.87,24.87,0,0,0,402,334.47a191.18,191.18,0,0,0-25.26-2.37c-13.1-.29-26.45,1.74-39.26-.14-14.4-2.12-22.85,8.23-34.2,12.27-4,1.42-8,2.75-12.09,3.95-5,1.47-10,2.88-15.08,4.11q-16.55,4.05-33.14,7.86c-9.15,2.08-18.29,4.24-27.53,5.78-4,.67-9.15,2.56-11.83-2.17s1.6-7.53,4.52-10.33a149.25,149.25,0,0,1,30.92-22.78c4.94-2.75,9.69-5.84,14.53-8.77l-.18-1.59c-3.32,0-6.72-.43-10,.09-6.3,1-12.48,2.8-18.78,3.88-11.07,1.9-22.2,3.47-33.29,5.24-9.61,1.54-19.21,3.12-28.79,4.8-2.42.43-4.73,1.72-7.14,1.92-1.95.15-4-.75-6-1.18l-.44-2.43c6.27-3,12.47-6.12,18.83-8.9,15.44-6.77,31-13.38,46.46-20,2.57-1.1,5.39-1.78,7.73-3.24a7.12,7.12,0,0,0,3.21-4.5c.12-1.09-1.88-2.82-3.3-3.63-7.61-4.31-15.51-1.67-23.31-.59q-15.74,2.19-31.43,4.66a52.49,52.49,0,0,0-6.09,1.85c-8.71,2.53-15.09-2.15-19.58-8.21-4.91-6.6-8.16-14.46-11.93-21.87a84.82,84.82,0,0,1-3.34-8.78c3.71-1.91,5.65.15,6.53,2.68,2.66,7.64,9,9.2,15.81,10.61,5.87,1.22,11.61,3,17.41,4.53a19.58,19.58,0,0,0,3,.45c14.85,1.47,18.57-.94,26.26-17,2-4.17,3.63-8.56,6.13-12.39a13.77,13.77,0,0,1,6.68-5.46c5-1.58,7.7.52,8.31,5.82.32,2.77,1.18,4.29,4.13,4.31,11.42.07,22.86.61,34.26.14,7.2-.3,14.31-2.38,21.52-3.09,3.64-.36,8-1.2,11.11,3.84-2.71-.35-4.74-1.18-6.46-.74-8.59,2.17-17.07,4.78-25.64,7-6,1.57-12.54,1.88-18.06,4.43-6.22,2.88-11.61,7.58-17.25,11.66a3.15,3.15,0,0,0-.62,3,3.45,3.45,0,0,0,2.85,1.27c6.86-.84,13.69-1.86,20.53-2.86,6.51-1,13-1.84,19.53-2.94,6.14-1,12.21-2.47,18.36-3.4,2.89-.44,5.91.06,8.85-.16,1.42-.11,2.76-1.25,4.17-1.32a40.55,40.55,0,0,1,6.08.56l.31,1.36c-1.25.83-2.43,2.2-3.77,2.39-10.63,1.53-21.33,2.63-31.94,4.25-9.25,1.41-18.41,3.35-27.61,5-2.28.41-4.76.23-6.84,1.07-1.86.76-3.31,2.56-4.93,3.91,1.34,1.45,2.65,4.1,4,4.14,6.52.21,13.25.61,19.54-.76,10.79-2.36,21.3-6,32-9a162.07,162.07,0,0,1,16.16-4c3-.52,6.29.17,9.53.88-21.14,6.06-42.69,10.53-64.43,19.93,3.84,1.34,6.28,2.73,8.85,3,8.91.95,17.87,1.38,26.79,2.25,7.88.77,14.95-2,22-4.79,7.82-3.12,14.83-7.4,24.16-7,9,.41,18.11-3.22,27.22-3.55,14.91-.53,26.78-9.1,40.15-13.6a188.08,188.08,0,0,0,18.7-7.59c2.95-1.36,8.07-2.46,6.53-6.67-.92-2.52-5.45-4.41-8.69-5.2-3.43-.83-7.32-.37-10.92.13-13.14,1.82-26.25,3.85-39.35,5.92-1.91.3-3.68,1.38-5.58,1.84-9.54,2.26-15.2-3.5-20.8-9.85-7.69-8.73-9.73-19.78-14.16-29.85l2.1-1.39c1.88,2.07,4.35,3.85,5.52,6.27,2.12,4.33,5,6.85,9.82,7.87,7.64,1.59,15.07,4.27,22.73,5.77,4.49.87,9.26.52,13.9.39,5-.13,8.44-2.8,10.57-7.39,3.32-7.16,6.83-14.23,10.27-21.33,1.71-3.52,3.87-6,8.34-6.39s7.2,1.43,7.31,5.14c.15,5.35,3.48,5.93,7.12,6,9.79.2,19.6.32,29.39,0,21.25-.74,42.49-1.92,63.74-2.66,10-.35,20-.69,29.88,0,12.06.87,23.78,3.44,33,12.39,6.64,6.45,14.52,8.86,23.93,8.58q34.14-1,68.31-.55a73.48,73.48,0,0,1,21.81,3.65c4.95,1.62,9.06,5.82,13.54,8.87,4.27,2.91,8.46,6,12.85,8.67,1.87,1.15,5.32,1.25,3.38,4.41-.67,1.1-3.92.94-6,.82-4.64-.28-9.43-1.9-13.86-1.17A207.44,207.44,0,0,0,667.13,269c-13.13,4.06-26.09,8.69-39,13.33-5.09,1.83-9.94,4.34-14.89,6.54l.39,1.63c5.7,0,11.57.86,17.08-.16,14.07-2.63,28-6.17,42-9.2,7.67-1.65,15.41-3,23.1-4.53,3.22-.66,6.35-1.74,9.57-2.31,1.36-.24,2.86.35,4.29.57l.15,1.72-55.88,13.27Zm-444.7,65.56,1.38,2.13c9.58-1.46,19.26-2.47,28.72-4.49,12.27-2.6,24.29-6.37,36.56-9,11.06-2.34,21.72-5.5,31.53-11.18,6-3.51,11.75-7.89,18.17-10.47,17.22-6.92,34.63-13.44,52.2-19.43,11.36-3.87,23.11-6.68,34.78-9.59a7.76,7.76,0,0,1,8.46,3.3c-2.77.45-5.47-.36-7.85.21-9.47,2.23-19,4.42-28.22,7.51-13.86,4.65-27.48,10-41.17,15.18-1.15.44-2,1.63-3,2.48,1.27.52,2.61,1.62,3.79,1.47,10.31-1.3,20.64-2.52,30.86-4.38,11.37-2.07,22.66-4.66,33.93-7.25,5.75-1.32,11.64-2.56,17-4.86,10.33-4.41,14.08-14.88,20.82-23.61A22.71,22.71,0,0,0,444,286c-5.41.74-10.81,1.54-16.21,2.32-11.12,1.61-22.24,3.19-33.35,4.86s-22.23,3.36-33.33,5.16a165.79,165.79,0,0,0-17,3.28c-9.66,2.63-19,7.11-28.8,8.31S296,312.68,286.41,314c-16.49,2.32-29.84,10.87-43.34,19.31-8.06,5-15.84,10.54-23.56,16.09C216,352,212.84,355.2,209.53,358.12Zm421.92-62.69c-9.46,1.35-22.73,2.94-35.87,5.23a74.37,74.37,0,0,0-26.41,9.55,103.89,103.89,0,0,1-18.49,8.59c-4.92,1.79-10.31,2.23-15.4,3.63a5.45,5.45,0,0,0-3.11,3.21c-.23.68,1.32,2.32,2.4,3,3.85,2.44,8.13,4.28,11.7,7.06,4.36,3.39,9.12,3.53,13.92,2.62,12.31-2.33,24.54-5.09,36.81-7.63,3.71-.77,7.45-1.35,11.17-2.08,7.9-1.56,15.8-3.1,23.68-4.74s16.06-3.41,24.07-5.22c9.3-2.1,18.59-4.23,27.84-6.56a5.39,5.39,0,0,0,3.32-2.83c.5-1.27.32-4-.42-4.35-4.84-2.42-9.75-5.56-14.94-6.26C659.73,297,647.57,296.62,631.45,295.43ZM493.66,268.67l.6,1.77a28.43,28.43,0,0,0,4.78.21c13.14-1.49,26.26-3.09,39.39-4.64,4.76-.56,9.55-.89,14.27-1.66,6.51-1.07,12.94-2.66,19.46-3.65,12.09-1.83,24.21-3.46,36.34-5,11.67-1.52,23.33-3.13,35-4.22,13.23-1.22,26.51-1.86,39.76-2.86,1.31-.09,2.56-.92,3.84-1.41-1-1-2-2.72-3.17-2.93-6.44-1.13-13-2.68-19.44-2.65-19.95.1-39.88,1-59.83,1.3-8.76.14-17.7-1.52-26.26-.3-12.65,1.79-25.17,5-37.51,8.42-11.48,3.2-22.7,7.35-33.93,11.4C502.41,264.08,498.1,266.56,493.66,268.67Zm-33.2-45.09c-7.63,1.48-15.83,3.33-24.13,4.6-9.62,1.49-17.26,6.46-24.2,12.8-1,1-1.35,2.72-2,4.11,1.63.4,3.33,1.32,4.87,1.11,7.49-1,14.93-2.35,22.39-3.55,10.51-1.69,21-3.46,31.55-5,3.58-.53,7.25-.42,10.86-.77a45.53,45.53,0,0,0,4.65-1.12,27,27,0,0,1,3-.38c10.23-1,20.46-2,30.69-3.07,11.67-1.2,23.35-2.39,35-3.74,2-.23,4-1.22,6-1.86-1.63-1.35-3.24-2.74-4.91-4a2.58,2.58,0,0,0-1.43-.3c-8.45-.24-16.91-.77-25.35-.61C505.37,222.18,483.29,222.93,460.46,223.58Zm-79,101.32c0,.68,0,1.36,0,2,1.72.58,3.4,1.49,5.17,1.68,4.78.52,9.62.58,14.4,1.1a32.49,32.49,0,0,1,16,5.77c8.22,5.84,17.32,9.91,27.87,5.55a11.88,11.88,0,0,1,3.94-.39,187.45,187.45,0,0,0,41.37-6.51l9.14-2.44,0-1.27c-1.49-.39-3-.89-4.47-1.14-6.35-1-12.83-1.51-19-3.09-10-2.54-19.52-3.72-28,3.8a2,2,0,0,1-1.43.34c-1.26-.18-2.49-.5-3.74-.77.37-1.29.38-2.92,1.2-3.82a28.78,28.78,0,0,1,5.33-4.35c4.68-3.13,4.58-5.32-.43-8-6.21-3.34-12.64-1.86-18.87-.49-9.75,2.15-19.37,4.9-29.06,7.34C394.39,321.84,387.93,323.35,381.48,324.9Zm52.65-60.44.12,1.54a13,13,0,0,0,3,1.26c8,1.16,16,2.83,24.09,3.11a94,94,0,0,0,21.55-1.91c5-1,9.58-4,14.43-5.82,9.93-3.82,19.8-7.84,29.91-11.13,10.38-3.37,21-6,31.54-8.89,5.07-1.4,10.16-2.71,15.24-4.07a62.08,62.08,0,0,0-10.83-2c-2.9-.34-5.9-1.19-8.69-.75-7.62,1.19-15.14,3-22.7,4.47-13.56,2.67-27.16,5.1-40.66,8q-16.56,3.57-32.91,8.1C450.1,258.68,442.16,261.75,434.13,264.46Zm120,20-.3,1.75c2.28.83,4.49,2,6.84,2.41a87.85,87.85,0,0,0,13.75,1.77c8.28.2,16.91,1.28,24.78-.58,10.91-2.59,21.48-7.05,31.79-11.62a293.74,293.74,0,0,1,52.87-17.62c4.79-1.11,9.46-2.76,14.19-4.17-.15-.53-.29-1.07-.43-1.61C648.33,257.79,600.72,268.73,554.09,284.44Zm-40.8,7.42.24,1.36c2.72-.88,5.44-1.76,8.15-2.66,3.88-1.3,7.94-2.25,11.57-4.05,3.25-1.61,3.61-5.44,1-7.07-2.16-1.35-4.7-3.05-7-3-13.22.32-26.47.77-39.64,1.91a82.14,82.14,0,0,0-19.17,4.26c-7.63,2.61-15.86,4.8-20.17,12.76a29.75,29.75,0,0,0-1.76,5.28,31,31,0,0,0,5.74.43c6.11-.68,12.19-1.61,18.29-2.41,5.88-.77,11.79-1.33,17.63-2.28C496.54,295,504.91,293.39,513.29,291.86Zm69.46,4.41c-.12-.48-.23-1-.34-1.44-1-.16-2.1-.29-3.15-.48-7.08-1.27-14.12-3-21.26-3.7a125,125,0,0,0-21.11,0c-3,.23-5.82,3-8.92,3.59-10.53,2-21.14,3.46-31.72,5.21-13.67,2.25-27.33,4.53-41,7-1.21.21-3,1.49-3.11,2.4a5.22,5.22,0,0,0,1.8,4,11.6,11.6,0,0,0,5.4,1.87c8.8.9,16.93-1.71,25.14-4.53,8.56-2.94,17.39-5.07,26.15-7.38,1.17-.31,2.58.39,3.89.55,3.75.49,7.5,1.08,11.27,1.39,17.85,1.43,35.12-2.23,52.31-6.34A26,26,0,0,0,582.75,296.27ZM330.17,242c1.6,3.29,2.26,5.47,3.56,7.17,3.66,4.76,7,10.35,14.16,9.92a108,108,0,0,0,13.28-1.62c7.72-1.42,15.33-3.81,23.11-4.57,8.31-.8,14.42-4.56,19.77-10.48,3.59-4,7.42-7.78,11.19-11.61,1.63-1.66,3.39-3.2,5.09-4.8-2.46-.54-4.9-1.43-7.39-1.58-6.88-.42-9.27-2.38-10.74-9.34-.12-.55-.78-1-1.4-1.74-1.09.92-2.41,1.55-3,2.59-3,5.37-5.76,10.91-8.82,16.26-3.46,6.08-4.93,14.35-13.42,15.6a66.88,66.88,0,0,1-18.85.16C348.34,246.73,340.14,244.26,330.17,242ZM139.38,276.23c1.62,3.12,2.28,5.22,3.61,6.76,3.95,4.57,7.15,10.56,14.47,10.16a103.73,103.73,0,0,0,13.25-1.72c8-1.48,16.13-2.87,24-4.94,4.75-1.24,9.85-2.85,13.59-5.81,5.84-4.63,10.64-10.57,15.92-15.92,1.64-1.66,3.39-3.21,5.09-4.81-2.47-.54-4.91-1.42-7.41-1.57-6.91-.42-9.45-2.45-10.61-8.89-.12-.7-.82-1.3-1.57-2.42a24.08,24.08,0,0,0-2.93,3.45c-3.3,6-6.36,12.21-9.76,18.19-2.23,3.92-4.05,9.22-7.55,11.05-7.57,4-16.25,3.25-24.61,1.58C156.87,279.75,148.86,278.13,139.38,276.23Zm425.31,31.88-.45-1.36a9.61,9.61,0,0,0-2.64-.42c-5.81.77-11.59,2.08-17.41,2.37-9,.46-18,3.56-27.06,0a16.16,16.16,0,0,0-9.27-.49c-8.27,2-16.4,4.62-24.54,7.15-4.45,1.39-8.8,3.11-13.19,4.68,1.14,1.74,2.08,2.42,3.09,2.54,8.85,1.1,17.69,2.63,26.57,2.95,6.81.24,13.71-.81,20.48-1.86,2.72-.42,5.08-2.86,7.82-3.56,8.25-2.11,16.72-3.44,24.89-5.82C557.12,313,560.8,310.21,564.69,308.11Zm-98.53-31.27v-1.69a22,22,0,0,0-2.59-.78c-8.29-1.35-16.56-2.8-24.88-3.94-5.16-.71-10.77-2.36-15.51-1.1-11,2.93-21.7,7.16-32.37,11.24-8,3.06-15.81,6.7-23.7,10.09l.13,1.53c2.14.15,4.32.63,6.42.4,4.09-.44,8.13-1.3,12.2-1.94,5.08-.79,10.16-1.5,15.23-2.32,11.43-1.84,22.86-3.62,34.26-5.63C445.65,280.89,455.89,278.81,466.16,276.84ZM176.94,325l.32,1.25a16.16,16.16,0,0,0,4.11.41c10.43-1.67,20.86-3.45,31.28-5.23,5.06-.86,10.08-2.25,15.17-2.6a187.88,187.88,0,0,0,42.58-8.08,8.13,8.13,0,0,0,2-1.42c-8.91-1.75-17.37-3.1-25.66-5.14-8.12-2-15.65-1.79-23.52,1.62-10.93,4.73-22.35,8.32-33.45,12.7C185.3,320.29,181.19,322.84,176.94,325Zm447.45-64.31c0-.51-.1-1-.14-1.54-1.54-.21-3.11-.77-4.6-.58q-14.22,1.81-28.42,3.91-19.08,2.82-38.12,5.85c-4.86.77-9.7,1.76-14.46,3a4.14,4.14,0,0,0-2.51,3c0,1.38,1,3.71,2,4,3.57,1,7.58,2.37,11,1.61,10.66-2.37,21.08-5.77,31.65-8.52,9.35-2.44,18.79-4.52,28.17-6.8C614.08,263.37,619.23,262,624.39,260.72ZM504.47,240.54l-.29-2c-2.88,0-5.81-.37-8.61.06-11.4,1.77-22.75,3.9-34.15,5.67-13.8,2.14-27.65,4-41.44,6.21-1.51.25-3.67,2.35-3.77,3.72s1.8,3.91,3.18,4.18c4,.8,8.27,1.43,12.24.81,5.74-.9,11.31-2.92,16.94-4.52,6.6-1.87,13.14-4,19.79-5.67,6.48-1.66,13.07-2.89,19.59-4.41C493.47,243.33,499,241.9,504.47,240.54Zm-202,63.9c17.72,1.66,32.69-6.28,48.68-8.81C341.64,292.85,306.44,299.18,302.46,304.44Z" transform="translate(-126.28 -208.29)"/><path class="cls-1" d="M528.61,369.46c-1.1.62-2.22,1.7-2.72,1.46-3.59-1.7-6.54,1.1-9.86,1.13-14.56.16-27.53,6.93-41.37,10.06-2.65.6-5.56,4.91-7.7.12-.37-.82,3.35-4.51,5.7-5.32,7.3-2.48,14.85-4.22,22.31-6.24,5.69-1.53,11.31-3.63,17.1-4.38,4.81-.62,9.83.27,14.74.72C527.42,367.06,527.91,368.46,528.61,369.46Z" transform="translate(-126.28 -208.29)"/></svg>