<?xml version="1.0" encoding="utf-8"?>
<!-- Generator: Adobe Illustrator 24.3.0, SVG Export Plug-In . SVG Version: 6.00 Build 0)  -->
<svg version="1.1" id="Calque_1" xmlns="http://www.w3.org/2000/svg" xmlns:xlink="http://www.w3.org/1999/xlink" x="0px" y="0px"
	 viewBox="0 0 150.1 94.6" style="enable-background:new 0 0 150.1 94.6;" xml:space="preserve">
<style type="text/css">
	.st0{fill:#3FAE5C;}
</style>
<g>
	<path class="st0" d="M133.6,17.5H11c-0.9,0-1.6,0.7-1.6,1.6v67c0,0.9,0.7,1.6,1.6,1.6h122.5c0.9,0,1.6-0.7,1.6-1.6v-67
		C135.2,18.2,134.5,17.5,133.6,17.5z M60.1,70.6c-1.6,0-3.2,0-4.8,0c-0.7,0-1,0.2-1,0.9c0,2.1,0,4.2,0,6.2c0,0.5,0.3,1.1,0.7,1.5
		c0.9,1,1.9,1.9,2.8,2.8c0.2,0.2,0.3,0.4,0.7,0.8c-0.5,0.1-0.8,0.1-1.1,0.1c-7.9,0-15.9,0-23.8,0c-0.6,0-1.3-0.4-1.8-0.8
		c-1-0.9-1.9-1.9-2.9-2.8c-0.8-0.8-1.7-1.2-2.8-1.2c-1.2,0.1-2.4,0-3.9,0c1.6,1.6,3,3,4.5,4.6c-0.6,0.1-0.9,0.2-1.2,0.2
		c-1.7,0-3.4,0.1-5,0c-0.5,0-1.1-0.3-1.5-0.6c-1-0.9-2-1.9-2.9-2.9c-0.4-0.5-0.8-1.2-0.8-1.8c0-8.2,0-16.3,0-24.5
		c0-1.5,0-1.5,1.5-1.5c1.8,0,3.6-0.1,5.4,0c1.4,0.1,2.3-0.5,3.1-1.6c0.9-1.2,1.8-2.3,2.7-3.5c0.1-0.2,0.3-0.3,0.5-0.5
		c0.2,0.3,0.4,0.6,0.5,0.8c0.9,2,1.8,4,2.8,5.9c0.3,0.6,0.3,1.2,0,1.8c-3.5,7.1-7.1,14.3-10.6,21.4c0,0.1,0,0.1,0,0.4
		c1.6,0,3.3,0.2,4.8-0.1c0.8-0.2,1.6-1.2,2.1-2.1c1.8-3.2,3.4-6.4,5-9.7c1.3-2.5,2.6-5,3.8-7.5c0.1-0.1,0.2-0.2,0.4-0.5
		c0.1,0.5,0.3,0.8,0.3,1.1c0.3,2.8,0.6,5.6,0.8,8.4c0.2,2,1,2.8,3,2.8c5.1,0,10.1,0,15.2,0c0.9,0,1.8,0,2.8,0
		c-0.1-1.7-1-2.8-2.2-3.7c-1.3-0.8-2.7-1.2-4.3-1.1c-2.7,0-5.3,0-8,0c-1.4,0-1.6-0.1-1.7-1.5C43.2,61.3,43,60,43,58.7
		c0.1-4-0.9-7.8-2.9-11.3c-0.8-1.3-1.4-2.8-2.3-4.5c0.9,0,1.6,0.1,2.2,0c2.5-0.4,4.1,0.4,5.1,2.8c0.5,1.3,1.4,2.4,2.2,3.6
		c0.7,1.1,1.9,1.4,2.9,0.8c0.9-0.6,1.1-1.8,0.4-2.9c-1.2-2.1-2.5-4.1-3.7-6.2c-0.7-1.1-1.8-1.8-3.1-1.8c-4.6-0.1-9.2-0.1-13.9,0
		c-1.7,0-2.8,1.3-3.8,2.5c-1.3,1.6-2.6,3.2-3.8,4.9c-0.5,0.7-1.1,1.1-2,1c-1.3-0.1-2.7,0-4,0c-0.8,0-1.1-0.2-1.1-1.1
		c0-7.5,0-15.1,0-22.6c0-0.8,0.3-1.1,1.1-1.1c12.3,0,24.6,0,36.9,0c0.9,0,1.1,0.4,1.1,1.2c0,12.2,0,24.4,0,36.6c0,0.4,0,0.7,0,1.1
		c0,0.7,0.2,1.1,0.9,1.2c3.4,0.4,5,2.8,6.1,5.7C62.2,70.6,62.1,70.6,60.1,70.6z M123.9,53.7c-5.8,5.6-11.6,11.3-17.3,17
		c-0.7,0.7-1.5,1-2.5,1c-4.2,0-8.4,0-12.7,0c-0.4,0-0.8,0-1.3,0c4.1-4.3,8.2-8.5,12.2-12.8c-0.2,0-0.5-0.1-0.8-0.1
		c-7.5,0-15,0-22.5,0c-1.1,0-1.4-0.3-1.4-1.4c0.1-3,0-6,0-9.1c0-0.3,0.1-0.6,0.1-1.1c8.2,0,16.4,0,24.8,0
		c-4.2-4.3-8.2-8.5-12.4-12.7c0.4,0,0.6-0.1,0.9-0.1c4.5,0,9,0,13.5,0c0.5,0,1.2,0.3,1.5,0.6c5.9,5.8,11.8,11.6,17.7,17.4
		C124.3,52.9,124.4,53.1,123.9,53.7z"/>
	<path class="st0" d="M29.5,28.7c-2.5,0-4.5,2-4.5,4.5c0,2.4,2,4.5,4.4,4.5c2.5,0,4.5-1.9,4.5-4.4C33.9,30.6,32.1,28.7,29.5,28.7z"
		/>
</g>
</svg>
